<svg width="312" height="186" viewBox="0 0 312 186" fill="none" xmlns="http://www.w3.org/2000/svg">
<path d="M95.8455 177.498H65.1445H64.0821H63.126L64.0821 162.963L65.4632 131.771L65.9943 101.428L65.4632 93.4704L64.0821 84.7705C64.2521 84.0915 63.0906 81.8706 62.4887 80.845L59.5142 76.6012L57.7082 72.1451L55.3711 64.0819L52.6091 54.8515C52.779 54.512 51.4759 52.376 50.8031 51.3504L44.0043 41.8017L38.5864 31.7226V29.2824L38.7989 27.5849L39.5425 26.5239H40.7111L42.0921 27.2666L43.2606 27.5849L44.0043 28.3276L45.0666 29.2824L46.6601 31.9348L48.466 35.0116L50.8031 38.1945L51.5467 39.5737L54.8399 42.9688C55.8598 43.7327 56.5397 43.9237 56.7521 43.9237V41.3774L52.8215 32.4653L47.8286 21.2192L45.8102 14.7473V11.9888L46.2351 10.6096L47.2975 9.12424H48.3598C48.7139 9.2657 49.4858 9.54862 49.7408 9.54862C49.9958 9.54862 50.6261 10.1145 50.9094 10.3974C51.2493 10.4823 51.9009 11.2815 52.1841 11.6705C52.6091 11.8403 53.2819 13.4388 53.5652 14.2168L55.1586 18.8851L56.7521 22.9167L58.3456 25.463L59.5142 27.5849L60.6827 29.2824C61.1926 29.7068 61.745 31.2275 61.9575 31.9348L63.4447 35.5421C63.6147 35.9665 64.2238 36.4969 64.5071 36.7091C64.762 36.8789 64.9674 36.7799 65.0382 36.7091V32.6775L63.6572 25.463L60.2578 10.6096L59.1955 7.85109L59.0892 5.41088V3.07678L59.9391 1.27315L60.8952 0H62.0637C62.5736 0.169753 63.6218 0.707305 64.0821 0.954862C64.3371 1.12462 65.7464 3.3597 66.4192 4.45602L69.1813 11.6705L72.1558 21.6435L73.3243 27.2666L73.7493 31.1922L74.3867 33.4202C74.4716 33.8446 75.2011 34.4458 75.5552 34.6933H76.6175C76.9575 34.6933 77.3966 33.4909 77.5736 32.8897L77.3612 15.9144L76.4051 11.9888L75.9801 9.12424V5.41088L76.7238 4.03164L77.8923 2.75849L78.7422 2.33411L80.4419 2.5463L81.398 3.07678C81.483 2.90703 82.5665 4.34993 83.0977 5.0926L84.0538 7.6389L85.3286 15.9144L85.8597 18.8851L86.3909 23.5533L86.8158 26.4179L87.1345 33.4202V37.4518L87.347 39.5737L88.0906 42.0139L91.1713 48.8041L92.5524 50.6077L93.9334 51.7747C94.1033 52.1143 95.279 52.4821 95.8455 52.6235L97.864 52.4113L98.6076 51.4565C98.9475 51.2867 102.928 45.798 104.875 43.0749L109.125 38.1945C110.01 37.664 111.78 36.5818 111.78 36.497C111.78 36.4121 112.772 36.1787 113.268 36.0726H114.967L115.817 36.3909L116.88 37.3457L118.048 37.4518L118.685 38.4067C118.792 38.725 118.261 39.7859 118.261 40.1042C118.261 40.3588 117.836 41.4835 117.623 42.0139C117.538 42.4383 116.03 44.3127 115.286 45.1968L112.099 49.4406L109.231 53.0479C109.231 53.642 107.389 56.5491 106.469 57.9283L105.194 60.6868C105.194 61.1961 104.132 62.8087 103.6 63.5514C103.685 64.2304 100.661 67.8659 99.1387 69.5988L94.3583 75.7524C94.3583 76.5163 92.3045 79.1828 91.2776 80.4206C91.3626 81.1845 90.3215 85.4778 89.7903 87.529V96.335L92.0212 126.148L94.0396 152.354L95.8455 177.498Z" fill="#EED0BE"/>
<path d="M255.004 177.498H285.564H286.621H287.573L286.621 162.963L285.247 131.771L284.718 101.428L285.247 93.4704L286.621 84.7705C286.452 84.0915 287.608 81.8706 288.207 80.845L291.168 76.6012L292.966 72.1451L295.292 64.0819L298.042 54.8515C297.872 54.512 299.17 52.376 299.839 51.3504L306.607 41.8017L312 31.7226V29.2824L311.789 27.5849L311.048 26.5239H309.885L308.51 27.2666L307.347 27.5849L306.607 28.3276L305.55 29.2824L303.963 31.9348L302.166 35.0116L299.839 38.1945L299.099 39.5737L295.821 42.9688C294.806 43.7327 294.129 43.9237 293.918 43.9237V41.3774L297.83 32.4653L302.8 21.2192L304.809 14.7473V11.9888L304.386 10.6096L303.329 9.12424H302.271C301.919 9.2657 301.151 9.54862 300.897 9.54862C300.643 9.54862 300.016 10.1145 299.734 10.3974C299.395 10.4823 298.747 11.2815 298.465 11.6705C298.042 11.8403 297.372 13.4388 297.09 14.2168L295.504 18.8851L293.918 22.9167L292.331 25.463L291.168 27.5849L290.005 29.2824C289.497 29.7068 288.948 31.2275 288.736 31.9348L287.256 35.5421C287.087 35.9665 286.48 36.4969 286.198 36.7091C285.944 36.8789 285.74 36.7799 285.67 36.7091V32.6775L287.044 25.463L290.428 10.6096L291.486 7.85109L291.591 5.41088V3.07678L290.745 1.27315L289.794 0H288.63C288.123 0.169753 287.079 0.707305 286.621 0.954862C286.367 1.12462 284.965 3.3597 284.295 4.45602L281.545 11.6705L278.585 21.6435L277.421 27.2666L276.998 31.1922L276.364 33.4202C276.279 33.8446 275.553 34.4458 275.201 34.6933H274.143C273.805 34.6933 273.368 33.4909 273.192 32.8897L273.403 15.9144L274.355 11.9888L274.778 9.12424V5.41088L274.038 4.03164L272.874 2.75849L272.028 2.33411L270.337 2.5463L269.385 3.07678C269.3 2.90703 268.222 4.34993 267.693 5.0926L266.741 7.6389L265.472 15.9144L264.944 18.8851L264.415 23.5533L263.992 26.4179L263.675 33.4202V37.4518L263.463 39.5737L262.723 42.0139L259.656 48.8041L258.282 50.6077L256.907 51.7747C256.738 52.1143 255.568 52.4821 255.004 52.6235L252.994 52.4113L252.254 51.4565C251.916 51.2867 247.954 45.798 246.015 43.0749L241.785 38.1945C240.904 37.664 239.142 36.5818 239.142 36.497C239.142 36.4121 238.155 36.1787 237.661 36.0726H235.969L235.124 36.3909L234.066 37.3457L232.903 37.4518L232.268 38.4067C232.163 38.725 232.691 39.7859 232.691 40.1042C232.691 40.3588 233.114 41.4835 233.326 42.0139C233.41 42.4383 234.912 44.3127 235.652 45.1968L238.825 49.4406L241.68 53.0479C241.68 53.642 243.513 56.5491 244.429 57.9283L245.698 60.6868C245.698 61.1961 246.755 62.8087 247.284 63.5514C247.2 64.2304 250.21 67.8659 251.725 69.5988L256.484 75.7524C256.484 76.5163 258.528 79.1828 259.551 80.4206C259.466 81.1845 260.502 85.4778 261.031 87.529V96.335L258.81 126.148L256.801 152.354L255.004 177.498Z" fill="#E8B39B"/>
<path d="M108.631 170.335L109.575 164.225L110.454 157.112C110.553 154.507 110.597 149.126 109.988 148.44C109.787 147.254 109.26 144.61 108.758 143.514L106.737 140.353L104.743 137.09L102.182 133.897L98.2592 128.375L96.3625 125.575C95.7863 124.986 94.6111 123.56 94.5196 122.571L93.3189 119.626L91.3247 116.362L85.6952 109.406L83.2688 105.7C82.6041 104.613 81.3953 102.228 81.8781 101.39L82.3352 99.6462L84.4334 98.333C85.3939 98.2925 87.4274 98.285 87.8766 98.5782C88.3259 98.8713 89.6656 99.5588 90.2793 99.8658L93.104 102.47L95.0057 104.832C97.2287 108.338 101.718 115.185 101.89 114.529C102.512 114.802 103.899 115.143 104.464 114.327C105.205 114.01 106.822 113.192 107.365 112.457C107.785 111.89 107.734 111.853 107.602 111.944C107.556 111.982 107.512 112.016 107.473 112.047C107.516 112.008 107.563 111.971 107.602 111.944C108.092 111.54 108.913 110.735 109.09 110.06L110.437 107.015L112.212 100.246L112.694 96.3165L113.006 89.2737C112.936 87.867 112.912 84.8647 113.374 84.1088L113.582 81.6423L113.984 78.0208L114.521 75.9696L115.005 74.1235C115.079 73.7043 115.201 72.7936 115.101 72.5044L116.079 67.938C116.151 67.6645 116.352 67.0668 116.58 66.8637C116.72 66.6081 117.052 66.0667 117.259 65.9456C117.615 65.5639 118.487 64.7767 119.125 64.6812C119.332 64.5892 119.813 64.401 120.08 64.3835C120.348 64.366 121.423 64.6989 121.927 64.8676C122.173 65.0418 122.656 65.4314 122.613 65.5955C122.559 65.8006 123.045 66.0376 123.245 66.5286C123.369 66.89 123.607 67.654 123.564 67.8181C123.511 68.0232 123.916 68.5679 123.808 68.9781L123.615 70.1332C123.655 70.3994 123.729 70.9523 123.707 71.0343L123.465 71.9574L122.702 75.7033L122.434 76.7289L122.111 77.9596C122.116 78.2169 122.117 78.7724 122.074 78.9365C122.02 79.1416 122.269 79.8645 122.086 80.1453C122.142 80.4888 122.217 81.2321 122.071 81.4567C122.177 81.8865 122.374 82.8077 122.31 83.0539C122.391 83.4406 122.517 84.2701 122.37 84.4947C122.469 84.813 122.631 85.5058 122.485 85.7305C122.575 86.083 122.724 86.8236 122.599 86.9662L122.352 88.3264L122.288 89.4057L122.063 91.1005L122.075 92.3093L121.984 93.4913C122.04 93.8348 122.142 94.5629 122.099 94.727C122.056 94.8911 122.348 95.4499 122.499 95.7088C122.531 95.8635 122.632 96.2041 122.775 96.3292C122.953 96.4855 123.18 96.8739 123.336 96.6957L123.747 96.8032C123.91 96.7365 124.274 96.547 124.421 96.3223C124.568 96.1783 124.874 95.8492 124.917 95.6851C124.96 95.521 125.215 95.1056 125.337 94.9184L125.767 93.2774L125.938 91.7878L126.029 90.6059L126.249 89.3483L130.224 74.6065C130.251 74.504 130.336 74.2632 130.461 74.1206C130.586 73.978 130.962 72.3519 131.134 71.5566L132.06 69.2784L133.147 66.3849C133.288 66.1293 133.599 65.5825 133.724 65.4399C133.849 65.2974 134.161 64.7506 134.301 64.495C134.502 64.1459 134.982 63.4021 135.293 63.2205C135.586 63.0782 136.233 62.8095 136.479 62.8741C136.72 62.7911 137.269 62.6208 137.537 62.6033L139.178 63.0336C139.484 63.26 140.085 63.7538 140.042 63.9179C139.988 64.123 140.367 64.7703 140.313 64.9754C140.259 65.1805 140.584 66.0329 140.427 66.2111L140.283 67.5982C140.24 68.3178 140.15 69.7774 140.128 69.8595L136.982 81.859L136.219 85.605L135.676 88.0933L135.419 90.3277L134.612 93.4045L134.453 96.103L134.201 97.9003C134.215 98.1233 134.265 98.5748 134.347 98.5963L134.757 98.7039C134.964 98.612 135.383 98.4076 135.405 98.3256C135.431 98.223 136.106 97.7421 136.057 97.5101L136.299 96.587L136.697 95.4858L137.279 94.1037L137.78 93.0293L138.335 91.7498C138.457 91.5627 138.712 91.1472 138.755 90.9832C138.798 90.8191 139.017 90.5404 139.121 90.4216C139.533 89.6891 140.427 88.1992 140.717 88.0996C140.831 87.8009 141.201 87.0868 141.762 86.62L142.393 85.47L143.157 83.8071L143.847 82.0148L144.573 79.2457L145.736 76.4816L146.63 74.7431L147.493 73.5443C147.771 73.1788 148.349 72.4534 148.431 72.4749C148.533 72.5018 150.011 71.4643 150.319 71.545L151.857 71.9484C152.172 72.1406 152.797 72.5455 152.775 72.6276C152.748 72.7301 153.412 73.1235 153.407 73.5606C153.507 73.8789 153.694 74.5566 153.651 74.7207L153.641 75.5949L151.915 82.5959L151.517 83.6972L151.043 84.669C150.953 85.0109 150.743 85.7302 150.617 85.8728L150.095 86.6126L149.432 88.3023L148.662 90.4023L148.242 91.169L147.849 91.8332L147.504 92.7293L146.82 94.0845L146.578 95.0075L146.373 94.9537L146.185 95.6716L146.055 95.7473L145.894 96.3627L145.689 96.3089L145.447 97.2319L145.112 97.2538L144.924 97.9717L144.628 99.0999L144.208 99.8666L143.546 101.556L142.47 105.659L143.393 105.901C143.584 105.888 143.951 105.82 144.092 105.646L144.143 105.549L144.763 105.274L145.335 104.766L145.836 103.691L146.256 102.925L146.859 101.877L147.717 101.115L148.547 100.456L150.919 97.6804L151.469 96.838L151.97 95.7636L152.632 94.0739L153.861 92.3135L155.403 90.1967C155.818 89.8671 156.797 89.2251 157.393 89.2937L158.321 89.0986L159.655 89.4482L160.314 90.2787L160.687 91.3631L160.904 92.6257L160.765 93.5756L160.781 94.3473L160.297 96.1934L159.855 96.6255L159.533 97.8562L158.719 99.2871L157.905 100.718L156.574 102.451L154.822 104.952L153.388 106.658L150.332 110.789L149.362 112.398L148.548 113.829L146.55 117.69L145.726 119.995L144.585 123.093L141.331 135.503L140.793 137.554L140.329 137.652L139.899 139.293C139.836 139.532 139.638 140.036 139.349 140.135L139.053 141.263C138.913 141.519 138.56 142.055 138.271 142.154L136.735 143.834L135.056 148.984L134.852 151.013L134.341 152.962L134.02 156.276L133.056 164.134L132.544 177.373L108.747 177.6L108.631 170.335Z" fill="#E9C6AF"/>
<path d="M240.529 170.971L239.786 164.834L239.141 157.695C239.127 155.089 239.259 149.709 239.891 149.043C240.13 147.865 240.744 145.239 241.281 144.16L243.405 141.067L245.505 137.871L248.169 134.764L252.271 129.373L254.258 126.638C254.853 126.067 256.074 124.68 256.198 123.695L257.495 120.791L259.595 117.595L265.449 110.826L267.996 107.202C268.696 106.137 269.982 103.793 269.527 102.939L269.127 101.182L267.073 99.8006C266.115 99.7287 264.083 99.6545 263.624 99.9328C263.165 100.211 261.804 100.854 261.18 101.141L258.272 103.651L256.294 105.95C253.957 109.381 249.246 116.078 249.096 115.416C248.464 115.668 247.067 115.964 246.53 115.13C245.8 114.788 244.21 113.918 243.691 113.166C243.29 112.585 243.342 112.55 243.471 112.645C243.516 112.685 243.558 112.721 243.597 112.752C243.555 112.712 243.51 112.673 243.471 112.645C242.995 112.225 242.2 111.393 242.045 110.713L240.799 107.626L239.247 100.802L238.894 96.8594L238.813 89.8101C238.928 88.4064 239.051 85.4065 238.614 84.6359L238.487 82.1639L238.204 78.5312L237.734 76.4635L237.311 74.6026C237.251 74.1812 237.159 73.267 237.268 72.9812L236.44 68.3852C236.377 68.1095 236.196 67.5055 235.975 67.295C235.843 67.035 235.529 66.483 235.326 66.3552C234.983 65.9621 234.138 65.1467 233.502 65.0303C233.298 64.9316 232.824 64.7278 232.557 64.7015C232.291 64.6752 231.206 64.9728 230.697 65.1248C230.444 65.2909 229.949 65.6645 229.987 65.8299C230.034 66.0367 229.541 66.2576 229.325 66.7417C229.188 67.0989 228.925 67.8547 228.963 68.0201C229.01 68.2269 228.587 68.758 228.681 69.1715L228.836 70.3323C228.788 70.5971 228.696 71.1472 228.714 71.2299L228.926 72.1604L229.566 75.9293L229.801 76.9632L230.083 78.2038C230.069 78.4607 230.051 79.0159 230.088 79.1813C230.135 79.3881 229.863 80.1025 230.037 80.3891C229.969 80.7307 229.87 81.471 230.009 81.7003C229.888 82.1264 229.661 83.0407 229.718 83.2888C229.624 83.6727 229.471 84.4976 229.61 84.7269C229.5 85.0418 229.316 85.7289 229.455 85.9582C229.353 86.3076 229.18 87.043 229.3 87.1896L229.503 88.5571L229.531 89.638L229.7 91.3392L229.649 92.547L229.701 93.7313C229.634 94.0728 229.508 94.7972 229.546 94.9626C229.584 95.128 229.274 95.677 229.114 95.9308C229.076 96.0843 228.965 96.4215 228.818 96.5418C228.635 96.6922 228.395 97.0729 228.245 96.8897L227.831 96.9838C227.67 96.9117 227.312 96.7103 227.173 96.481C227.03 96.3322 226.736 95.9933 226.698 95.8279C226.661 95.6625 226.419 95.2389 226.303 95.0478L225.927 93.3936L225.805 91.8992L225.753 90.7149L225.574 89.4508L222.084 74.5867C222.06 74.4833 221.983 74.2399 221.863 74.0933C221.743 73.9467 221.421 72.3091 221.275 71.5087L220.424 69.2013L219.432 66.2737C219.3 66.0137 219.007 65.457 218.886 65.3104C218.766 65.1638 218.473 64.6071 218.341 64.3471C218.151 63.9915 217.696 63.2325 217.392 63.0408C217.103 62.8889 216.465 62.5992 216.217 62.6557C215.978 62.5648 215.435 62.3767 215.168 62.3504L213.514 62.7267C213.201 62.9429 212.584 63.4168 212.622 63.5822C212.669 63.7889 212.269 64.4235 212.316 64.6302C212.363 64.837 212.011 65.6783 212.161 65.8616L212.26 67.2526C212.279 67.9732 212.322 69.4351 212.341 69.5178L215.092 81.6139L215.732 85.3829L216.193 87.8876L216.377 90.1293L217.082 93.2309L217.153 95.9331L217.346 97.7377C217.325 97.9602 217.26 98.4098 217.177 98.4286L216.764 98.5227C216.56 98.424 216.148 98.206 216.129 98.1233C216.106 98.0199 215.448 97.5172 215.504 97.2869L215.292 96.3564L214.93 95.2427L214.394 93.8424L213.929 92.7521L213.416 91.4552C213.3 91.2641 213.059 90.8405 213.021 90.6751C212.984 90.5097 212.774 90.224 212.674 90.1018C212.286 89.3562 211.441 87.8378 211.155 87.7288C211.05 87.4265 210.704 86.7007 210.159 86.2158L209.566 85.0457L208.856 83.3587L208.226 81.5448L207.591 78.7534L206.519 75.9526L205.682 74.1857L204.86 72.9593C204.593 72.585 204.04 71.841 203.957 71.8598C203.854 71.8833 202.411 70.798 202.1 70.8686L200.55 71.2213C200.229 71.4031 199.591 71.7873 199.61 71.87C199.633 71.9734 198.957 72.3448 198.947 72.7819C198.838 73.0968 198.628 73.7679 198.666 73.9333L198.647 74.8075L200.143 81.8612L200.505 82.9749L200.947 83.9618C201.025 84.3064 201.212 85.0323 201.332 85.1789L201.831 85.9354L202.437 87.6459L203.138 89.77L203.533 90.5501L203.904 91.2267L204.219 92.1337L204.859 93.5105L205.07 94.441L205.277 94.394L205.442 95.1177L205.569 95.1975L205.71 95.8179L205.917 95.7708L206.128 96.7013L206.462 96.7341L206.627 97.4578L206.885 98.5951L207.28 99.3751L207.887 101.086L208.827 105.221L207.897 105.433C207.706 105.414 207.342 105.334 207.206 105.155L207.159 105.057L206.548 104.761L205.993 104.235L205.528 103.145L205.133 102.364L204.564 101.298L203.732 100.508L202.924 99.8224L200.644 96.9702L200.122 96.1103L199.657 95.0201L199.05 93.3096L197.879 91.5099L196.408 89.3437C196.004 89.0007 195.046 88.3269 194.448 88.3759L193.527 88.1505L192.183 88.4563L191.497 89.2647L191.088 90.3363L190.83 91.5911L190.938 92.5451L190.896 93.3159L191.319 95.1768L191.747 95.6232L192.029 96.8638L192.796 98.3205L193.562 99.7773L194.836 101.553L196.505 104.11L197.882 105.862L200.801 110.091L201.718 111.731L202.484 113.188L204.356 117.112L205.103 119.443L206.143 122.577L208.988 135.087L209.459 137.155L209.919 137.267L210.295 138.921C210.35 139.163 210.532 139.672 210.817 139.781L211.076 140.919C211.208 141.179 211.542 141.726 211.828 141.835L213.309 143.564L214.818 148.766L214.955 150.801L215.402 152.765L215.614 156.088L216.32 163.974L216.398 177.222L240.175 178.228L240.529 170.971Z" fill="#D3B799"/>
<path d="M165.139 140.553L163.019 177.498H193.65L192.484 162.741L191.318 153.293L190.47 145.649L190.046 142.145L189.834 140.022L188.88 130.149L189.092 122.505L189.834 116.348L190.576 112.844L191 111.464C191 111.209 191.495 110.225 191.742 109.765C191.827 109.511 192.413 108.739 192.696 108.385L193.438 107.43C193.607 107.345 193.932 106.333 194.074 105.837L194.71 104.139L195.558 101.591C195.388 101.421 195.911 99.609 196.194 98.7243L197.253 94.3716L197.889 91.9298L198.207 89.9127L198.843 86.9401L200.751 81.2073C200.497 80.9525 201.352 79.7564 201.811 79.1901L203.401 76.536L205.626 73.6696L209.866 67.4059L211.35 64.6457L212.092 62.4162L212.41 61.2484V59.019L211.668 57.3203C211.583 56.8107 211.067 56.471 210.82 56.3649L209.336 55.9402H208.488C208.17 55.9402 207.534 56.3649 207.322 56.3649C207.153 56.3649 206.545 57.0018 206.262 57.3203L205.097 58.8066C204.531 60.116 203.401 62.8196 203.401 63.1594C203.401 63.4991 202.623 64.5749 202.235 65.0703C202.235 65.3251 201.458 66.3797 201.069 66.8751L195.77 72.608C195.515 72.8628 195.31 72.5726 195.24 72.3956V70.9093L195.346 70.3785V69.3169L204.249 45.9608C204.418 45.7909 204.461 44.8284 204.461 44.3683L204.249 41.0772C204.249 40.0156 203.083 39.5909 203.083 39.3786C203.083 39.2087 202.447 38.8832 202.129 38.7416C202.129 38.4868 201.281 38.2816 200.857 38.2108H200.009C199.755 38.2108 199.055 38.777 198.737 39.0601C198.313 39.1663 197.783 40.5464 197.677 40.5464C197.593 40.5464 197.147 41.4665 196.935 41.9265L190.47 57.0018L189.41 59.5498L188.774 61.6731C188.859 61.8429 188.386 63.0178 188.138 63.584L187.079 65.3888C186.909 65.6436 186.513 65.2826 186.337 65.0703V61.4607L187.185 54.6662L187.926 48.4025L190.47 36.0875V31.4163C190.47 31.2464 189.976 30.6378 189.728 30.3546C189.728 30.0999 189.092 29.6115 188.774 29.3992L185.277 29.6115C184.768 29.8663 183.934 31.0624 183.581 31.6286C183.242 31.7985 182.733 32.9026 182.521 33.4334L180.507 41.7142L179.235 46.7039C178.981 47.0436 178.706 48.3318 178.6 48.9334L178.07 51.4813L177.858 53.3923L177.646 56.1525L177.434 57.8512L177.222 59.3375L177.01 60.6114L176.904 61.7792C176.904 62.034 176.197 62.8763 175.844 63.2655L174.996 63.1594C174.784 63.2655 174.36 62.2039 174.254 62.2039C174.169 62.2039 173.936 61.4254 173.83 61.0361L173.618 59.3375L173.406 57.3203L173.088 33.1149C173.088 32.9451 172.735 32.3364 172.558 32.0533C172.473 31.7985 171.463 31.3101 170.968 31.0978H169.167L167.683 32.3718C167.344 32.5416 166.835 33.7873 166.623 34.3889C166.114 34.8135 165.775 36.8307 165.669 37.7861L164.821 42.6697L164.079 55.834V69.2107L163.761 71.0155C163.846 71.1004 163.373 72.2541 163.125 72.8203C163.125 73.16 161.783 75.8637 161.112 77.173C161.112 77.5977 159.133 79.6148 158.144 80.5703C157.72 80.8251 157.049 81.1719 156.766 81.3134C156.172 81.7381 155.459 81.5611 155.176 81.4196L142.246 66.7689L140.02 65.2826C139.85 65.1128 138.889 64.9995 138.43 64.9642C137.829 64.9995 136.586 65.0491 136.416 64.9642C136.247 64.8792 135.215 65.2826 134.72 65.495C134.897 65.495 135.166 65.5162 134.826 65.6011C134.487 65.6861 133.979 66.4151 133.767 66.7689V68.4676C133.767 68.8073 134.049 69.6 134.191 69.9539L136.84 73.8819L142.246 80.7826C143.058 82.092 144.747 84.7107 145.001 84.7107C145.256 84.7107 146.591 87.1171 147.227 88.3203C147.481 89.0846 148.958 91.4698 149.665 92.5668L153.692 97.5565L156.554 100.954L158.462 103.183C158.886 103.438 161.606 107.678 162.913 109.765C162.701 109.659 162.426 109.553 163.019 109.978C163.613 110.402 164.115 113.198 164.291 114.543C164.885 115.817 165.104 122.364 165.139 125.478V140.553Z" fill="#F1DAA1"/>
<path d="M47.2706 141.38L49.3904 178.233H18.7598L19.9257 163.513L21.0916 154.088L21.9395 146.463L22.3634 142.968L22.5754 140.85L23.5293 131.001L23.3173 123.377L22.5754 117.234L21.8335 113.74L21.4095 112.363C21.4095 112.109 20.9149 111.127 20.6676 110.669C20.5828 110.414 19.9964 109.645 19.7137 109.292L18.9718 108.339C18.8022 108.254 18.4772 107.244 18.3359 106.75L17.7 105.056L16.8521 102.514C17.0216 102.345 16.4988 100.537 16.2161 99.6549L15.1562 95.3129L14.5203 92.8772L14.2024 90.8651L13.5664 87.8999L11.6586 82.1812C11.913 81.9271 11.058 80.7339 10.5988 80.1691L9.00894 77.5216L6.78319 74.6623L2.54367 68.4142L1.05984 65.6607L0.317924 63.4368L-4.57764e-05 62.2719V60.048L0.741875 58.3536C0.82666 57.8453 1.34247 57.5064 1.58978 57.4005L3.07361 56.9769H3.92152C4.23948 56.9769 4.8754 57.4005 5.08738 57.4005C5.25697 57.4005 5.86462 58.0359 6.14726 58.3536L7.31313 59.8362C7.8784 61.1423 9.00894 63.8392 9.00894 64.1781C9.00894 64.517 9.78619 65.5901 10.1748 66.0843C10.1748 66.3385 10.952 67.3904 11.3407 67.8847L16.6401 73.6033C16.8944 73.8575 17.0994 73.568 17.17 73.3915V71.9089L17.064 71.3794V70.3204L8.16103 47.0222C7.99146 46.8528 7.94906 45.8926 7.94906 45.4337L8.16103 42.1508C8.16103 41.0918 9.3269 40.6682 9.3269 40.4564C9.3269 40.2869 9.96283 39.9622 10.2808 39.821C10.2808 39.5668 11.1287 39.3621 11.5527 39.2915H12.4006C12.6549 39.2915 13.3544 39.8563 13.6724 40.1387C14.0964 40.2446 14.6263 41.6213 14.7323 41.6213C14.8171 41.6213 15.2622 42.5391 15.4742 42.998L21.9395 58.0359L22.9994 60.5775L23.6353 62.6955C23.5505 62.865 24.0239 64.0369 24.2712 64.6017L25.3311 66.402C25.5007 66.6562 25.8964 66.2961 26.073 66.0843V62.4837L25.2251 55.7061L24.4832 49.4579L21.9395 37.1735V32.5138C21.9395 32.3444 22.4341 31.7372 22.6814 31.4548C22.6814 31.2007 23.3173 30.7135 23.6353 30.5017L27.1329 30.7135C27.6416 30.9677 28.4754 32.1608 28.8287 32.7256C29.1679 32.8951 29.6766 33.9964 29.8886 34.5259L31.9024 42.7862L33.1742 47.7635C33.4286 48.1024 33.7041 49.3873 33.8101 49.9874L34.3401 52.5291L34.5521 54.4353L34.764 57.1887L34.976 58.8831L35.188 60.3657L35.4 61.6365L35.5059 62.8014C35.5059 63.0556 36.2125 63.8957 36.5658 64.284L37.4137 64.1781C37.6257 64.284 38.0497 63.225 38.1556 63.225C38.2404 63.225 38.4736 62.4484 38.5796 62.0601L38.7916 60.3657L39.0035 58.3536L39.3215 34.2082C39.3215 34.0388 39.6748 33.4316 39.8515 33.1492C39.9362 32.8951 40.9467 32.4079 41.4413 32.1961H43.2431L44.7269 33.4669C45.0661 33.6364 45.5748 34.8789 45.7868 35.479C46.2955 35.9026 46.6347 37.9148 46.7407 38.8679L47.5886 43.7393L48.3305 56.871V70.2145L48.6485 72.0148C48.5637 72.0995 49.0371 73.2503 49.2844 73.8151C49.2844 74.154 50.6269 76.8509 51.2982 78.157C51.2982 78.5806 53.2766 80.5927 54.2658 81.5458C54.6898 81.8 55.361 82.1459 55.6437 82.2871C56.2372 82.7108 56.9509 82.5342 57.2335 82.393L70.164 67.7788L72.3898 66.2961C72.5594 66.1267 73.5203 66.0137 73.9796 65.9784C74.5802 66.0137 75.8238 66.0632 75.9934 65.9784C76.1629 65.8937 77.1946 66.2961 77.6892 66.5079C77.5125 66.5079 77.244 66.5291 77.5832 66.6138C77.9223 66.6986 78.4311 67.4258 78.6431 67.7788V69.4732C78.6431 69.812 78.3604 70.6028 78.2191 70.9558L75.5694 74.8741L70.164 81.7576C69.3514 83.0638 67.6627 85.676 67.4083 85.676C67.154 85.676 65.8185 88.0764 65.1826 89.2766C64.9282 90.0391 63.4515 92.4183 62.7449 93.5126L58.7173 98.49L55.8556 101.879L53.9479 104.103C53.5239 104.357 50.8035 108.586 49.4964 110.669C49.7083 110.563 49.9839 110.457 49.3904 110.88C48.7968 111.304 48.2952 114.093 48.1185 115.434C47.525 116.705 47.3059 123.235 47.2706 126.342V141.38Z" fill="#AECBB3"/>
</svg>
