<svg width="80" height="80" viewBox="0 0 80 80" fill="none" xmlns="http://www.w3.org/2000/svg">
<circle cx="40" cy="40" r="40" fill="#FFF5E1"/>
<g clip-path="url(#clip0_192_5660)">
<path d="M40.4784 41.0003L35.765 39.5709L35.2522 38.5454C35.0924 38.2257 34.727 38.0778 34.3965 38.1802V38.0018C36.3483 36.5917 37.673 34.3646 37.8608 31.8252C38.7755 31.5696 39.4953 30.8258 39.646 29.8986C39.7411 29.3138 39.6169 28.738 39.3326 28.2594C40.2425 27.7831 40.8653 26.83 40.8653 25.7338C40.8653 24.7396 40.3384 23.8337 39.5192 23.3234C39.5644 23.1375 39.5875 22.9461 39.5875 22.7524C39.5875 21.416 38.5004 20.3288 37.164 20.3288C36.8434 20.3288 36.5374 20.392 36.2572 20.5055C34.8699 19.2453 33.0937 18.5552 31.2011 18.5552H27.7938C25.9095 18.5552 24.1259 19.2464 22.7375 20.5054C22.4573 20.3919 22.1514 20.3288 21.8309 20.3288C20.4945 20.3288 19.4073 21.416 19.4073 22.7524C19.4073 22.9462 19.4305 23.1376 19.4757 23.3234C18.6564 23.8337 18.1296 24.7396 18.1296 25.7338C18.1296 26.8294 18.7516 27.7819 19.6605 28.2586C19.3769 28.7355 19.2534 29.3111 19.3489 29.8986C19.4996 30.8258 20.2193 31.5696 21.134 31.8252C21.3215 34.3611 22.6429 36.5855 24.5904 37.9958V38.1775C24.2619 38.08 23.9011 38.2283 23.7426 38.5453L23.2302 39.5699L18.3342 41.0388C16.9379 41.4577 15.9999 42.7185 15.9999 44.1762V61.8671C15.9999 62.2647 16.3222 62.587 16.7197 62.587C17.1173 62.587 17.4396 62.2647 17.4396 61.8671V44.1762C17.4396 44.1234 17.442 44.0712 17.4463 44.0194L20.3238 46.8968C20.8314 47.4045 21.1109 48.0793 21.1109 48.7972V61.867C21.1109 62.2646 21.4332 62.5869 21.8308 62.5869C22.2283 62.5869 22.5506 62.2646 22.5506 61.867V48.7972C22.5506 47.6947 22.1213 46.6583 21.3418 45.8787L18.1717 42.7087C18.3414 42.582 18.5346 42.4818 18.7478 42.4179L21.9912 41.445C22.2451 42.1588 24.1312 47.0611 29.0981 50.3723C29.219 50.453 29.3582 50.4933 29.4973 50.4933C29.6365 50.4933 29.7757 50.453 29.8966 50.3723C35.0298 46.9502 36.861 41.8915 37.0117 41.4535L40.0607 42.3781C40.1304 42.3992 40.2007 42.4093 40.2699 42.4093C40.5786 42.4093 40.8642 42.209 40.9584 41.8981C41.0738 41.5176 40.8589 41.1157 40.4784 41.0003ZM34.6104 40.4812L32.1777 43.5221C32.1443 43.5639 32.1042 43.5724 32.0725 43.5716C32.0431 43.5711 32.0011 43.5616 31.9691 43.5188L30.5909 41.6812L34.2865 39.8333L34.6104 40.4812ZM29.4973 40.6182L26.03 38.8845V38.8363C27.0873 39.3183 28.2615 39.5873 29.4973 39.5873C30.7301 39.5873 31.9014 39.3194 32.9567 38.8396V38.8885L29.4973 40.6182ZM37.1639 21.7687C37.7064 21.7687 38.1477 22.21 38.1477 22.7525C38.1477 22.9446 38.0911 23.1317 37.9841 23.2934C37.8569 23.4855 37.8293 23.7268 37.91 23.9425C37.9906 24.1583 38.1695 24.3224 38.3913 24.3843C39.0002 24.5538 39.4255 25.1087 39.4255 25.7339C39.4255 26.5112 38.7931 27.1436 38.0157 27.1436C37.2384 27.1436 36.606 26.5112 36.606 25.7339C36.606 25.3855 36.7399 25.0482 36.983 24.784C37.1388 24.6147 37.2043 24.3811 37.1592 24.1554C37.1141 23.9298 36.9638 23.7393 36.7549 23.6429C36.4057 23.4817 36.1801 23.1323 36.1801 22.7525C36.1801 22.21 36.6214 21.7687 37.1639 21.7687ZM19.5692 25.7339C19.5693 25.1088 19.9945 24.5539 20.6034 24.3844C20.8253 24.3225 21.0042 24.1584 21.0847 23.9426C21.1652 23.7269 21.1377 23.4856 21.0106 23.2935C20.9036 23.1318 20.847 22.9447 20.847 22.7526C20.847 22.2101 21.2883 21.7687 21.8308 21.7687C22.3733 21.7687 22.8146 22.21 22.8146 22.7525C22.8146 23.1323 22.5889 23.4818 22.2398 23.6429C22.0308 23.7393 21.8805 23.9298 21.8355 24.1554C21.7904 24.3811 21.8558 24.6147 22.0117 24.784C22.2548 25.0482 22.3887 25.3855 22.3887 25.7339C22.3887 26.5112 21.7563 27.1436 20.9789 27.1436C20.2016 27.1436 19.5692 26.5112 19.5692 25.7339ZM22.5506 31.2009C22.5506 30.8033 22.2283 30.481 21.8308 30.481C21.3013 30.481 20.8451 30.1314 20.7698 29.6677C20.6839 29.1394 21.0072 28.6534 21.5216 28.5375C21.5495 28.5313 21.5762 28.523 21.6025 28.5138C22.8747 28.2285 23.8284 27.0909 23.8284 25.734C23.8284 25.2937 23.7251 24.8638 23.5304 24.4742C23.9846 24.0261 24.2543 23.4079 24.2543 22.7525C24.2543 22.2665 24.11 21.8138 23.8627 21.434C24.9614 20.5039 26.3404 19.995 27.7937 19.995H31.201C32.6607 19.995 34.0356 20.5014 35.1331 21.4322C34.8851 21.8124 34.7404 22.2657 34.7404 22.7525C34.7404 23.4079 35.0101 24.0261 35.4643 24.4742C35.2695 24.8638 35.1663 25.2937 35.1663 25.734C35.1663 27.1182 36.1588 28.2746 37.4694 28.5303C37.4915 28.5393 37.5141 28.5475 37.5375 28.5544C37.9491 28.6773 38.3174 29.0992 38.225 29.6678C38.1496 30.1315 37.6934 30.4811 37.164 30.4811C36.7664 30.4811 36.4441 30.8034 36.4441 31.201C36.4441 35.0314 33.3279 38.1477 29.4974 38.1477C25.667 38.1477 22.5506 35.0313 22.5506 31.2009ZM24.4802 40.2893L24.7082 39.8333L28.4039 41.6812L27.0257 43.5188C26.9937 43.5616 26.9517 43.5711 26.9222 43.5716C26.8908 43.5741 26.8504 43.5639 26.817 43.5221L24.4036 40.5053C24.4403 40.4381 24.4662 40.3653 24.4802 40.2893ZM29.4973 48.8996C26.2747 46.6092 24.5402 43.6116 23.803 42.0592L25.6928 44.4215C25.9935 44.7973 26.4394 45.0114 26.9194 45.0114C26.9278 45.0114 26.9363 45.0113 26.9447 45.0112C27.4343 45.0035 27.8836 44.7744 28.1774 44.3827L28.7774 43.5827V46.5341C28.7774 46.9317 29.0997 47.254 29.4972 47.254C29.8948 47.254 30.2171 46.9317 30.2171 46.5341V43.5827L30.8171 44.3827C31.1109 44.7745 31.5602 45.0035 32.0498 45.0112C32.0582 45.0113 32.0667 45.0114 32.0751 45.0114C32.5551 45.0114 33.001 44.7973 33.3017 44.4215L35.1972 42.0519C34.466 43.6 32.7367 46.5985 29.4973 48.8996Z" fill="black" fill-opacity="0.8"/>
<path d="M31.6547 33.1975C31.3459 32.947 30.8926 32.9943 30.6422 33.3031C30.336 33.6806 29.9295 33.8885 29.4976 33.8885C29.0657 33.8885 28.6592 33.6806 28.353 33.3031C28.1027 32.9943 27.6493 32.9471 27.3405 33.1975C27.0317 33.4479 26.9845 33.9012 27.2349 34.21C27.8113 34.9206 28.636 35.3282 29.4977 35.3282C30.3593 35.3282 31.1838 34.9205 31.7603 34.21C32.0107 33.9012 31.9634 33.4479 31.6547 33.1975Z" fill="black" fill-opacity="0.8"/>
<path d="M26.09 28.7773C25.6924 28.7773 25.3701 29.0997 25.3701 29.4972V30.349C25.3701 30.7466 25.6924 31.0689 26.09 31.0689C26.4875 31.0689 26.8098 30.7466 26.8098 30.349V29.4972C26.8098 29.0997 26.4875 28.7773 26.09 28.7773Z" fill="black" fill-opacity="0.8"/>
<path d="M32.9047 28.7773C32.5071 28.7773 32.1848 29.0997 32.1848 29.4972V30.349C32.1848 30.7466 32.5071 31.0689 32.9047 31.0689C33.3022 31.0689 33.6245 30.7466 33.6245 30.349V29.4972C33.6245 29.0997 33.3022 28.7773 32.9047 28.7773Z" fill="black" fill-opacity="0.8"/>
<path d="M40.2285 44.3217C39.9473 44.0406 39.4915 44.0406 39.2105 44.3217L37.653 45.8792C36.8734 46.6588 36.4441 47.6952 36.4441 48.7976V61.8675C36.4441 62.265 36.7664 62.5873 37.164 62.5873C37.5615 62.5873 37.8838 62.265 37.8838 61.8675V48.7976C37.8838 48.0798 38.1634 47.4048 38.671 46.8973L40.2285 45.3398C40.5096 45.0586 40.5096 44.6028 40.2285 44.3217Z" fill="black" fill-opacity="0.8"/>
<path d="M54.6543 39.1604C54.3455 38.9098 53.8921 38.9572 53.6418 39.2659C53.3356 39.6435 52.9291 39.8514 52.4972 39.8514C52.0653 39.8514 51.6588 39.6435 51.3526 39.2659C51.1023 38.9572 50.6489 38.9099 50.3401 39.1604C50.0313 39.4108 49.9841 39.8641 50.2345 40.1729C50.8108 40.8834 51.6355 41.2911 52.4971 41.2911C53.3587 41.2911 54.1834 40.8834 54.7599 40.1729C55.0103 39.8641 54.9631 39.4108 54.6543 39.1604Z" fill="black" fill-opacity="0.8"/>
<path d="M44.8305 51.7773C44.4329 51.7773 44.1106 52.0997 44.1106 52.4972V61.8674C44.1106 62.265 44.4329 62.5873 44.8305 62.5873C45.228 62.5873 45.5503 62.265 45.5503 61.8674V52.4972C45.5503 52.0997 45.228 51.7773 44.8305 51.7773Z" fill="black" fill-opacity="0.8"/>
<path d="M60.1636 51.7773C59.766 51.7773 59.4437 52.0997 59.4437 52.4972V61.8674C59.4437 62.265 59.766 62.5873 60.1636 62.5873C60.5611 62.5873 60.8835 62.265 60.8835 61.8674V52.4972C60.8835 52.0997 60.5611 51.7773 60.1636 51.7773Z" fill="black" fill-opacity="0.8"/>
<path d="M62.7362 46.8579C63.1859 46.2876 63.439 45.5767 63.439 44.8306C63.439 43.6175 62.7737 42.5318 61.7325 41.9671C61.7345 41.9277 61.7353 41.8885 61.7353 41.8492C61.7353 40.9135 61.2823 40.0569 60.5428 39.5298C60.5917 39.3638 60.6372 39.1965 60.6756 39.0272C60.7689 38.6161 60.8284 38.1817 60.8563 37.7057C61.9894 36.0338 62.5872 34.0835 62.5872 32.053C62.5872 26.4893 58.0608 21.9629 52.4971 21.9629C46.9334 21.9629 42.407 26.4893 42.407 32.053C42.407 34.0837 43.0048 36.034 44.1379 37.7058C44.1658 38.1821 44.2253 38.6164 44.3185 39.0271C44.3569 39.1964 44.4024 39.3636 44.4514 39.5297C43.7118 40.0568 43.2588 40.9134 43.2588 41.8492C43.2588 41.8885 43.2598 41.9277 43.2616 41.9671C42.2204 42.5318 41.5551 43.6176 41.5551 44.8306C41.5551 45.5767 41.8083 46.2876 42.2579 46.8579C40.7744 47.7481 39.8514 49.347 39.8514 51.1215V61.8678C39.8514 62.2653 40.1737 62.5876 40.5713 62.5876C40.9689 62.5876 41.2912 62.2653 41.2912 61.8678V51.1215C41.2912 49.6659 42.1645 48.376 43.516 47.8353L43.6538 47.7802C45.7829 50.6578 49.063 52.3652 52.4972 52.3652C55.9782 52.3652 59.1864 50.6971 61.3399 47.78L61.4782 47.8353C62.8298 48.376 63.7031 49.6659 63.7031 51.1215V61.8674C63.7031 62.265 64.0254 62.5873 64.4229 62.5873C64.8205 62.5873 65.1428 62.265 65.1428 61.8674V51.1215C65.1427 49.347 64.2197 47.7481 62.7362 46.8579ZM43.8467 32.053C43.8467 27.2832 47.7272 23.4026 52.4971 23.4026C57.2669 23.4026 61.1474 27.2832 61.1474 32.053C61.1474 33.2663 60.8982 34.4458 60.4186 35.5345C59.3815 33.3026 57.0762 32.6772 54.8336 32.0704C53.0205 31.5798 51.1458 31.0724 49.5393 29.7872C49.3695 29.6514 49.1473 29.5995 48.9352 29.6462C48.7229 29.6929 48.543 29.8329 48.4458 30.0274C48.4383 30.0423 47.6841 31.525 46.2122 32.261C45.8566 32.4387 45.7124 32.8711 45.8902 33.2268C46.068 33.5824 46.5003 33.7266 46.856 33.5487C48.0277 32.9628 48.835 32.0326 49.2901 31.3885C50.9669 32.5155 52.8094 33.0142 54.4575 33.4601C54.9984 33.6065 55.4963 33.7453 55.9514 33.8899C55.9356 33.8896 55.9201 33.8887 55.9043 33.8887C55.0271 33.8887 54.2572 34.3572 53.8318 35.0572C53.4338 34.8524 52.9771 34.7406 52.4971 34.7406C52.017 34.7406 51.5601 34.8524 51.1622 35.0572C50.7368 34.3573 49.9669 33.8887 49.0897 33.8887C47.7533 33.8887 46.6662 34.9759 46.6662 36.3123C46.6662 37.6486 47.7533 38.7358 49.0897 38.7358C50.3352 38.7358 51.3638 37.7914 51.498 36.581C51.7329 36.3311 52.1001 36.1803 52.4971 36.1803C52.8939 36.1803 53.2612 36.3311 53.496 36.581C53.6302 37.7914 54.6589 38.7358 55.9043 38.7358C57.2407 38.7358 58.3279 37.6486 58.3279 36.3123C58.3279 35.6122 58.0292 34.9808 57.5529 34.5381C58.5824 35.0991 59.2156 35.8823 59.4503 37.2656C59.4382 37.3139 59.4305 37.364 59.4286 37.4157C59.4114 37.8957 59.36 38.3186 59.2715 38.7087C58.9288 40.2188 58.0725 41.59 56.8603 42.5698C55.613 43.578 54.1043 44.1109 52.497 44.1109C50.8897 44.1109 49.3808 43.578 48.1336 42.5698C46.9215 41.5901 46.0652 40.2188 45.7225 38.7087C45.6342 38.3194 45.5827 37.8969 45.5654 37.4169C45.5585 37.2263 45.478 37.0552 45.3517 36.9306C44.3666 35.4908 43.8467 33.8071 43.8467 32.053ZM56.8882 36.3122C56.8882 36.8547 56.4469 37.296 55.9044 37.296C55.3619 37.296 54.9206 36.8547 54.9206 36.3122C54.9206 35.7697 55.3619 35.3284 55.9044 35.3284C56.4469 35.3284 56.8882 35.7697 56.8882 36.3122ZM50.0735 36.3122C50.0735 36.8547 49.6322 37.296 49.0897 37.296C48.5472 37.296 48.1059 36.8547 48.1059 36.3122C48.1059 35.7697 48.5472 35.3284 49.0897 35.3284C49.6322 35.3284 50.0735 35.7697 50.0735 36.3122ZM56.6356 45.896C55.5164 46.935 54.0523 47.518 52.497 47.518C50.9433 47.518 49.4784 46.9345 48.3588 45.8958C48.8084 45.699 49.1807 45.3761 49.4362 44.9696C50.4058 45.3494 51.4449 45.5505 52.4971 45.5505C53.5492 45.5505 54.5883 45.3494 55.5579 44.9696C55.8135 45.3763 56.186 45.6992 56.6356 45.896ZM43.6465 46.2325C43.2356 45.8852 42.9949 45.3746 42.9949 44.8305C42.9949 44.0345 43.511 43.3359 44.2793 43.092C44.6471 42.9753 44.8573 42.5893 44.7561 42.217C44.7168 42.0726 44.6985 41.9556 44.6985 41.8492C44.6985 41.5154 44.8156 41.2025 45.0178 40.9558C45.5513 42.0048 46.3038 42.9419 47.2286 43.6894C47.5148 43.9207 47.8156 44.1316 48.1282 44.3219C48.027 44.4384 47.8992 44.5314 47.7514 44.5905L43.6465 46.2325ZM52.4971 50.9255C49.5955 50.9255 46.9142 49.5851 45.042 47.225L46.9098 46.4779C48.3386 48.0593 50.3502 48.9578 52.4972 48.9578C54.6461 48.9578 56.6556 48.0596 58.0844 46.4778L59.9528 47.2252C58.0798 49.5846 55.3939 50.9255 52.4971 50.9255ZM61.3477 46.2326L57.2426 44.5905C57.0948 44.5314 56.9671 44.4384 56.866 44.3219C57.1784 44.1315 57.4793 43.9207 57.7655 43.6894C58.6903 42.9419 59.4428 42.0047 59.9764 40.9558C60.1785 41.2025 60.2956 41.5154 60.2956 41.8492C60.2956 41.9556 60.2774 42.0726 60.238 42.217C60.1367 42.5893 60.347 42.9753 60.7148 43.092C61.4831 43.3359 61.9993 44.0345 61.9993 44.8306C61.9993 45.3747 61.7586 45.8853 61.3477 46.2326Z" fill="black" fill-opacity="0.8"/>
</g>
<defs>
<clipPath id="clip0_192_5660">
<rect width="49.1429" height="49.1429" fill="white" transform="translate(15.9999 16)"/>
</clipPath>
</defs>
</svg>
