<svg width="80" height="80" viewBox="0 0 80 80" fill="none" xmlns="http://www.w3.org/2000/svg">
<circle cx="40" cy="40" r="40" fill="#FFF5E1"/>
<g clip-path="url(#clip0_192_5661)">
<path d="M59.2883 54.7769C59.036 54.7769 58.7882 54.8796 58.6097 55.0581C58.4312 55.2365 58.3285 55.4843 58.3285 55.7367C58.3285 55.989 58.4312 56.2368 58.6097 56.4153C58.7882 56.5938 59.036 56.6965 59.2883 56.6965C59.5406 56.6965 59.7885 56.5938 59.9669 56.4153C60.1454 56.2368 60.2481 55.989 60.2481 55.7367C60.2481 55.4843 60.1454 55.2365 59.9669 55.0581C59.7885 54.8796 59.5406 54.7769 59.2883 54.7769Z" fill="black" fill-opacity="0.8"/>
<path d="M59.2883 58.6162C57.489 58.6162 56.0249 60.0803 56.0249 61.8796C56.0249 63.6789 57.489 65.143 59.2883 65.143C61.088 65.143 62.5517 63.6789 62.5517 61.8796C62.5517 60.0803 61.0876 58.6162 59.2883 58.6162ZM59.2883 63.2234C58.5474 63.2234 57.9445 62.6205 57.9445 61.8796C57.9445 61.1387 58.5474 60.5359 59.2883 60.5359C60.0292 60.5359 60.632 61.1387 60.632 61.8796C60.632 62.6205 60.0292 63.2234 59.2883 63.2234Z" fill="black" fill-opacity="0.8"/>
<path d="M58.3284 44.6015V51.8972C58.3284 52.4274 58.758 52.8571 59.2882 52.8571C59.8183 52.8571 60.248 52.4274 60.248 51.8972V38.8921C60.248 37.0485 58.7483 35.5488 56.9047 35.5488H47.4517C47.6114 35.154 47.6879 34.7262 47.6725 34.2857C47.6136 32.6259 46.2429 31.3256 44.5523 31.3256H42.2705C41.9503 31.3256 41.6271 31.3099 41.3107 31.2788C38.9063 31.044 36.9056 29.2365 36.3324 26.7815C36.2248 26.3218 36.0508 25.8914 35.8228 25.4988C37.9318 24.9859 39.5028 23.0824 39.5028 20.8178C39.5028 18.1615 37.3413 16 34.6849 16C32.0282 16 29.8671 18.1615 29.8671 20.8178C29.8671 21.7499 30.1337 22.6205 30.5941 23.3584C29.3362 23.7059 28.2455 24.5758 27.6524 25.7834C26.087 28.9699 25.2599 32.5306 25.2599 36.0808V39.6116C25.2599 41.3404 25.624 43.0392 26.3053 44.6L25.1955 50.6709L20.6397 56.5351C20.6389 56.5359 20.6382 56.537 20.6378 56.5381C20.6191 56.5617 20.6022 56.5869 20.5861 56.6124C20.5846 56.6146 20.5827 56.6169 20.5812 56.6191C20.5812 56.6191 20.5808 56.6195 20.5808 56.6199L18.8029 59.5004C18.6046 59.8218 18.5431 60.2012 18.6301 60.569C18.7171 60.9364 18.942 61.248 19.2633 61.4463L25.0207 64.9999C25.1737 65.094 25.3484 65.1428 25.525 65.1428C25.5989 65.1428 25.6731 65.1341 25.7459 65.1169C25.9937 65.0584 26.2078 64.9039 26.3416 64.6872C27.015 63.5962 27.2231 62.3087 26.928 61.0613C26.8422 60.6995 26.7162 60.3542 26.5553 60.0291L28.6276 57.6955L28.3055 60.2222C28.3051 60.2259 28.3051 60.2293 28.3048 60.2327C28.3025 60.2518 28.3018 60.2709 28.3006 60.2904C28.2999 60.305 28.2988 60.3197 28.2984 60.3343C28.2984 60.3373 28.298 60.3407 28.298 60.3437V64.1829C28.298 64.7131 28.7277 65.1428 29.2578 65.1428H36.4775C37.0076 65.1428 37.4373 64.7131 37.4373 64.1829C37.4373 62.6214 36.687 61.2319 35.5285 60.3549L37.071 50.9865C37.3769 49.1291 37.2374 47.1986 36.6683 45.4038L34.7835 39.4631V35.5919C37.0699 36.8236 39.6265 37.4685 42.2709 37.4685H43.8954C43.6911 37.9004 43.5764 38.3829 43.5764 38.8921V64.1514C43.5764 64.6812 44.006 65.1113 44.5362 65.1113C45.0663 65.1113 45.496 64.6812 45.496 64.1514V44.6015H58.3284ZM58.3284 38.8921V42.6819H45.4956V38.8921C45.4956 38.107 46.1345 37.4685 46.9193 37.4685H56.9047C57.6898 37.4685 58.3284 38.107 58.3284 38.8921V38.8921ZM34.6849 17.9196C36.2829 17.9196 37.5831 19.2199 37.5831 20.8178C37.5831 22.4158 36.2829 23.716 34.6849 23.716C33.0866 23.716 31.7867 22.4158 31.7867 20.8178C31.7867 19.2199 33.0866 17.9196 34.6849 17.9196ZM25.0732 62.7766L20.7019 60.0782L21.7101 58.445L23.77 59.7164C24.4242 60.1202 24.8824 60.755 25.0597 61.5033C25.1602 61.9285 25.1632 62.3615 25.0732 62.7766V62.7766ZM25.3912 58.4491L22.8128 56.8666L26.8553 51.6629C26.9501 51.5411 27.0139 51.3986 27.0416 51.2467L27.7918 47.1424C28.2151 47.7029 28.6868 48.2304 29.205 48.716L29.7115 49.191L29.0576 54.32L25.3912 58.4491ZM30.2173 63.2231V61.3035H32.6378C33.8893 61.3035 34.9567 62.1058 35.353 63.2231H30.2173ZM35.1765 50.6746L33.7427 59.3838H30.3474L30.9236 54.8637C30.924 54.8633 30.924 54.8626 30.924 54.8618L31.678 48.9473C31.717 48.6417 31.6068 48.3362 31.3822 48.1255L30.5176 47.3152C28.6306 45.5471 27.4604 43.1299 27.2246 40.5714H33.1207L34.8379 45.9846C35.3163 47.4922 35.4333 49.1141 35.1765 50.6746ZM34.3839 33.099C34.3801 33.0964 34.376 33.0945 34.3726 33.0923C33.6865 32.6165 33.036 32.0732 32.4395 31.4763C32.0649 31.1018 31.4572 31.1018 31.0822 31.4763C30.7073 31.8513 30.7073 32.459 31.0822 32.834C31.6382 33.39 32.2363 33.9048 32.8639 34.3708C32.8639 34.382 32.8635 34.3933 32.8635 34.4042V38.6517H27.1796V36.0808C27.1796 32.8223 27.9388 29.5544 29.3752 26.6296C29.8686 25.6252 30.9491 25.0193 32.0627 25.1217C33.2302 25.2289 34.1949 26.0714 34.463 27.2183C35.2237 30.4749 37.9003 32.8745 41.124 33.1894C41.5023 33.2265 41.8881 33.2453 42.2705 33.2453H44.5523C45.1934 33.2453 45.7322 33.7428 45.754 34.3539C45.7652 34.6704 45.6509 34.9699 45.4319 35.1968C45.2129 35.4236 44.9186 35.5488 44.6029 35.5488H42.2705C39.427 35.5488 36.6998 34.7015 34.3839 33.099V33.099Z" fill="black" fill-opacity="0.8"/>
</g>
<defs>
<clipPath id="clip0_192_5661">
<rect width="49.1429" height="49.1429" fill="white" transform="translate(15.9999 16)"/>
</clipPath>
</defs>
</svg>
