<svg width="22" height="17" viewBox="0 0 22 17" fill="none" xmlns="http://www.w3.org/2000/svg">
<path d="M12.793 5.37109C12.793 8.88672 13.8997 11.9629 16.1133 14.5996C17.4154 16.2598 18.5221 16.9759 19.4336 16.748C20.2148 16.4876 20.6055 16.0645 20.6055 15.4785C20.6055 14.8275 20.3613 14.2253 19.873 13.6719C19.3848 13.1185 18.9941 12.6465 18.7012 12.2559C18.4082 11.8652 18.1641 11.4421 17.9688 10.9863C17.513 10.0423 17.2852 8.90299 17.2852 7.56836C18.0339 7.86133 18.7826 7.79622 19.5312 7.37305C20.9635 6.52669 21.6797 5.48503 21.6797 4.24805C21.6797 2.97852 21.3053 1.95312 20.5566 1.17188C19.8079 0.390625 18.7663 0 17.4316 0C16.097 0 14.9902 0.520833 14.1113 1.5625C13.2324 2.57161 12.793 3.84115 12.793 5.37109ZM0 5.37109C0 8.85417 1.12305 11.9303 3.36914 14.5996C4.67122 16.2598 5.79427 16.9759 6.73828 16.748C7.48698 16.4551 7.86133 16.0319 7.86133 15.4785C7.86133 14.86 7.61719 14.2741 7.12891 13.7207C6.64062 13.1348 6.25 12.6465 5.95703 12.2559C5.66406 11.8652 5.40365 11.4421 5.17578 10.9863C4.7526 10.0423 4.54102 8.90299 4.54102 7.56836C5.28971 7.86133 6.05469 7.79622 6.83594 7.37305C8.26823 6.52669 8.98438 5.48503 8.98438 4.24805C8.98438 2.97852 8.61003 1.95312 7.86133 1.17188C7.08008 0.390625 6.20117 0 5.22461 0C4.21549 0 3.43424 0.146484 2.88086 0.439453C2.29492 0.69987 1.79036 1.07422 1.36719 1.5625C0.455729 2.60417 0 3.8737 0 5.37109Z" fill="#F6B840"/>
</svg>
