<svg width="28" height="29" viewBox="0 0 28 29" fill="none" xmlns="http://www.w3.org/2000/svg">
<g clip-path="url(#clip0_153_3132)">
<path d="M12.5322 19.5332C13.9297 19.5332 15.2393 19.1113 16.3291 18.3906L20.1787 22.249C20.4336 22.4951 20.7588 22.6182 21.1104 22.6182C21.8398 22.6182 22.376 22.0469 22.376 21.3262C22.376 20.9922 22.2617 20.667 22.0156 20.4209L18.1924 16.5801C18.9834 15.4551 19.4492 14.0928 19.4492 12.6162C19.4492 8.81055 16.3379 5.69922 12.5322 5.69922C8.73535 5.69922 5.61523 8.81055 5.61523 12.6162C5.61523 16.4219 8.72656 19.5332 12.5322 19.5332ZM12.5322 17.6875C9.74609 17.6875 7.46094 15.4023 7.46094 12.6162C7.46094 9.83008 9.74609 7.54492 12.5322 7.54492C15.3184 7.54492 17.6035 9.83008 17.6035 12.6162C17.6035 15.4023 15.3184 17.6875 12.5322 17.6875Z" fill="#3C3C43" fill-opacity="0.6"/>
</g>
<defs>
<clipPath id="clip0_153_3132">
<rect width="28" height="28" fill="white" transform="translate(0 0.5)"/>
</clipPath>
</defs>
</svg>
