<svg width="22" height="17" viewBox="0 0 22 17" fill="none" xmlns="http://www.w3.org/2000/svg">
<path d="M8.88672 5.37109C8.88672 8.88672 7.77995 11.9629 5.56641 14.5996C4.26432 16.2598 3.15755 16.9759 2.24609 16.748C1.46484 16.4876 1.07422 16.0645 1.07422 15.4785C1.07422 14.8275 1.31836 14.2253 1.80664 13.6719C2.29492 13.1185 2.68555 12.6465 2.97852 12.2559C3.27148 11.8652 3.51562 11.4421 3.71094 10.9863C4.16667 10.0423 4.39453 8.90299 4.39453 7.56836C3.64583 7.86133 2.89714 7.79622 2.14844 7.37305C0.716146 6.52669 0 5.48503 0 4.24805C0 2.97852 0.374349 1.95312 1.12305 1.17188C1.87174 0.390625 2.91341 0 4.24805 0C5.58268 0 6.68945 0.520833 7.56836 1.5625C8.44727 2.57161 8.88672 3.84115 8.88672 5.37109ZM21.6797 5.37109C21.6797 8.85417 20.5566 11.9303 18.3105 14.5996C17.0085 16.2598 15.8854 16.9759 14.9414 16.748C14.1927 16.4551 13.8184 16.0319 13.8184 15.4785C13.8184 14.86 14.0625 14.2741 14.5508 13.7207C15.0391 13.1348 15.4297 12.6465 15.7227 12.2559C16.0156 11.8652 16.276 11.4421 16.5039 10.9863C16.9271 10.0423 17.1387 8.90299 17.1387 7.56836C16.39 7.86133 15.625 7.79622 14.8438 7.37305C13.4115 6.52669 12.6953 5.48503 12.6953 4.24805C12.6953 2.97852 13.0697 1.95312 13.8184 1.17188C14.5996 0.390625 15.4785 0 16.4551 0C17.4642 0 18.2454 0.146484 18.7988 0.439453C19.3848 0.69987 19.8893 1.07422 20.3125 1.5625C21.224 2.60417 21.6797 3.8737 21.6797 5.37109Z" fill="#F6B840"/>
</svg>
