<svg width="50" height="50" viewBox="0 0 50 50" fill="none" xmlns="http://www.w3.org/2000/svg">
<path d="M25 0C38.8075 0 50 11.1925 50 25C50 38.8075 38.8075 50 25 50C11.1925 50 0 38.8075 0 25C0 11.1925 11.1925 0 25 0ZM25 10C24.337 10 23.7011 10.2634 23.2322 10.7322C22.7634 11.2011 22.5 11.837 22.5 12.5V25C22.5001 25.663 22.7636 26.2988 23.2325 26.7675L30.7325 34.2675C31.204 34.7229 31.8355 34.9749 32.491 34.9692C33.1465 34.9635 33.7735 34.7006 34.237 34.237C34.7006 33.7735 34.9635 33.1465 34.9692 32.491C34.9749 31.8355 34.7229 31.204 34.2675 30.7325L27.5 23.965V12.5C27.5 11.837 27.2366 11.2011 26.7678 10.7322C26.2989 10.2634 25.663 10 25 10Z" fill="black"/>
</svg>
