<svg width="80" height="80" viewBox="0 0 80 80" fill="none" xmlns="http://www.w3.org/2000/svg">
<circle cx="40" cy="40" r="40" fill="#FFF5E1"/>
<g clip-path="url(#clip0_192_5659)">
<path d="M55.3046 53.8095C55.2618 51.2196 54.2856 49.3033 52.3205 47.9511C50.6875 46.8276 48.6356 46.2758 46.6513 45.7422C46.097 45.5931 45.5642 45.4498 45.0516 45.2975V43.9527C46.6679 43.0828 48.0049 41.7587 48.8888 40.1514C50.4241 39.1573 51.7017 37.8822 52.593 36.4491C53.5745 34.871 54.0933 33.0907 54.0933 31.3006C54.0933 28.2661 52.6613 25.4251 50.0612 23.3009C48.8935 22.347 47.5515 21.5905 46.0957 21.0504C45.8447 18.2239 43.4636 16 40.5714 16C37.6775 16 35.2951 18.2245 35.0445 21.0514C33.5898 21.5914 32.2486 22.3476 31.0818 23.3009C28.4816 25.4251 27.0496 28.266 27.0496 31.3006C27.0496 33.0906 27.5684 34.871 28.5499 36.4491C29.4412 37.8822 30.7188 39.1573 32.2541 40.1514C33.1379 41.7588 34.475 43.0828 36.0914 43.9527V45.2975C35.5785 45.4499 35.0454 45.5932 34.4909 45.7423C32.5063 46.2759 30.454 46.8277 28.8211 47.9513C26.8557 49.3035 25.88 51.2199 25.8384 53.8099C25.8383 53.815 25.8383 53.8201 25.8383 53.8253V64.183C25.8383 64.713 26.268 65.1429 26.7981 65.1429H36.2589C36.7891 65.1429 37.2188 64.713 37.2188 64.183C37.2188 63.653 36.7891 63.2232 36.2589 63.2232H34.3165V58.0315C34.3165 57.5015 33.8868 57.0717 33.3567 57.0717C32.8266 57.0717 32.3969 57.5015 32.3969 58.0315V63.2232H27.7578V53.8333C27.7908 51.8865 28.4746 50.5198 29.9091 49.5327C30.5557 49.0879 31.3222 48.7404 32.1439 48.4447C32.2084 50.3851 33.4562 52.176 35.4009 52.8326C35.9057 53.0037 36.4257 53.0887 36.9436 53.0887C37.6703 53.0887 38.393 52.9214 39.0637 52.5898C39.6487 52.3007 40.1579 51.9039 40.5714 51.4244C40.985 51.9039 41.4941 52.3007 42.0791 52.5898C42.7501 52.9215 43.4729 53.0887 44.1995 53.0887C44.7171 53.0887 45.2367 53.0038 45.741 52.833C46.9557 52.4228 47.9373 51.5646 48.505 50.4162C48.8139 49.7916 48.9788 49.1216 48.9997 48.4452C49.8206 48.7408 50.5863 49.0881 51.2323 49.5325C52.667 50.5196 53.3511 51.8864 53.385 53.8336V63.2232H49.4702V58.0315C49.4702 57.5015 49.0405 57.0717 48.5104 57.0717C47.9803 57.0717 47.5506 57.5015 47.5506 58.0315V63.2232H44.8839C44.3538 63.2232 43.9241 63.653 43.9241 64.183C43.9241 64.713 44.3538 65.1429 44.8839 65.1429H54.3449C54.875 65.1429 55.3047 64.713 55.3047 64.183V53.8253C55.3047 53.82 55.3047 53.8148 55.3046 53.8095V53.8095ZM40.5714 17.9196C42.189 17.9196 43.5623 18.9831 44.0287 20.4469C42.9136 20.2042 41.7539 20.0783 40.5714 20.0783C39.388 20.0783 38.2272 20.2044 37.1113 20.4475C37.5779 18.9834 38.9524 17.9196 40.5714 17.9196V17.9196ZM32.1991 32.4179C31.9215 32.3737 31.6384 32.4528 31.4244 32.6352C31.2105 32.8176 31.0872 33.0846 31.0872 33.3657V35.5994C31.0872 35.9842 31.1108 36.3635 31.1557 36.7364C29.7436 35.1736 28.9693 33.288 28.9693 31.3006C28.9693 26.1711 34.174 21.9979 40.5713 21.9979C46.9686 21.9979 52.1734 26.1711 52.1734 31.3006C52.1734 33.288 51.3991 35.1736 49.987 36.7364C50.0318 36.3635 50.0554 35.9842 50.0554 35.5994V33.3928C50.0554 33.113 49.9334 32.8472 49.7212 32.6649C49.509 32.4826 49.2275 32.4019 48.9513 32.4439C46.1649 32.8679 43.0437 31.0745 41.2178 29.4104C40.8515 29.0765 40.2911 29.0765 39.9247 29.4104C38.0971 31.0763 34.977 32.8633 32.1991 32.4179V32.4179ZM33.0069 35.5994V34.4065C33.0352 34.4069 33.0634 34.407 33.0917 34.407C35.8452 34.407 38.5991 32.9851 40.5713 31.385C42.5522 32.9929 45.3247 34.4267 48.0964 34.4267C48.1096 34.4267 48.1227 34.4267 48.1359 34.4266V35.5994C48.1359 39.7687 44.7425 43.1607 40.5713 43.1607C36.4001 43.1607 33.0069 39.7688 33.0069 35.5994V35.5994ZM38.2131 50.8689C37.5242 51.2094 36.7444 51.2611 36.016 51.0142C34.669 50.5594 33.8797 49.198 34.0968 47.8388C34.3943 47.7564 34.6926 47.6759 34.9894 47.5962C35.412 47.4825 35.8419 47.3663 36.2679 47.2446C36.6685 48.6298 37.721 49.7408 39.0711 50.222C38.8316 50.4861 38.5425 50.7061 38.2131 50.8689ZM40.5714 48.5614C39.1596 48.5614 38.011 47.4138 38.011 46.0033V44.7291C38.8258 44.9578 39.6845 45.0805 40.5714 45.0805C41.4583 45.0805 42.317 44.9578 43.1318 44.7291V46.0033C43.1318 47.4138 41.9832 48.5614 40.5714 48.5614V48.5614ZM46.7841 49.5655C46.4439 50.2537 45.8553 50.7682 45.1259 51.0146C44.3984 51.2611 43.6186 51.2094 42.9298 50.8689C42.6004 50.7061 42.3113 50.4861 42.0719 50.2219C43.422 49.7407 44.4744 48.6298 44.8751 47.2446C45.3007 47.3662 45.7304 47.4823 46.1528 47.5959C46.4493 47.6756 46.7473 47.756 47.0445 47.8383C47.14 48.4242 47.0522 49.0233 46.7841 49.5655V49.5655Z" fill="black" fill-opacity="0.8"/>
<path d="M40.5714 63.2231C40.0413 63.2231 39.6116 63.653 39.6116 64.183C39.6116 64.713 40.0413 65.1428 40.5714 65.1428H40.5741C41.1042 65.1428 41.5326 64.713 41.5326 64.183C41.5326 63.653 41.1015 63.2231 40.5714 63.2231Z" fill="black" fill-opacity="0.8"/>
</g>
<defs>
<clipPath id="clip0_192_5659">
<rect width="49.1429" height="49.1429" fill="white" transform="translate(15.9999 16)"/>
</clipPath>
</defs>
</svg>
