<svg width="11" height="14" viewBox="0 0 11 14" fill="none" xmlns="http://www.w3.org/2000/svg">
<path d="M5.33333 6.66667C5.7 6.66667 6.014 6.536 6.27533 6.27467C6.53667 6.01333 6.66711 5.69956 6.66667 5.33333C6.66667 4.96667 6.536 4.65267 6.27467 4.39133C6.01333 4.13 5.69956 3.99956 5.33333 4C4.96667 4 4.65267 4.13067 4.39133 4.392C4.13 4.65333 3.99956 4.96711 4 5.33333C4 5.7 4.13067 6.014 4.392 6.27533C4.65333 6.53667 4.96711 6.66711 5.33333 6.66667ZM5.33333 13.3333C3.54444 11.8111 2.20844 10.3973 1.32533 9.092C0.442222 7.78667 0.000444444 6.57822 0 5.46667C0 3.8 0.536222 2.47222 1.60867 1.48333C2.68111 0.494444 3.92267 0 5.33333 0C6.74444 0 7.98622 0.494444 9.05867 1.48333C10.1311 2.47222 10.6671 3.8 10.6667 5.46667C10.6667 6.57778 10.2249 7.78622 9.34133 9.092C8.45778 10.3978 7.12178 11.8116 5.33333 13.3333Z" fill="#0A3E19" fill-opacity="1"/>
</svg>
