<svg width="15" height="14" viewBox="0 0 15 14" fill="none" xmlns="http://www.w3.org/2000/svg">
<path d="M10.3 4.28333C10.4333 4.41667 10.5889 4.48622 10.7667 4.492C10.9444 4.49778 11.1 4.43378 11.2333 4.3L12.1667 3.36667C12.3 3.23333 12.3667 3.07511 12.3667 2.892C12.3667 2.70889 12.3 2.55044 12.1667 2.41667C12.0444 2.29444 11.8889 2.23333 11.7 2.23333C11.5111 2.23333 11.3556 2.29444 11.2333 2.41667L10.3 3.35C10.1778 3.47222 10.1167 3.62511 10.1167 3.80867C10.1167 3.99222 10.1778 4.15044 10.3 4.28333ZM1.33333 13.3333C0.966668 13.3333 0.652668 13.2027 0.391334 12.9413C0.130001 12.68 -0.000443313 12.3662 1.13186e-06 12V2.66667C1.13186e-06 2.3 0.130668 1.986 0.392001 1.72467C0.653334 1.46333 0.967112 1.33289 1.33333 1.33333H6.66667V6.66667C6.66667 7.03333 6.79734 7.34733 7.05867 7.60867C7.32 7.87 7.63378 8.00044 8 8H12V12C12 12.3667 11.8693 12.6807 11.608 12.942C11.3467 13.2033 11.0329 13.3338 10.6667 13.3333H1.33333ZM11.3333 6.66667C11 6.66667 10.6722 6.61667 10.35 6.51667C10.0278 6.41667 9.72778 6.27222 9.45 6.08333L9.2 6.31667C9.06667 6.43889 8.90822 6.5 8.72467 6.5C8.54111 6.5 8.38845 6.43889 8.26667 6.31667C8.14445 6.19444 8.08333 6.03889 8.08333 5.85C8.08333 5.66111 8.14445 5.50556 8.26667 5.38333L8.53333 5.11667C8.35556 4.85 8.22222 4.56667 8.13333 4.26667C8.04445 3.96667 8 3.65556 8 3.33333C8 2.41111 8.32511 1.62511 8.97534 0.975333C9.62556 0.325556 10.4116 0.000444444 11.3333 0H14.6667V3.33333C14.6667 4.25556 14.3416 5.04178 13.6913 5.692C13.0411 6.34222 12.2551 6.66711 11.3333 6.66667ZM2.66667 10.6667H4V6H2.66667V10.6667ZM5.33333 10.6667H6.66667V4H5.33333V10.6667ZM8 10.6667H9.33333V8H8V10.6667Z" fill="#6C8B75"/>
</svg>
