<svg width="51" height="50" viewBox="0 0 51 50" fill="none" xmlns="http://www.w3.org/2000/svg">
<path d="M21.9399 50C21.0545 50 20.3117 49.7 19.7117 49.1C19.1117 48.5 18.8128 47.7583 18.8149 46.875V28.125L0.689879 5C-0.0913708 3.95833 -0.209079 2.86458 0.336754 1.71875C0.882588 0.572917 1.83363 0 3.18988 0H46.9399C48.294 0 49.2451 0.572917 49.793 1.71875C50.3409 2.86458 50.2232 3.95833 49.4399 5L31.3149 28.125V46.875C31.3149 47.7604 31.0149 48.5031 30.4149 49.1031C29.8149 49.7031 29.0732 50.0021 28.1899 50H21.9399Z" fill="black"/>
</svg>
