<svg width="158" height="65" viewBox="0 0 158 65" fill="none" xmlns="http://www.w3.org/2000/svg">
<path d="M45.1993 29.4453L59.6771 11.5935H45.7444V5.76984H67.134V10.72L53.2886 28.5718H67.3084V34.3731H45.1993V29.4453Z" fill="white"/>
<path d="M68.8347 34.3955L79.5622 5.76984H84.7733L95.4572 34.3955H88.6326L86.474 27.9894H77.7961L75.6811 34.3955H68.8347V34.3955ZM82.1569 12.7806L78.8209 23.4201H85.3838L82.1569 12.7806Z" fill="white"/>
<path d="M97.5939 34.3955V5.76984H104.026V18.6715L114.797 5.76984H121.469L111.025 18.5595L122.167 34.3955H115.386L107.231 22.2553L104.048 25.7943V34.3731C104.048 34.3955 97.5939 34.3955 97.5939 34.3955Z" fill="white"/>
<path d="M124.064 34.3955V5.76984H130.496V18.6715L141.245 5.76984H147.917L137.473 18.5595L148.615 34.3955H141.834L133.679 22.2553L130.496 25.7943V34.3731C130.496 34.3955 124.064 34.3955 124.064 34.3955Z" fill="white"/>
<path d="M150.512 34.3955V5.76984H156.944V34.3955H150.512Z" fill="white"/>
<path d="M15.8733 22.0181C14.7831 22.914 13.6929 23.8324 12.6027 24.7283C11.5343 25.6243 10.4659 26.5203 9.37572 27.3938C9.20129 27.5282 8.87424 27.5506 8.678 27.461C8.0893 27.2146 7.5224 26.8786 6.86829 26.5426C9.41933 24.4148 11.9486 22.3317 14.4778 20.2262C14.9357 20.831 15.3936 21.4133 15.8733 22.0181Z" fill="white"/>
<path d="M32.008 8.62363C30.6562 9.76596 29.3261 10.8859 27.9743 12.0058C26.5789 13.1482 25.1834 14.2681 23.8098 15.4329C23.5699 15.6344 23.4391 15.7016 23.1557 15.4777C21.9783 14.6041 20.1467 14.9849 19.2746 16.1048C18.4896 15.1641 17.4649 14.8505 16.3529 15.0521C15.2191 15.2537 14.4777 16.0376 13.9981 17.3367C13.453 16.508 12.8643 15.724 12.4064 14.8505C12.0139 14.1113 11.8177 13.2602 11.5124 12.4762C11.447 12.3194 11.2944 12.185 11.0982 12.0954C10.9019 12.9914 11.2508 13.7529 11.5996 14.4473C12.232 15.6568 12.9515 16.7992 13.7364 17.9191C14.3687 18.8151 14.4123 19.0615 13.562 19.7782C10.5094 22.3317 7.45691 24.8851 4.40438 27.4162C4.33897 27.461 4.27356 27.4834 4.14273 27.5506C3.85928 26.8338 3.59764 26.1171 3.31419 25.3779C6.47574 22.7573 9.59369 20.159 12.7334 17.5607C12.5154 17.2696 12.2974 16.9784 12.1011 16.7096C9.0704 19.2182 6.08327 21.7045 3.05254 24.2356C2.92172 23.4964 2.74729 22.802 2.66007 22.1301C2.63827 21.9061 2.74729 21.5477 2.89992 21.4133C5.55998 19.1958 8.24185 17.0008 10.9673 14.7385C10.8583 14.4921 10.7493 14.2681 10.6185 13.9769C7.9366 16.1944 5.29834 18.3895 2.66007 20.5846C2.61647 20.5622 2.55105 20.5174 2.50745 20.495C2.55105 19.5318 2.48564 18.5239 2.70368 17.6055C2.8127 17.0904 3.3578 16.6424 3.79387 16.284C5.47277 14.8281 7.19527 13.3946 8.89597 11.961C9.72451 11.2667 10.5531 10.5723 11.3598 9.87796C13.8454 11.3339 15.4153 11.2219 17.007 9.25079C16.8544 9.29559 16.6581 9.27319 16.5709 9.36279C14.9356 10.8411 13.4094 10.6843 11.9485 9.65397C11.2508 9.1612 10.5313 8.75802 9.6373 9.0268C8.85236 9.27319 8.19824 9.81076 8.11103 10.5947C7.9584 11.8043 7.26068 12.409 6.45394 13.0586C5.88704 13.5066 5.34194 13.9993 4.77504 14.4697C4.20814 14.9401 3.66305 15.3881 3.09615 15.8584C3.05254 15.836 2.98713 15.8136 2.94352 15.7912C3.29238 14.7385 3.57583 13.6634 4.01191 12.6554C5.23292 9.65397 7.08625 7.2349 9.6373 5.3982C10.7493 4.59185 11.9921 4.18867 13.2785 4.00948C14.5868 3.80789 15.9168 3.6959 17.2468 3.6287C17.8573 3.6063 18.4678 3.74069 19.0783 3.85269C19.9069 4.00948 20.7136 3.94228 21.2587 3.24792C21.9565 2.37437 22.7196 2.48636 23.5917 2.75515C26.7751 3.74069 29.4788 5.5326 31.7028 8.15325C31.8118 8.28765 31.899 8.44444 32.008 8.62363Z" fill="white"/>
<path d="M31.5284 13.0585C29.239 14.9624 27.015 16.8215 24.7692 18.6806C24.6384 17.8966 24.5075 17.1351 24.4203 16.3959C24.3985 16.2839 24.5293 16.1271 24.6166 16.0375C26.121 14.7608 27.6255 13.5065 29.13 12.2745C29.2608 12.1626 29.5442 12.0954 29.6968 12.1626C30.3074 12.3865 30.8743 12.7001 31.5284 13.0585Z" fill="white"/>
<path d="M22.0656 30.0369C21.9129 30.3057 21.7603 30.5969 21.6077 30.8657C21.8475 30.7313 22.1092 30.6417 22.349 30.4849C23.9407 29.4322 24.9437 29.2754 26.7316 30.3057C27.3203 30.6417 27.9526 31.0449 28.5849 31.1345C29.7405 31.2913 30.6999 30.6865 30.9179 29.4993C31.2014 28.0434 32.0953 27.3267 33.0983 26.5427C34.1231 25.7364 35.1042 24.8852 36.238 24.1236C35.9328 25.0644 35.6929 26.0275 35.3223 26.9235C34.0358 30.0145 32.2043 32.6576 29.5661 34.6063C28.127 35.659 26.5135 36.107 24.8346 36.3534C23.8099 36.5102 22.7633 36.6446 21.7385 36.7118C21.1498 36.7566 20.5175 36.7118 19.9506 36.5326C18.7732 36.1518 17.7702 36.331 16.8981 37.2493C16.4402 37.7421 15.9387 37.8765 15.2628 37.6973C12.0358 36.8014 9.24491 35.099 6.8901 32.6128C6.58484 32.2992 6.345 31.9408 6.01794 31.5152C6.78108 30.8657 7.5006 30.2385 8.26374 29.6113C10.902 27.4163 13.5403 25.2436 16.1785 23.0261C16.4402 22.8021 16.5928 22.7349 16.8544 23.0037C17.5304 23.6757 18.2717 24.3028 18.9476 24.9972C19.2747 25.3332 19.4709 25.2884 19.7762 24.9748C20.9972 23.6981 22.24 22.4661 23.5046 21.167C25.2707 22.8693 26.6226 24.8852 27.2985 27.3491C27.3639 27.5507 27.5601 27.7298 27.6909 27.909C27.7782 27.6403 27.9962 27.3267 27.9308 27.1251C27.4947 25.9603 27.1022 24.7508 26.4699 23.6981C25.7722 22.5333 24.8346 21.5478 23.9625 20.4054C23.9189 20.4726 23.9843 20.3383 24.0061 20.3383C24.7474 20.5622 25.1181 19.9351 25.5542 19.5543C28.6285 17.0008 31.681 14.4474 34.7336 11.8715C34.7772 11.8267 34.8426 11.8267 35.017 11.7595C35.2787 12.4315 35.5403 13.1034 35.7584 13.7754C35.7802 13.865 35.6493 14.089 35.5403 14.1786C32.5968 16.6201 29.6533 19.0391 26.7316 21.4806C26.5135 21.6598 26.3391 21.8614 26.0775 22.1078C26.3173 22.3989 26.5353 22.7125 26.797 23.0261C29.9367 20.4278 33.0329 17.852 36.1944 15.2313C36.3471 16.0825 36.4997 16.7768 36.5869 17.4936C36.6087 17.6728 36.4343 17.964 36.2816 18.0984C34.3411 19.7335 32.357 21.3238 30.4164 22.9365C29.7623 23.4741 29.13 24.0564 28.4541 24.5716C27.9526 24.9524 27.9308 25.3556 28.3887 25.8931C31.1359 23.6085 33.905 21.3238 36.8049 18.9047C36.7395 20.0471 36.7395 21.0102 36.6087 21.951C36.5433 22.3317 36.238 22.7573 35.9328 23.0037C33.3381 25.2212 30.7217 27.3939 28.1052 29.6113C27.7127 29.9473 27.4075 30.0145 26.9496 29.7457C25.4015 28.8274 23.8317 28.693 22.3054 29.8577C22.1964 29.9249 22.1092 29.9697 22.0656 30.0369Z" fill="white"/>
<path d="M39.2469 19.9349C39.2469 19.4197 39.2251 18.9046 39.1815 18.4118C39.1815 18.3222 39.1597 18.2102 39.1597 18.1206C38.9198 15.6791 38.2439 13.3497 37.2409 11.2442C34.1884 4.92773 28.0179 0.492773 20.8008 0.0447975C20.4738 0.0223988 20.1467 0.0223988 19.8197 0C19.7543 0 19.7107 0 19.6452 0C19.5798 0 19.5362 0 19.4708 0C19.1001 0 18.7513 0.0223988 18.3806 0.0447975C8.22004 0.694362 0.152627 9.29549 0 19.8453C0 19.9573 0 20.0469 0 20.1589C0 22.9363 0.545095 25.5794 1.54807 27.9985C1.59168 28.1329 1.65709 28.2672 1.7225 28.4016C1.74431 28.4464 1.76611 28.4912 1.78791 28.536C1.83152 28.648 1.89693 28.7824 1.94054 28.8944C2.00595 29.0512 2.07136 29.1856 2.15858 29.3424C5.40735 35.8604 11.9921 40.3178 19.6234 40.3178C20.6482 40.3178 21.6294 40.2282 22.6106 40.0938C22.6324 40.0938 22.6542 40.0938 22.6542 40.0938C23.0248 40.0266 23.4173 39.9594 23.788 39.8698C32.6185 37.8987 39.2251 29.8576 39.2469 20.2037C39.2469 20.1141 39.2469 20.0245 39.2469 19.9349ZM19.3618 39.0411C9.87713 38.9067 0.763134 30.8879 1.39544 19.0166C1.89693 9.74346 9.39744 1.25433 20.1031 1.43352C29.6096 1.59031 38.0913 9.67627 37.895 20.2485C38.0913 30.6191 29.6096 39.1754 19.3618 39.0411Z" fill="white"/>
<path d="M48.4045 62.9964V59.5469L46.9654 62.19H46.6602L45.2211 59.5469V62.9964H44.676V58.539H45.2647L46.8346 61.4284L48.4045 58.539H48.9714V62.9964H48.4045Z" fill="white"/>
<path d="M51.4133 63.0636C51.1735 63.0636 50.9555 63.0188 50.7592 62.9292C50.563 62.8396 50.3886 62.7276 50.2359 62.5708C50.0833 62.414 49.9743 62.2348 49.9089 62.0333C49.8435 61.8317 49.7999 61.6077 49.7999 61.3837C49.7999 61.1597 49.8435 60.9357 49.9089 60.7341C49.9961 60.5325 50.1051 60.3534 50.2359 60.1966C50.3886 60.0398 50.563 59.9278 50.7592 59.8382C50.9555 59.7486 51.1735 59.7038 51.4133 59.7038C51.6532 59.7038 51.8712 59.7486 52.0674 59.8382C52.2637 59.9278 52.4381 60.0622 52.5689 60.1966C52.6998 60.3534 52.8088 60.5325 52.896 60.7341C52.9614 60.9357 53.005 61.1373 53.005 61.3613C53.005 61.4061 53.005 61.4509 53.005 61.4957C53.005 61.5405 53.005 61.5629 53.005 61.5853H50.3668C50.3886 61.7421 50.4104 61.8989 50.4758 62.0333C50.5412 62.1676 50.6066 62.2796 50.7156 62.3692C50.8028 62.4588 50.9337 62.5484 51.0427 62.5932C51.1735 62.638 51.3043 62.6828 51.4351 62.6828C51.5224 62.6828 51.6314 62.6604 51.7186 62.638C51.8058 62.6156 51.893 62.5708 51.9802 62.526C52.0674 62.4812 52.1329 62.414 52.1983 62.3468C52.2637 62.2796 52.3073 62.2124 52.3509 62.1229L52.8088 62.2572C52.7652 62.3692 52.6779 62.4812 52.5907 62.5932C52.5035 62.7052 52.3945 62.7724 52.2637 62.862C52.1329 62.9292 52.002 62.9964 51.8712 63.0412C51.7186 63.0412 51.566 63.0636 51.4133 63.0636ZM52.5035 61.1373C52.4817 60.9805 52.4599 60.8461 52.3945 60.7117C52.3291 60.5773 52.2419 60.4654 52.1547 60.3758C52.0674 60.2862 51.9584 60.219 51.8276 60.1518C51.6968 60.107 51.566 60.0622 51.4351 60.0622C51.3043 60.0622 51.1517 60.0846 51.0427 60.1518C50.9119 60.1966 50.8028 60.2862 50.7156 60.3758C50.6284 60.4654 50.5412 60.5773 50.4758 60.7117C50.4104 60.8461 50.3886 60.9805 50.3668 61.1373H52.5035Z" fill="white"/>
<path d="M58.4997 62.9964H57.9546V61.1597C57.9546 60.8237 57.911 60.5549 57.802 60.3981C57.6929 60.2413 57.5403 60.1517 57.3223 60.1517C57.1042 60.1517 56.908 60.2413 56.7336 60.3981C56.5591 60.5549 56.4283 60.7565 56.3629 61.0253V62.9964H55.8178V61.1597C55.8178 60.8013 55.7742 60.5549 55.6652 60.3981C55.5562 60.2413 55.4035 60.1517 55.1855 60.1517C54.9675 60.1517 54.7712 60.2413 54.5968 60.3981C54.4224 60.5549 54.2915 60.7565 54.2261 61.0253V62.9964H53.681V59.7261H54.1607V60.4205C54.2915 60.1741 54.466 59.9949 54.6622 59.8605C54.8584 59.7261 55.0983 59.6589 55.3599 59.6589C55.6216 59.6589 55.8396 59.7261 55.9922 59.8829C56.1449 60.0397 56.2539 60.2189 56.2757 60.4653C56.5591 59.9277 56.9734 59.6589 57.4967 59.6589C57.6711 59.6589 57.8238 59.7037 57.9546 59.7709C58.0854 59.8381 58.1726 59.9277 58.2598 60.0621C58.3253 60.1965 58.3907 60.3309 58.4125 60.4877C58.4343 60.6445 58.4561 60.8461 58.4561 61.0253L58.4997 62.9964Z" fill="white"/>
<path d="M61.0288 63.0635C60.789 63.0635 60.5492 62.9963 60.3529 62.8843C60.1567 62.75 59.9823 62.5932 59.8732 62.3916V62.9963H59.3936V58.427H59.9386V60.3757C60.0695 60.1517 60.2439 59.9949 60.4401 59.8605C60.6364 59.7261 60.8544 59.6589 61.1161 59.6589C61.3341 59.6589 61.5303 59.7037 61.7048 59.7933C61.8792 59.8829 62.0318 60.0173 62.1626 60.1741C62.2935 60.3309 62.3807 60.5101 62.4461 60.7117C62.5115 60.9133 62.5551 61.1372 62.5551 61.3388C62.5551 61.5628 62.5115 61.7868 62.4461 61.9884C62.3589 62.19 62.2717 62.3692 62.119 62.526C61.9882 62.6828 61.8356 62.7948 61.6393 62.8843C61.4213 63.0187 61.2251 63.0635 61.0288 63.0635ZM60.8762 62.5932C61.0288 62.5932 61.1815 62.5708 61.3123 62.5036C61.4431 62.4364 61.5521 62.3468 61.6611 62.2348C61.7702 62.1228 61.8356 61.9884 61.8792 61.854C61.9228 61.7196 61.9664 61.5628 61.9664 61.406C61.9664 61.2492 61.9446 61.0925 61.8792 60.9357C61.8356 60.7789 61.7484 60.6669 61.6611 60.5325C61.5739 60.3981 61.4649 60.3309 61.3341 60.2637C61.2033 60.1965 61.0724 60.1517 60.9198 60.1517C60.8108 60.1517 60.7018 60.1741 60.5928 60.2189C60.4837 60.2637 60.3965 60.3085 60.3093 60.3757C60.2221 60.4429 60.1349 60.5325 60.0695 60.6221C60.0041 60.7117 59.9387 60.8237 59.895 60.9133V61.854C59.9168 61.966 59.9605 62.0556 60.0259 62.1452C60.0913 62.2348 60.1785 62.302 60.2657 62.3692C60.3529 62.4364 60.4619 62.4812 60.5492 62.526C60.6364 62.5708 60.789 62.5932 60.8762 62.5932Z" fill="white"/>
<path d="M64.125 63.0636C63.9724 63.0636 63.8197 63.0412 63.6889 62.974C63.5581 62.9068 63.4491 62.8396 63.34 62.75C63.231 62.6604 63.1656 62.5484 63.122 62.4364C63.0566 62.302 63.0348 62.1901 63.0348 62.0333C63.0348 61.8765 63.0566 61.7421 63.122 61.6077C63.1874 61.4733 63.2746 61.3613 63.4055 61.2717C63.5145 61.1821 63.6671 61.1149 63.8415 61.0701C64.016 61.0253 64.1904 61.0029 64.3866 61.0029C64.5393 61.0029 64.6919 61.0253 64.8663 61.0477C65.0189 61.0701 65.1716 61.1149 65.2806 61.1597V60.8909C65.2806 60.6221 65.2152 60.4206 65.0626 60.2638C64.9099 60.107 64.7137 60.0398 64.4302 60.0398C64.1032 60.0398 63.7761 60.1742 63.4273 60.4206L63.231 60.107C63.4491 59.9726 63.6453 59.8606 63.8415 59.7934C64.0378 59.7262 64.2558 59.6814 64.4738 59.6814C64.8881 59.6814 65.1934 59.7934 65.4332 60.0174C65.6731 60.2414 65.7821 60.5773 65.7821 60.9805V62.3244C65.7821 62.4588 65.8475 62.526 65.9565 62.526V62.9964C65.9129 62.9964 65.8693 63.0188 65.8475 63.0188C65.8039 63.0188 65.7821 63.0188 65.7385 63.0188C65.6513 63.0188 65.564 62.9964 65.4768 62.9516C65.3896 62.9068 65.346 62.8172 65.346 62.7052L65.3242 62.4812C65.2588 62.5708 65.1716 62.6604 65.0844 62.75C64.9971 62.8172 64.8881 62.8844 64.7791 62.9292C64.6701 62.974 64.5611 63.0188 64.452 63.0412C64.343 63.0636 64.234 63.0636 64.125 63.0636ZM64.2558 62.6604C64.4302 62.6604 64.5829 62.6156 64.7573 62.5484C64.9317 62.4812 65.0407 62.3916 65.1498 62.2796C65.237 62.1901 65.2588 62.1005 65.2588 62.0333V61.5405C65.128 61.4957 64.9971 61.4509 64.8663 61.4285C64.7355 61.4061 64.5829 61.3837 64.452 61.3837C64.1686 61.3837 63.9506 61.4509 63.7761 61.5629C63.6017 61.6749 63.5363 61.8317 63.5363 62.0333C63.5363 62.1229 63.5581 62.1901 63.5799 62.2796C63.6017 62.3468 63.6671 62.414 63.7107 62.4812C63.7761 62.5484 63.8415 62.5932 63.9288 62.6156C64.0378 62.638 64.1468 62.6604 64.2558 62.6604Z" fill="white"/>
<path d="M69.4888 62.9964H68.9437V61.1597C68.9437 60.8013 68.9001 60.5549 68.791 60.3981C68.682 60.2413 68.5294 60.1517 68.3113 60.1517C68.2023 60.1517 68.0933 60.1741 67.9843 60.2189C67.8753 60.2637 67.7663 60.3309 67.679 60.3981C67.5918 60.4653 67.5046 60.5549 67.4174 60.6669C67.352 60.7789 67.2866 60.8909 67.243 61.0029V62.974H66.7197V59.7037H67.1994V60.3981C67.3302 60.1741 67.5046 59.9949 67.7445 59.8381C67.9843 59.6813 68.2459 59.6365 68.5294 59.6365C68.7038 59.6365 68.8564 59.6813 68.9873 59.7485C69.1181 59.8157 69.2053 59.9053 69.2707 60.0397C69.3361 60.1741 69.4015 60.3085 69.4233 60.4653C69.4452 60.6221 69.467 60.8237 69.467 61.0029V62.9964H69.4888Z" fill="white"/>
<path d="M71.9526 62.8396C71.9308 62.862 71.8872 62.8844 71.8218 62.9068C71.7782 62.9292 71.7128 62.9516 71.6474 62.974C71.5819 62.9964 71.5165 63.0188 71.4293 63.0412C71.3421 63.0636 71.2767 63.0636 71.1895 63.0636C70.9932 63.0636 70.8188 63.0188 70.688 62.9068C70.5354 62.7948 70.47 62.6156 70.47 62.3916V60.1965H70.0339V59.7709H70.47V58.6734H71.015V59.7709H71.7346V60.1965H71.015V62.2348C71.015 62.3468 71.0587 62.4364 71.1241 62.5036C71.1895 62.5484 71.2767 62.5932 71.3639 62.5932C71.4729 62.5932 71.5601 62.5708 71.6474 62.5484C71.7346 62.5036 71.8 62.4812 71.8218 62.4588L71.9526 62.8396Z" fill="white"/>
<path d="M73.3916 63.0635C73.0645 63.0635 72.8029 62.9515 72.6285 62.7275C72.454 62.5035 72.3668 62.1451 72.3668 61.6972V59.7261H72.9119V61.5852C72.9119 62.2571 73.13 62.5931 73.5878 62.5931C73.8059 62.5931 74.0239 62.5259 74.1983 62.3691C74.3728 62.2123 74.5254 62.0331 74.6344 61.7868V59.7261H75.1795V62.3243C75.1795 62.4587 75.2449 62.5259 75.3539 62.5259V62.9963C75.3103 62.9963 75.2667 63.0187 75.2449 63.0187C75.2013 63.0187 75.1795 63.0187 75.1577 63.0187C75.0269 63.0187 74.9397 62.9963 74.8743 62.9291C74.8088 62.8619 74.7652 62.7947 74.7652 62.6827L74.7434 62.2795C74.5908 62.5259 74.4164 62.7051 74.1765 62.8395C73.9367 62.9963 73.6751 63.0635 73.3916 63.0635Z" fill="white"/>
<path d="M80.5214 59.4797C80.4778 59.4126 80.4124 59.3678 80.3252 59.3006C80.238 59.2558 80.1508 59.1886 80.0417 59.1438C79.9327 59.099 79.8237 59.0542 79.7147 59.0318C79.5839 59.0094 79.4748 58.987 79.344 58.987C79.017 58.987 78.7553 59.0542 78.6027 59.1886C78.4501 59.323 78.3629 59.5021 78.3629 59.7261C78.3629 59.8381 78.3847 59.9501 78.4283 60.0173C78.4719 60.1069 78.5373 60.1741 78.6463 60.2189C78.7553 60.2637 78.8643 60.3309 78.9952 60.3757C79.1478 60.4205 79.3004 60.4653 79.4966 60.5101C79.7147 60.5549 79.9327 60.6221 80.1071 60.6893C80.2816 60.7565 80.4342 60.8237 80.565 60.9357C80.6958 61.0253 80.7831 61.1597 80.8485 61.2941C80.9139 61.4284 80.9575 61.6076 80.9575 61.8092C80.9575 62.0332 80.9139 62.2124 80.8267 62.3692C80.7394 62.526 80.6304 62.6604 80.4996 62.75C80.3688 62.862 80.1944 62.9292 79.9981 62.974C79.8019 63.0188 79.6057 63.0412 79.3658 63.0412C79.0388 63.0412 78.7117 62.9964 78.4065 62.8844C78.1012 62.7724 77.8396 62.6156 77.5997 62.414L77.8614 61.9436C77.9268 62.0108 78.014 62.078 78.123 62.1676C78.232 62.2348 78.3411 62.302 78.4719 62.3692C78.6027 62.4364 78.7553 62.4812 78.9079 62.5036C79.0606 62.5484 79.2132 62.5484 79.3876 62.5484C79.6929 62.5484 79.9327 62.4812 80.1071 62.3692C80.2816 62.2572 80.3688 62.078 80.3688 61.854C80.3688 61.7196 80.347 61.63 80.2816 61.5404C80.2162 61.4508 80.1508 61.3836 80.0417 61.3164C79.9327 61.2493 79.8019 61.2045 79.6493 61.1597C79.4966 61.1149 79.3222 61.0701 79.1042 61.0029C78.8861 60.9581 78.6899 60.8909 78.5155 60.8237C78.3411 60.7565 78.2102 60.6893 78.1012 60.5997C77.9922 60.5101 77.905 60.3981 77.8396 60.2861C77.7742 60.1517 77.7524 60.0173 77.7524 59.8381C77.7524 59.6141 77.796 59.435 77.8614 59.2782C77.9486 59.1214 78.0358 58.987 78.1884 58.875C78.3193 58.763 78.4937 58.6734 78.6899 58.6286C78.8861 58.5614 79.0824 58.539 79.3222 58.539C79.6057 58.539 79.8891 58.5838 80.1071 58.6734C80.347 58.763 80.5432 58.8974 80.7394 59.0542L80.5214 59.4797Z" fill="white"/>
<path d="M83.138 63.0636C82.8982 63.0636 82.6801 63.0188 82.4839 62.9292C82.2877 62.8396 82.1132 62.7276 81.9606 62.5708C81.808 62.414 81.699 62.2348 81.6336 62.0333C81.5463 61.8317 81.5245 61.6077 81.5245 61.3837C81.5245 61.1597 81.5681 60.9357 81.6336 60.7341C81.7208 60.5325 81.8298 60.3534 81.9606 60.1966C82.1132 60.0398 82.2877 59.9278 82.4839 59.8382C82.6801 59.7486 82.8982 59.7038 83.138 59.7038C83.3779 59.7038 83.5959 59.7486 83.7921 59.8382C83.9884 59.9278 84.1628 60.0622 84.2936 60.1966C84.4244 60.3534 84.5335 60.5325 84.6207 60.7341C84.6861 60.9357 84.7297 61.1373 84.7297 61.3613C84.7297 61.4061 84.7297 61.4509 84.7297 61.4957C84.7297 61.5405 84.7297 61.5629 84.7297 61.5853H82.0914C82.1132 61.7421 82.135 61.8989 82.2005 62.0333C82.2659 62.1676 82.3313 62.2796 82.4403 62.3692C82.5275 62.4588 82.6583 62.5484 82.7674 62.5932C82.8982 62.638 83.029 62.6828 83.1598 62.6828C83.247 62.6828 83.3561 62.6604 83.4433 62.638C83.5305 62.6156 83.6177 62.5708 83.7049 62.526C83.7921 62.4812 83.8575 62.414 83.9229 62.3468C83.9884 62.2796 84.032 62.2124 84.0756 62.1229L84.5335 62.2572C84.4898 62.3692 84.4026 62.4812 84.3154 62.5932C84.2282 62.7052 84.1192 62.7724 83.9884 62.862C83.8575 62.9292 83.7267 62.9964 83.5959 63.0412C83.4651 63.0412 83.3124 63.0636 83.138 63.0636ZM84.2282 61.1373C84.2064 60.9805 84.1846 60.8461 84.1192 60.7117C84.0538 60.5773 83.9666 60.4654 83.8793 60.3758C83.7921 60.2862 83.6831 60.219 83.5523 60.1518C83.4215 60.107 83.2906 60.0622 83.1598 60.0622C83.0072 60.0622 82.8764 60.0846 82.7674 60.1518C82.6365 60.1966 82.5275 60.2862 82.4403 60.3758C82.3531 60.4654 82.2659 60.5773 82.2005 60.7117C82.135 60.8461 82.1132 60.9805 82.0914 61.1373H84.2282Z" fill="white"/>
<path d="M86.5176 63.0636C86.2559 63.0636 86.0161 63.0188 85.7544 62.9516C85.4928 62.8844 85.2966 62.75 85.1221 62.5932L85.362 62.2125C85.5582 62.3692 85.7326 62.4588 85.9289 62.5484C86.1251 62.638 86.3213 62.6604 86.5176 62.6604C86.7574 62.6604 86.9319 62.6156 87.0627 62.526C87.1935 62.4364 87.2589 62.302 87.2589 62.1229C87.2589 62.0333 87.2371 61.9661 87.1935 61.9213C87.1499 61.8765 87.1063 61.8093 87.0191 61.7645C86.9537 61.7197 86.8446 61.6749 86.7356 61.6525C86.6266 61.6301 86.4958 61.5853 86.3432 61.5405C86.1469 61.4957 85.9943 61.4509 85.8417 61.4061C85.689 61.3613 85.58 61.3165 85.4928 61.2493C85.4056 61.1821 85.3402 61.1149 85.2966 61.0253C85.253 60.9357 85.2312 60.8237 85.2312 60.6893C85.2312 60.5325 85.253 60.3758 85.3184 60.2638C85.3838 60.1294 85.471 60.0398 85.58 59.9502C85.689 59.8606 85.8199 59.7934 85.9725 59.7486C86.1251 59.7038 86.2777 59.6814 86.4522 59.6814C86.692 59.6814 86.9101 59.7262 87.1281 59.7934C87.3461 59.883 87.5206 59.9726 87.6514 60.107L87.4115 60.443C87.2807 60.331 87.1281 60.2414 86.9537 60.1742C86.7792 60.107 86.6266 60.0846 86.4304 60.0846C86.2341 60.0846 86.0597 60.1294 85.9289 60.219C85.7981 60.3086 85.7326 60.443 85.7326 60.6221C85.7326 60.6893 85.7544 60.7565 85.7762 60.8013C85.7981 60.8461 85.8417 60.8909 85.9071 60.9357C85.9725 60.9805 86.0379 61.0029 86.1469 61.0253C86.2341 61.0477 86.365 61.0925 86.4958 61.1149C86.7138 61.1597 86.8883 61.2269 87.0409 61.2717C87.1935 61.3165 87.3243 61.3837 87.4334 61.4509C87.5424 61.5181 87.6078 61.6077 87.6732 61.6973C87.7386 61.7869 87.7604 61.9213 87.7604 62.0557C87.7604 62.3692 87.6514 62.5932 87.4115 62.7724C87.1935 62.974 86.8882 63.0636 86.5176 63.0636Z" fill="white"/>
<path d="M89.3739 63.0635C89.2213 63.0635 89.0686 63.0411 88.9378 62.9739C88.807 62.9291 88.698 62.8396 88.5889 62.75C88.5017 62.6604 88.4145 62.5484 88.3709 62.4364C88.3055 62.302 88.2837 62.19 88.2837 62.0332C88.2837 61.8764 88.3055 61.742 88.3709 61.6076C88.4363 61.4732 88.5235 61.3612 88.6544 61.2716C88.7852 61.182 88.916 61.1149 89.0904 61.0701C89.2649 61.0253 89.4393 61.0029 89.6355 61.0029C89.7882 61.0029 89.9408 61.0253 90.1152 61.0477C90.2678 61.0701 90.4205 61.1149 90.5295 61.1596V60.8909C90.5295 60.6221 90.4641 60.4205 90.3114 60.2637C90.1588 60.1069 89.9626 60.0397 89.6791 60.0397C89.3521 60.0397 89.025 60.1741 88.6762 60.4205L88.5017 60.0621C88.7198 59.9277 88.916 59.8157 89.1122 59.7485C89.3085 59.6813 89.5265 59.6365 89.7445 59.6365C90.1588 59.6365 90.4641 59.7485 90.7039 59.9725C90.9437 60.1965 91.0528 60.5325 91.0528 60.9357V62.2796C91.0528 62.414 91.1182 62.4812 91.2272 62.4812V62.9515C91.1836 62.9515 91.14 62.9739 91.1182 62.9739C91.0746 62.9739 91.0528 62.9739 91.0092 62.9739C90.9219 62.9739 90.8347 62.9515 90.7475 62.9067C90.6603 62.8619 90.6167 62.7724 90.6167 62.6604L90.5949 62.4364C90.5295 62.526 90.4423 62.6156 90.355 62.7052C90.2678 62.7724 90.1588 62.8395 90.0498 62.8843C89.9408 62.9291 89.8318 62.9739 89.7227 62.9963C89.5919 63.0635 89.4829 63.0635 89.3739 63.0635ZM89.5047 62.6604C89.6791 62.6604 89.8318 62.6156 90.0062 62.5484C90.1588 62.4812 90.2896 62.3916 90.3987 62.2796C90.4859 62.19 90.5077 62.1004 90.5077 62.0332V61.5404C90.3769 61.4956 90.246 61.4508 90.1152 61.4284C89.9844 61.406 89.8318 61.3836 89.7009 61.3836C89.4175 61.3836 89.1994 61.4508 89.025 61.5628C88.8506 61.6748 88.7852 61.8316 88.7852 62.0332C88.7852 62.1228 88.807 62.19 88.8288 62.2796C88.8506 62.3468 88.916 62.414 88.9596 62.4812C89.025 62.5484 89.0904 62.5932 89.1776 62.6156C89.2867 62.638 89.3957 62.6604 89.5047 62.6604Z" fill="white"/>
<path d="M96.7872 62.9964H96.2421V61.1597C96.2421 60.8237 96.1985 60.5549 96.0895 60.3981C95.9804 60.2413 95.8278 60.1517 95.6098 60.1517C95.3917 60.1517 95.1955 60.2413 95.0211 60.3981C94.8466 60.5549 94.7158 60.7565 94.6504 61.0253V62.9964H94.1053V61.1597C94.1053 60.8013 94.0617 60.5549 93.9527 60.3981C93.8437 60.2413 93.691 60.1517 93.473 60.1517C93.2549 60.1517 93.0587 60.2413 92.8843 60.3981C92.7098 60.5549 92.579 60.7565 92.5136 61.0253V62.9964H91.9685V59.7261H92.4482V60.4205C92.579 60.1741 92.7535 59.9949 92.9497 59.8605C93.1459 59.7261 93.3858 59.6589 93.6474 59.6589C93.9091 59.6589 94.1271 59.7261 94.2797 59.8829C94.4324 60.0397 94.5414 60.2189 94.5632 60.4653C94.8466 59.9277 95.2609 59.6589 95.7842 59.6589C95.9586 59.6589 96.1113 59.7037 96.2421 59.7709C96.3729 59.8381 96.4601 59.9277 96.5473 60.0621C96.6128 60.1965 96.6782 60.3309 96.7 60.4877C96.7218 60.6445 96.7436 60.8461 96.7436 61.0253L96.7872 62.9964Z" fill="white"/>
<path d="M98.5314 63.0635C98.3787 63.0635 98.2261 63.0411 98.0953 62.9739C97.9645 62.9291 97.8554 62.8396 97.7464 62.75C97.6592 62.6604 97.572 62.5484 97.5284 62.4364C97.463 62.302 97.4412 62.19 97.4412 62.0332C97.4412 61.8764 97.463 61.742 97.5284 61.6076C97.5938 61.4732 97.681 61.3612 97.8118 61.2716C97.9427 61.182 98.0735 61.1149 98.2479 61.0701C98.4223 61.0253 98.5968 61.0029 98.793 61.0029C98.9456 61.0029 99.0983 61.0253 99.2727 61.0477C99.4253 61.0701 99.5779 61.1149 99.687 61.1596V60.8909C99.687 60.6221 99.6215 60.4205 99.4689 60.2637C99.3163 60.1069 99.1201 60.0397 98.8366 60.0397C98.5095 60.0397 98.1825 60.1741 97.8336 60.4205L97.6592 60.0621C97.8772 59.9277 98.0735 59.8157 98.2697 59.7485C98.4659 59.6813 98.684 59.6365 98.902 59.6365C99.3163 59.6365 99.6215 59.7485 99.8614 59.9725C100.101 60.1965 100.21 60.5325 100.21 60.9357V62.2796C100.21 62.414 100.276 62.4812 100.385 62.4812V62.9515C100.341 62.9515 100.297 62.9739 100.276 62.9739C100.232 62.9739 100.21 62.9739 100.167 62.9739C100.079 62.9739 99.9922 62.9515 99.905 62.9067C99.8178 62.8619 99.7742 62.7724 99.7742 62.6604L99.7524 62.4364C99.687 62.526 99.5997 62.6156 99.5125 62.7052C99.4253 62.7724 99.3163 62.8395 99.2073 62.8843C99.0983 62.9291 98.9892 62.9739 98.8802 62.9963C98.7494 63.0635 98.6404 63.0635 98.5314 63.0635ZM98.6622 62.6604C98.8366 62.6604 98.9892 62.6156 99.1637 62.5484C99.3163 62.4812 99.4471 62.3916 99.5561 62.2796C99.6434 62.19 99.6652 62.1004 99.6652 62.0332V61.5404C99.5343 61.4956 99.4035 61.4508 99.2727 61.4284C99.1419 61.406 98.9892 61.3836 98.8584 61.3836C98.575 61.3836 98.3569 61.4508 98.1825 61.5628C98.0081 61.6748 97.9427 61.8316 97.9427 62.0332C97.9427 62.1228 97.9645 62.19 97.9863 62.2796C98.0081 62.3468 98.0735 62.414 98.1171 62.4812C98.1825 62.5484 98.2479 62.5932 98.3351 62.6156C98.4441 62.638 98.5532 62.6604 98.6622 62.6604Z" fill="white"/>
<path d="M104.157 63.0635C103.939 63.0635 103.742 63.0187 103.546 62.9291C103.35 62.8396 103.197 62.7052 103.067 62.5484C102.936 62.3916 102.827 62.2124 102.761 62.0108C102.696 61.8092 102.652 61.5852 102.652 61.3612C102.652 61.1372 102.696 60.9133 102.761 60.7117C102.827 60.5101 102.936 60.3309 103.067 60.1741C103.197 60.0173 103.35 59.9053 103.524 59.8157C103.699 59.7261 103.895 59.6813 104.113 59.6813C104.375 59.6813 104.593 59.7485 104.789 59.8829C104.985 60.0173 105.16 60.1965 105.269 60.3757V58.427H105.814V62.3244C105.814 62.4588 105.879 62.526 105.988 62.526V62.9963C105.945 62.9963 105.901 63.0187 105.879 63.0187C105.836 63.0187 105.814 63.0187 105.792 63.0187C105.661 63.0187 105.574 62.9963 105.509 62.9291C105.443 62.862 105.4 62.7948 105.4 62.6828L105.378 62.3692C105.247 62.5932 105.094 62.75 104.876 62.862C104.615 62.9963 104.397 63.0635 104.157 63.0635ZM104.288 62.5932C104.375 62.5932 104.484 62.5708 104.593 62.526C104.702 62.4812 104.789 62.4364 104.876 62.3692C104.963 62.302 105.051 62.2348 105.116 62.1228C105.182 62.0332 105.225 61.9436 105.247 61.8316V60.8909C105.203 60.7789 105.16 60.6893 105.072 60.5997C104.985 60.5101 104.92 60.4205 104.833 60.3533C104.745 60.2861 104.636 60.2189 104.549 60.1965C104.44 60.1517 104.353 60.1293 104.244 60.1293C104.091 60.1293 103.939 60.1741 103.808 60.2413C103.677 60.3085 103.568 60.3981 103.481 60.5101C103.394 60.6221 103.328 60.7565 103.263 60.9133C103.219 61.0701 103.197 61.2044 103.197 61.3612C103.197 61.518 103.219 61.6748 103.285 61.8316C103.35 61.9884 103.415 62.1004 103.524 62.2124C103.612 62.3244 103.742 62.414 103.873 62.4812C103.982 62.5484 104.135 62.5932 104.288 62.5932Z" fill="white"/>
<path d="M108.169 63.0636C107.929 63.0636 107.711 63.0188 107.515 62.9292C107.318 62.8396 107.144 62.7276 106.991 62.5708C106.839 62.414 106.73 62.2348 106.664 62.0333C106.577 61.8317 106.555 61.6077 106.555 61.3837C106.555 61.1597 106.599 60.9357 106.664 60.7341C106.751 60.5325 106.86 60.3534 106.991 60.1966C107.144 60.0398 107.318 59.9278 107.515 59.8382C107.711 59.7486 107.929 59.7038 108.169 59.7038C108.409 59.7038 108.627 59.7486 108.823 59.8382C109.019 59.9278 109.193 60.0622 109.324 60.1966C109.455 60.3534 109.564 60.5325 109.651 60.7341C109.717 60.9357 109.76 61.1373 109.76 61.3613C109.76 61.4061 109.76 61.4509 109.76 61.4957C109.76 61.5405 109.76 61.5629 109.76 61.5853H107.122C107.144 61.7421 107.166 61.8989 107.231 62.0333C107.297 62.1676 107.362 62.2796 107.471 62.3692C107.558 62.4588 107.689 62.5484 107.798 62.5932C107.929 62.638 108.06 62.6828 108.19 62.6828C108.278 62.6828 108.387 62.6604 108.474 62.638C108.561 62.6156 108.648 62.5708 108.736 62.526C108.823 62.4812 108.888 62.414 108.954 62.3468C109.019 62.2796 109.063 62.2124 109.106 62.1229L109.564 62.2572C109.521 62.3692 109.433 62.4812 109.346 62.5932C109.259 62.7052 109.15 62.7724 109.019 62.862C108.888 62.9292 108.757 62.9964 108.627 63.0412C108.474 63.0412 108.321 63.0636 108.169 63.0636ZM109.259 61.1373C109.237 60.9805 109.215 60.8461 109.15 60.7117C109.084 60.5773 108.997 60.4654 108.91 60.3758C108.823 60.2862 108.714 60.219 108.583 60.1518C108.452 60.107 108.321 60.0622 108.19 60.0622C108.038 60.0622 107.907 60.0846 107.798 60.1518C107.667 60.1966 107.558 60.2862 107.471 60.3758C107.384 60.4654 107.297 60.5773 107.231 60.7117C107.166 60.8461 107.144 60.9805 107.122 61.1373H109.259Z" fill="white"/>
<path d="M113.205 62.9964H112.66V61.1597C112.66 60.8013 112.617 60.5549 112.508 60.3981C112.399 60.2413 112.246 60.1517 112.028 60.1517C111.919 60.1517 111.81 60.1741 111.701 60.2189C111.592 60.2637 111.483 60.3309 111.396 60.3981C111.308 60.4653 111.221 60.5549 111.134 60.6669C111.069 60.7789 111.003 60.8909 110.96 61.0029V62.974H110.414V59.7037H110.894V60.3981C111.025 60.1741 111.199 59.9949 111.439 59.8381C111.679 59.6813 111.941 59.6365 112.224 59.6365C112.399 59.6365 112.551 59.6813 112.682 59.7485C112.813 59.8157 112.9 59.9053 112.965 60.0397C113.031 60.1741 113.096 60.3085 113.118 60.4653C113.14 60.6221 113.162 60.8237 113.162 61.0029L113.205 62.9964Z" fill="white"/>
<path d="M115.364 63.0412C115.146 63.0412 114.95 62.9964 114.775 62.9068C114.601 62.8172 114.448 62.6828 114.317 62.526C114.187 62.3692 114.078 62.1901 114.012 61.9885C113.947 61.7869 113.903 61.5853 113.903 61.3613C113.903 61.1373 113.947 60.9133 114.012 60.7117C114.078 60.5101 114.187 60.331 114.317 60.1742C114.448 60.0174 114.601 59.9054 114.775 59.8158C114.95 59.7262 115.168 59.6814 115.386 59.6814C115.648 59.6814 115.887 59.7486 116.084 59.883C116.28 60.0174 116.454 60.1966 116.585 60.3982V59.7486H117.065V62.974C117.065 63.198 117.021 63.422 116.934 63.6012C116.847 63.7804 116.738 63.9372 116.585 64.0492C116.432 64.1612 116.258 64.2731 116.062 64.3179C115.866 64.3851 115.648 64.4075 115.429 64.4075C115.059 64.4075 114.775 64.3403 114.557 64.206C114.339 64.0716 114.143 63.8924 113.99 63.6684L114.296 63.3772C114.426 63.5788 114.579 63.7132 114.775 63.8028C114.972 63.8924 115.19 63.9372 115.429 63.9372C115.582 63.9372 115.713 63.9148 115.844 63.87C115.975 63.8252 116.084 63.758 116.193 63.6908C116.28 63.6012 116.367 63.5116 116.432 63.3772C116.498 63.2428 116.52 63.1084 116.52 62.9292V62.3469C116.454 62.4364 116.389 62.5484 116.302 62.6156C116.214 62.6828 116.127 62.7724 116.04 62.8172C115.953 62.862 115.844 62.9068 115.735 62.9516C115.626 62.9964 115.495 63.0412 115.364 63.0412ZM115.538 62.5932C115.648 62.5932 115.757 62.5708 115.866 62.526C115.975 62.4812 116.062 62.4364 116.149 62.3693C116.236 62.3021 116.323 62.2125 116.367 62.1453C116.432 62.0557 116.476 61.9661 116.498 61.8765V60.9357C116.454 60.8237 116.389 60.7117 116.323 60.6221C116.258 60.5325 116.171 60.443 116.084 60.3758C115.996 60.3086 115.887 60.2638 115.8 60.219C115.713 60.1742 115.582 60.1518 115.495 60.1518C115.342 60.1518 115.19 60.1966 115.059 60.2638C114.928 60.331 114.819 60.4206 114.732 60.5549C114.645 60.6669 114.579 60.8013 114.514 60.9581C114.47 61.1149 114.448 61.2493 114.448 61.4061C114.448 61.5629 114.47 61.7197 114.536 61.8765C114.601 62.0333 114.666 62.1453 114.775 62.2573C114.863 62.3693 114.993 62.4588 115.124 62.526C115.233 62.5484 115.386 62.5932 115.538 62.5932Z" fill="white"/>
<path d="M118.831 63.0635C118.678 63.0635 118.525 63.0411 118.395 62.9739C118.264 62.9291 118.155 62.8396 118.046 62.75C117.959 62.6604 117.871 62.5484 117.828 62.4364C117.762 62.302 117.741 62.19 117.741 62.0332C117.741 61.8764 117.762 61.742 117.828 61.6076C117.893 61.4732 117.98 61.3612 118.111 61.2716C118.242 61.182 118.373 61.1149 118.547 61.0701C118.722 61.0253 118.896 61.0029 119.092 61.0029C119.245 61.0029 119.398 61.0253 119.572 61.0477C119.725 61.0701 119.877 61.1149 119.986 61.1596V60.8909C119.986 60.6221 119.921 60.4205 119.768 60.2637C119.616 60.1069 119.419 60.0397 119.136 60.0397C118.809 60.0397 118.482 60.1741 118.133 60.4205L117.959 60.0621C118.177 59.9277 118.373 59.8157 118.569 59.7485C118.765 59.6813 118.983 59.6365 119.201 59.6365C119.616 59.6365 119.921 59.7485 120.161 59.9725C120.401 60.1965 120.51 60.5325 120.51 60.9357V62.2796C120.51 62.414 120.575 62.4812 120.684 62.4812V62.9515C120.64 62.9515 120.597 62.9739 120.575 62.9739C120.531 62.9739 120.51 62.9739 120.466 62.9739C120.379 62.9739 120.292 62.9515 120.204 62.9067C120.117 62.8619 120.074 62.7724 120.074 62.6604L120.052 62.4364C119.986 62.526 119.899 62.6156 119.812 62.7052C119.725 62.7724 119.616 62.8395 119.507 62.8843C119.398 62.9291 119.289 62.9739 119.18 62.9963C119.049 63.0635 118.94 63.0635 118.831 63.0635ZM118.962 62.6604C119.136 62.6604 119.289 62.6156 119.463 62.5484C119.616 62.4812 119.746 62.3916 119.856 62.2796C119.943 62.19 119.965 62.1004 119.965 62.0332V61.5404C119.834 61.4956 119.703 61.4508 119.572 61.4284C119.441 61.406 119.289 61.3836 119.158 61.3836C118.874 61.3836 118.656 61.4508 118.482 61.5628C118.307 61.6748 118.242 61.8316 118.242 62.0332C118.242 62.1228 118.264 62.19 118.286 62.2796C118.307 62.3468 118.373 62.414 118.416 62.4812C118.482 62.5484 118.547 62.5932 118.634 62.6156C118.744 62.638 118.853 62.6604 118.962 62.6604Z" fill="white"/>
<path d="M124.195 62.9964H123.649V61.1597C123.649 60.8013 123.606 60.5549 123.497 60.3981C123.388 60.2413 123.235 60.1517 123.017 60.1517C122.908 60.1517 122.799 60.1741 122.69 60.2189C122.581 60.2637 122.472 60.3309 122.385 60.3981C122.298 60.4653 122.21 60.5549 122.123 60.6669C122.058 60.7789 121.992 60.8909 121.949 61.0029V62.974H121.404V59.7037H121.883V60.3981C122.014 60.1741 122.189 59.9949 122.428 59.8381C122.668 59.6813 122.93 59.6365 123.213 59.6365C123.388 59.6365 123.54 59.6813 123.671 59.7485C123.802 59.8157 123.889 59.9053 123.955 60.0397C124.02 60.1741 124.086 60.3085 124.107 60.4653C124.129 60.6221 124.151 60.8237 124.151 61.0029L124.195 62.9964Z" fill="white"/>
<path d="M126.419 62.9964L128.206 58.539H128.664L130.43 62.9964H129.842L129.318 61.6972H127.509L127.007 62.9964H126.419ZM128.424 59.211L127.618 61.2717H129.209L128.424 59.211Z" fill="white"/>
<path d="M133.243 62.9963L132.153 61.406L131.542 61.9884V62.9963H130.997V58.427H131.542V61.4284L133.178 59.7261H133.766L132.502 61.0701L133.832 62.9739L133.243 62.9963Z" fill="white"/>
<path d="M135.511 63.0636C135.249 63.0636 135.009 63.0188 134.748 62.9516C134.486 62.8844 134.29 62.75 134.115 62.5932L134.355 62.2125C134.551 62.3692 134.726 62.4588 134.922 62.5484C135.118 62.638 135.314 62.6604 135.511 62.6604C135.751 62.6604 135.925 62.6156 136.056 62.526C136.187 62.4364 136.252 62.302 136.252 62.1229C136.252 62.0333 136.23 61.9661 136.187 61.9213C136.143 61.8765 136.099 61.8093 136.012 61.7645C135.947 61.7197 135.838 61.6749 135.729 61.6525C135.62 61.6301 135.489 61.5853 135.336 61.5405C135.14 61.4957 134.987 61.4509 134.835 61.4061C134.682 61.3613 134.573 61.3165 134.486 61.2493C134.399 61.1821 134.333 61.1149 134.29 61.0253C134.246 60.9357 134.224 60.8237 134.224 60.6893C134.224 60.5325 134.246 60.3758 134.312 60.2638C134.377 60.1294 134.464 60.0398 134.573 59.9502C134.682 59.8606 134.813 59.7934 134.966 59.7486C135.118 59.7038 135.271 59.6814 135.445 59.6814C135.685 59.6814 135.903 59.7262 136.121 59.7934C136.339 59.883 136.514 59.9726 136.645 60.107L136.405 60.443C136.274 60.331 136.121 60.2414 135.947 60.1742C135.772 60.107 135.62 60.0846 135.424 60.0846C135.227 60.0846 135.053 60.1294 134.922 60.219C134.791 60.3086 134.726 60.443 134.726 60.6221C134.726 60.6893 134.748 60.7565 134.769 60.8013C134.791 60.8461 134.835 60.8909 134.9 60.9357C134.966 60.9805 135.031 61.0029 135.14 61.0253C135.227 61.0477 135.358 61.0925 135.489 61.1149C135.707 61.1597 135.881 61.2269 136.034 61.2717C136.187 61.3165 136.317 61.3837 136.426 61.4509C136.535 61.5181 136.601 61.6077 136.666 61.6973C136.732 61.7869 136.754 61.9213 136.754 62.0557C136.754 62.3692 136.645 62.5932 136.405 62.7724C136.208 62.974 135.903 63.0636 135.511 63.0636Z" fill="white"/>
<path d="M137.473 59.1214V58.427H138.018V59.1214H137.473ZM137.473 62.9963V59.7261H138.018V62.9963H137.473Z" fill="white"/>
<path d="M141.267 59.6141V63.0188H140.722V58.5614H141.158L143.84 62.0332V58.5614H144.385V63.0188H143.927L141.267 59.6141Z" fill="white"/>
<path d="M145.519 63.8922C145.628 63.9146 145.737 63.9146 145.802 63.9146C145.846 63.9146 145.868 63.9146 145.911 63.8922C145.933 63.8698 145.977 63.825 146.02 63.7803C146.064 63.7131 146.107 63.6235 146.151 63.5115C146.195 63.3995 146.26 63.2203 146.347 63.0187L144.995 59.7485H145.54L146.631 62.5259L147.612 59.7485H148.135L146.565 63.8922C146.5 64.0938 146.391 64.2282 146.238 64.3178C146.107 64.4074 145.933 64.4522 145.758 64.4522C145.715 64.4522 145.671 64.4522 145.628 64.4522C145.584 64.4522 145.54 64.4298 145.497 64.4298L145.519 63.8922Z" fill="white"/>
<path d="M149.552 63.0635C149.4 63.0635 149.247 63.0411 149.116 62.9739C148.986 62.9291 148.876 62.8396 148.767 62.75C148.68 62.6604 148.593 62.5484 148.549 62.4364C148.484 62.302 148.462 62.19 148.462 62.0332C148.462 61.8764 148.484 61.742 148.549 61.6076C148.615 61.4732 148.702 61.3612 148.833 61.2716C148.964 61.182 149.095 61.1149 149.269 61.0701C149.443 61.0253 149.618 61.0029 149.814 61.0029C149.967 61.0029 150.119 61.0253 150.294 61.0477C150.446 61.0701 150.599 61.1149 150.708 61.1596V60.8909C150.708 60.6221 150.643 60.4205 150.49 60.2637C150.337 60.1069 150.141 60.0397 149.858 60.0397C149.531 60.0397 149.204 60.1741 148.855 60.4205L148.68 60.0621C148.898 59.9277 149.095 59.8157 149.291 59.7485C149.487 59.6813 149.705 59.6365 149.923 59.6365C150.337 59.6365 150.643 59.7485 150.882 59.9725C151.122 60.1965 151.231 60.5325 151.231 60.9357V62.2796C151.231 62.414 151.297 62.4812 151.406 62.4812V62.9515C151.362 62.9515 151.319 62.9739 151.297 62.9739C151.253 62.9739 151.231 62.9739 151.188 62.9739C151.1 62.9739 151.013 62.9515 150.926 62.9067C150.839 62.8619 150.795 62.7724 150.795 62.6604L150.773 62.4364C150.708 62.526 150.621 62.6156 150.534 62.7052C150.446 62.7724 150.337 62.8395 150.228 62.8843C150.119 62.9291 150.01 62.9739 149.901 62.9963C149.77 63.0635 149.661 63.0635 149.552 63.0635ZM149.683 62.6604C149.858 62.6604 150.01 62.6156 150.185 62.5484C150.337 62.4812 150.468 62.3916 150.577 62.2796C150.664 62.19 150.686 62.1004 150.686 62.0332V61.5404C150.555 61.4956 150.425 61.4508 150.294 61.4284C150.163 61.406 150.01 61.3836 149.879 61.3836C149.596 61.3836 149.378 61.4508 149.204 61.5628C149.029 61.6748 148.964 61.8316 148.964 62.0332C148.964 62.1228 148.986 62.19 149.007 62.2796C149.029 62.3468 149.095 62.414 149.138 62.4812C149.204 62.5484 149.269 62.5932 149.356 62.6156C149.465 62.638 149.574 62.6604 149.683 62.6604Z" fill="white"/>
<path d="M153.717 62.8396C153.695 62.862 153.651 62.8844 153.586 62.9068C153.542 62.9292 153.477 62.9516 153.412 62.974C153.346 62.9964 153.281 63.0188 153.194 63.0412C153.106 63.0636 153.041 63.0636 152.954 63.0636C152.758 63.0636 152.583 63.0188 152.452 62.9068C152.3 62.7948 152.234 62.6156 152.234 62.3916V60.1965H151.798V59.7709H152.234V58.6734H152.779V59.7709H153.499V60.1965H152.779V62.2348C152.779 62.3468 152.823 62.4364 152.888 62.5036C152.954 62.5484 153.041 62.5932 153.128 62.5932C153.237 62.5932 153.324 62.5708 153.412 62.5484C153.499 62.5036 153.564 62.4812 153.586 62.4588L153.717 62.8396Z" fill="white"/>
<path d="M155.178 63.0635C155.025 63.0635 154.873 63.0411 154.742 62.9739C154.611 62.9291 154.502 62.8396 154.393 62.75C154.306 62.6604 154.218 62.5484 154.175 62.4364C154.109 62.302 154.088 62.19 154.088 62.0332C154.088 61.8764 154.109 61.742 154.175 61.6076C154.24 61.4732 154.327 61.3612 154.458 61.2716C154.589 61.182 154.72 61.1149 154.894 61.0701C155.069 61.0253 155.243 61.0029 155.439 61.0029C155.592 61.0029 155.745 61.0253 155.919 61.0477C156.072 61.0701 156.224 61.1149 156.333 61.1596V60.8909C156.333 60.6221 156.268 60.4205 156.115 60.2637C155.963 60.1069 155.767 60.0397 155.483 60.0397C155.156 60.0397 154.829 60.1741 154.48 60.4205L154.306 60.0621C154.524 59.9277 154.72 59.8157 154.916 59.7485C155.112 59.6813 155.33 59.6365 155.549 59.6365C155.963 59.6365 156.268 59.7485 156.508 59.9725C156.748 60.1965 156.857 60.5325 156.857 60.9357V62.2796C156.857 62.414 156.922 62.4812 157.031 62.4812V62.9515C156.988 62.9515 156.944 62.9739 156.922 62.9739C156.879 62.9739 156.857 62.9739 156.813 62.9739C156.726 62.9739 156.639 62.9515 156.551 62.9067C156.464 62.8619 156.421 62.7724 156.421 62.6604L156.399 62.4364C156.333 62.526 156.246 62.6156 156.159 62.7052C156.072 62.7724 155.963 62.8395 155.854 62.8843C155.745 62.9291 155.636 62.9739 155.527 62.9963C155.396 63.0635 155.287 63.0635 155.178 63.0635ZM155.309 62.6604C155.483 62.6604 155.636 62.6156 155.81 62.5484C155.963 62.4812 156.094 62.3916 156.203 62.2796C156.29 62.19 156.312 62.1004 156.312 62.0332V61.5404C156.181 61.4956 156.05 61.4508 155.919 61.4284C155.788 61.406 155.636 61.3836 155.505 61.3836C155.221 61.3836 155.003 61.4508 154.829 61.5628C154.655 61.6748 154.589 61.8316 154.589 62.0332C154.589 62.1228 154.611 62.19 154.633 62.2796C154.655 62.3468 154.72 62.414 154.764 62.4812C154.829 62.5484 154.894 62.5932 154.982 62.6156C155.091 62.638 155.2 62.6604 155.309 62.6604Z" fill="white"/>
</svg>
