<svg width="19" height="19" viewBox="0 0 19 19" fill="none" xmlns="http://www.w3.org/2000/svg">
<path d="M17.7951 0H0.741463C0.331341 0 0 0.329598 0 0.737561V17.7015C0 18.1094 0.331341 18.439 0.741463 18.439H17.7951C18.2052 18.439 18.5366 18.1094 18.5366 17.7015V0.737561C18.5366 0.329598 18.2052 0 17.7951 0ZM14.2569 6.67723C14.2639 6.78556 14.2639 6.8985 14.2639 7.00913C14.2639 10.3927 11.6734 14.2902 6.93963 14.2902C5.47988 14.2902 4.1267 13.8685 2.98671 13.1424C3.19524 13.1655 3.39451 13.1747 3.60768 13.1747C4.81256 13.1747 5.92012 12.769 6.80292 12.0822C5.67219 12.0591 4.72219 11.3216 4.3978 10.3074C4.79402 10.365 5.15085 10.365 5.55866 10.2613C4.97644 10.1437 4.45312 9.82911 4.07762 9.37114C3.70212 8.91316 3.49759 8.33999 3.49878 7.749V7.71673C3.83939 7.90804 4.24024 8.02559 4.65963 8.04172C4.30707 7.80799 4.01794 7.49134 3.81787 7.11984C3.61779 6.74834 3.51297 6.33347 3.51268 5.91201C3.51268 5.4349 3.6378 4.99928 3.86256 4.62128C4.5088 5.41263 5.3152 6.05985 6.22937 6.52088C7.14353 6.98191 8.14499 7.24643 9.16865 7.29724C8.80487 5.55706 10.1117 4.14878 11.6827 4.14878C12.4241 4.14878 13.0915 4.45763 13.5618 4.95549C14.1434 4.84716 14.6995 4.6305 15.1954 4.34009C15.003 4.93244 14.5999 5.4326 14.0646 5.74837C14.5837 5.69305 15.0841 5.55015 15.5476 5.34962C15.1977 5.86131 14.7597 6.31537 14.2569 6.67723Z" fill="black"/>
</svg>
