<svg width="20" height="17" viewBox="0 0 20 17" fill="none" xmlns="http://www.w3.org/2000/svg">
<path fill-rule="evenodd" clip-rule="evenodd" d="M17.4554 0.143374C17.6768 0.00998974 17.9413 -0.0324412 18.1934 0.0249836C18.4455 0.0824083 18.6655 0.235226 18.8074 0.451374L19.7974 1.96137C19.9267 2.15873 19.9821 2.39545 19.9537 2.62969C19.9253 2.86393 19.8151 3.08059 19.6424 3.24137L19.6394 3.24537L19.6254 3.25837L19.5684 3.31137L19.3434 3.52637C18.0983 4.73397 16.8911 5.9799 15.7234 7.26237C13.5264 9.67837 10.9174 12.8404 9.16136 15.9084C8.67136 16.7644 7.47436 16.9484 6.76436 16.2094L0.279362 9.47137C0.186428 9.37478 0.113862 9.26048 0.0659787 9.13528C0.0180956 9.01008 -0.00412753 8.87653 0.000630111 8.74257C0.00538775 8.60861 0.0370291 8.47697 0.0936734 8.35548C0.150318 8.234 0.230809 8.12514 0.330362 8.03537L2.29036 6.26737C2.4626 6.11209 2.68346 6.02149 2.91514 6.01109C3.14682 6.00069 3.3749 6.07114 3.56036 6.21037L6.86936 8.69137C12.0374 3.59437 14.9694 1.63837 17.4554 0.143374Z" fill="black"/>
</svg>
