<svg width="44" height="50" viewBox="0 0 44 50" fill="none" xmlns="http://www.w3.org/2000/svg">
<path d="M37.1934 37.1923L34.2233 40.13C32.0338 42.2769 29.1937 45.0394 25.7006 48.4174C24.6507 49.4325 23.2475 50 21.7871 50C20.3267 50 18.9235 49.4325 17.8736 48.4174L9.13822 39.9198C8.03723 38.8413 7.12141 37.933 6.38074 37.1923C3.33392 34.1453 1.25906 30.2632 0.418528 26.0369C-0.422004 21.8107 0.00954383 17.4301 1.6586 13.4492C3.30766 9.46819 6.10017 6.0656 9.683 3.67168C13.2658 1.27775 17.4781 0 21.7871 0C26.0961 0 30.3083 1.27775 33.8912 3.67168C37.474 6.0656 40.2665 9.46819 41.9156 13.4492C43.5646 17.4301 43.9962 21.8107 43.1557 26.0369C42.3151 30.2632 40.2403 34.1453 37.1934 37.1923ZM28.0427 22.4741C28.0427 20.815 27.3836 19.2239 26.2105 18.0507C25.0373 16.8775 23.4462 16.2185 21.7871 16.2185C20.128 16.2185 18.5369 16.8775 17.3637 18.0507C16.1905 19.2239 15.5315 20.815 15.5315 22.4741C15.5315 24.1332 16.1905 25.7243 17.3637 26.8975C18.5369 28.0706 20.128 28.7297 21.7871 28.7297C23.4462 28.7297 25.0373 28.0706 26.2105 26.8975C27.3836 25.7243 28.0427 24.1332 28.0427 22.4741Z" fill="black"/>
</svg>
