<?xml version="1.0" encoding="UTF-8"?>
<svg width="700pt" height="700pt" version="1.1" viewBox="0 0 700 700" xmlns="http://www.w3.org/2000/svg" xmlns:xlink="http://www.w3.org/1999/xlink">
 <defs>
  <symbol id="v" overflow="visible">
   <path d="m1.8281-0.10938c-0.09375 0.054688-0.19531 0.089844-0.29688 0.10938-0.09375 0.019531-0.19922 0.03125-0.3125 0.03125-0.33594 0-0.60156-0.085938-0.79688-0.26562-0.1875-0.1875-0.28125-0.44141-0.28125-0.76562 0-0.3125 0.09375-0.5625 0.28125-0.75 0.19531-0.1875 0.46094-0.28125 0.79688-0.28125 0.11328 0 0.21875 0.015625 0.3125 0.046875 0.10156 0.023437 0.20312 0.058594 0.29688 0.10938v0.40625c-0.09375-0.0625-0.1875-0.10938-0.28125-0.14062s-0.19531-0.046875-0.29688-0.046875c-0.17969 0-0.32031 0.0625-0.42188 0.1875-0.10547 0.11719-0.15625 0.27344-0.15625 0.46875 0 0.21094 0.050781 0.375 0.15625 0.5 0.10156 0.11719 0.24219 0.17188 0.42188 0.17188 0.10156 0 0.20312-0.015625 0.29688-0.046875s0.1875-0.078125 0.28125-0.14062z"/>
  </symbol>
  <symbol id="f" overflow="visible">
   <path d="m1.3438-1.0938c-0.042969-0.019531-0.085938-0.03125-0.125-0.03125-0.042969-0.007812-0.085938-0.015625-0.125-0.015625-0.125 0-0.22656 0.042969-0.29688 0.125-0.0625 0.074219-0.09375 0.18359-0.09375 0.32812v0.6875h-0.46875v-1.5h0.46875v0.25c0.0625-0.09375 0.12891-0.16016 0.20312-0.20312 0.082031-0.050781 0.17969-0.078125 0.29688-0.078125h0.046875c0.019531 0 0.050781 0.007812 0.09375 0.015625z"/>
  </symbol>
  <symbol id="a" overflow="visible">
   <path d="m1.7188-0.75v0.14062h-1.1094c0.007813 0.10547 0.046875 0.1875 0.10938 0.25 0.070312 0.054687 0.17188 0.078125 0.29688 0.078125 0.10156 0 0.20703-0.015625 0.3125-0.046875 0.10156-0.03125 0.21094-0.070313 0.32812-0.125v0.35938c-0.11719 0.042969-0.23047 0.074219-0.34375 0.09375-0.11719 0.019531-0.23047 0.03125-0.34375 0.03125-0.27344 0-0.48047-0.066406-0.625-0.20312-0.14844-0.13281-0.21875-0.32812-0.21875-0.57812 0-0.23828 0.070312-0.42578 0.21875-0.5625 0.14453-0.14453 0.34766-0.21875 0.60938-0.21875 0.22656 0 0.41016 0.074219 0.54688 0.21875 0.14453 0.13672 0.21875 0.32422 0.21875 0.5625zm-0.48438-0.15625c0-0.09375-0.027344-0.16406-0.078125-0.21875-0.054688-0.0625-0.125-0.09375-0.21875-0.09375-0.085938 0-0.15625 0.027344-0.21875 0.078125-0.0625 0.054687-0.10156 0.13281-0.10938 0.23438z"/>
  </symbol>
  <symbol id="e" overflow="visible">
   <path d="m0.90625-0.67188c-0.10547 0-0.18359 0.015625-0.23438 0.046875-0.054687 0.03125-0.078125 0.085938-0.078125 0.15625 0 0.0625 0.019531 0.10938 0.0625 0.14062 0.039062 0.03125 0.097656 0.046875 0.17188 0.046875 0.09375 0 0.16406-0.03125 0.21875-0.09375 0.0625-0.0625 0.09375-0.14453 0.09375-0.25v-0.046875zm0.71875-0.1875v0.85938h-0.48438v-0.21875c-0.0625 0.09375-0.13672 0.16406-0.21875 0.20312-0.074219 0.03125-0.16797 0.046875-0.28125 0.046875-0.15625 0-0.28125-0.039062-0.375-0.125-0.09375-0.09375-0.14062-0.21094-0.14062-0.35938 0-0.17578 0.054688-0.30078 0.17188-0.375 0.125-0.082031 0.3125-0.125 0.5625-0.125h0.28125v-0.046875c0-0.070312-0.03125-0.125-0.09375-0.15625-0.054687-0.039062-0.14062-0.0625-0.26562-0.0625-0.10547 0-0.20312 0.011719-0.29688 0.03125-0.085937 0.023438-0.16406 0.054688-0.23438 0.09375v-0.35938c0.10156-0.03125 0.20703-0.050781 0.3125-0.0625 0.10156-0.007813 0.20312-0.015625 0.29688-0.015625 0.26953 0 0.46094 0.054688 0.57812 0.15625 0.125 0.10547 0.1875 0.27734 0.1875 0.51562z"/>
  </symbol>
  <symbol id="d" overflow="visible">
   <path d="m0.75-1.9219v0.42188h0.5v0.34375h-0.5v0.64062c0 0.0625 0.007812 0.10938 0.03125 0.14062 0.03125 0.023438 0.085938 0.03125 0.17188 0.03125h0.25v0.34375h-0.40625c-0.1875 0-0.32422-0.035156-0.40625-0.10938-0.074219-0.082031-0.10938-0.21875-0.10938-0.40625v-0.64062h-0.25v-0.34375h0.25v-0.42188z"/>
  </symbol>
  <symbol id="k" overflow="visible">
   <path d="m1.25-1.2812v-0.79688h0.48438v2.0781h-0.48438v-0.21875c-0.074219 0.09375-0.15234 0.16406-0.23438 0.20312-0.074219 0.03125-0.16406 0.046875-0.26562 0.046875-0.17969 0-0.32812-0.070312-0.45312-0.21875-0.11719-0.14453-0.17188-0.33203-0.17188-0.5625 0-0.22656 0.054688-0.41406 0.17188-0.5625 0.125-0.14453 0.27344-0.21875 0.45312-0.21875 0.10156 0 0.19141 0.023438 0.26562 0.0625 0.082031 0.042969 0.16016 0.10547 0.23438 0.1875zm-0.3125 0.96875c0.09375 0 0.16406-0.035156 0.21875-0.10938 0.0625-0.070313 0.09375-0.17969 0.09375-0.32812 0-0.13281-0.03125-0.23828-0.09375-0.3125-0.054688-0.082031-0.125-0.125-0.21875-0.125-0.10547 0-0.18359 0.042969-0.23438 0.125-0.054687 0.074219-0.078125 0.17969-0.078125 0.3125 0 0.14844 0.023438 0.25781 0.078125 0.32812 0.050781 0.074219 0.12891 0.10938 0.23438 0.10938z"/>
  </symbol>
  <symbol id="j" overflow="visible">
   <path d="m1.0312-0.3125c0.09375 0 0.16406-0.035156 0.21875-0.10938 0.0625-0.070313 0.09375-0.17969 0.09375-0.32812 0-0.13281-0.03125-0.23828-0.09375-0.3125-0.054688-0.082031-0.125-0.125-0.21875-0.125-0.10547 0-0.1875 0.042969-0.25 0.125-0.054688 0.074219-0.078125 0.17969-0.078125 0.3125 0 0.14844 0.023437 0.25781 0.078125 0.32812 0.0625 0.074219 0.14453 0.10938 0.25 0.10938zm-0.32812-0.96875c0.070313-0.082031 0.14453-0.14453 0.21875-0.1875 0.082031-0.039062 0.17578-0.0625 0.28125-0.0625 0.1875 0 0.33594 0.074219 0.45312 0.21875 0.11328 0.14844 0.17188 0.33594 0.17188 0.5625 0 0.23047-0.058594 0.41797-0.17188 0.5625-0.11719 0.14844-0.26562 0.21875-0.45312 0.21875-0.10547 0-0.19922-0.015625-0.28125-0.046875-0.074219-0.039062-0.14844-0.10938-0.21875-0.20312v0.21875h-0.46875v-2.0781h0.46875z"/>
  </symbol>
  <symbol id="i" overflow="visible">
   <path d="m0.03125-1.5h0.48438l0.39062 1.0156 0.34375-1.0156h0.48438l-0.625 1.6406c-0.0625 0.16406-0.14062 0.28125-0.23438 0.34375-0.085938 0.070313-0.19531 0.10938-0.32812 0.10938h-0.26562v-0.3125h0.14062c0.082031 0 0.14062-0.015625 0.17188-0.046875 0.039062-0.023437 0.070312-0.070313 0.09375-0.14062l0.015625-0.03125z"/>
  </symbol>
  <symbol id="c" overflow="visible">
   <path d="m1.3906-1.4531v0.375c-0.09375-0.050781-0.19531-0.085937-0.29688-0.10938-0.09375-0.019531-0.18359-0.03125-0.26562-0.03125-0.085937 0-0.15234 0.015625-0.20312 0.046875-0.042969 0.023437-0.0625 0.054687-0.0625 0.09375 0 0.042969 0.015625 0.074219 0.046875 0.09375 0.03125 0.023437 0.09375 0.039063 0.1875 0.046875l0.078125 0.015625c0.25 0.03125 0.41406 0.085937 0.5 0.15625 0.082031 0.0625 0.125 0.17188 0.125 0.32812s-0.0625 0.27734-0.1875 0.35938c-0.11719 0.074219-0.28906 0.10938-0.51562 0.10938-0.10547 0-0.21094-0.011719-0.3125-0.03125-0.10547-0.0078125-0.21094-0.03125-0.3125-0.0625v-0.35938c0.09375 0.054687 0.1875 0.089844 0.28125 0.10938 0.10156 0.023438 0.20703 0.03125 0.3125 0.03125 0.09375 0 0.16016-0.007812 0.20312-0.03125 0.050781-0.03125 0.078125-0.070312 0.078125-0.125 0-0.039062-0.015625-0.070312-0.046875-0.09375-0.03125-0.019531-0.10156-0.035156-0.20312-0.046875l-0.078125-0.015625c-0.21875-0.019531-0.37109-0.066406-0.45312-0.14062-0.085937-0.070313-0.125-0.17969-0.125-0.32812 0-0.15625 0.050781-0.26953 0.15625-0.34375 0.11328-0.082031 0.28125-0.125 0.5-0.125 0.09375 0 0.1875 0.011719 0.28125 0.03125 0.10156 0.011719 0.20703 0.027344 0.3125 0.046875z"/>
  </symbol>
  <symbol id="b" overflow="visible">
   <path d="m1.7344-0.90625v0.90625h-0.48438v-0.6875c0-0.13281-0.007812-0.22266-0.015625-0.26562 0-0.050781-0.007813-0.09375-0.015625-0.125-0.023438-0.03125-0.046875-0.050781-0.078125-0.0625-0.03125-0.019531-0.070313-0.03125-0.10938-0.03125-0.10547 0-0.1875 0.042969-0.25 0.125-0.054688 0.074219-0.078125 0.17969-0.078125 0.3125v0.73438h-0.46875v-2.0781h0.46875v0.79688c0.070313-0.082031 0.14844-0.14453 0.23438-0.1875 0.082031-0.039062 0.17188-0.0625 0.26562-0.0625 0.17578 0 0.30469 0.054688 0.39062 0.15625 0.09375 0.10547 0.14062 0.26172 0.14062 0.46875z"/>
  </symbol>
  <symbol id="h" overflow="visible">
   <path d="m1.7344-0.90625v0.90625h-0.48438v-0.70312c0-0.125-0.007812-0.20703-0.015625-0.25 0-0.050781-0.007813-0.09375-0.015625-0.125-0.023438-0.03125-0.046875-0.050781-0.078125-0.0625-0.03125-0.019531-0.070313-0.03125-0.10938-0.03125-0.10547 0-0.1875 0.042969-0.25 0.125-0.054688 0.074219-0.078125 0.17969-0.078125 0.3125v0.73438h-0.46875v-1.5h0.46875v0.21875c0.070313-0.082031 0.14844-0.14453 0.23438-0.1875 0.082031-0.039062 0.17188-0.0625 0.26562-0.0625 0.17578 0 0.30469 0.054688 0.39062 0.15625 0.09375 0.10547 0.14062 0.26172 0.14062 0.46875z"/>
  </symbol>
  <symbol id="u" overflow="visible">
   <path d="m0.23438-2.0781h0.46875v1.125l0.54688-0.54688h0.5625l-0.73438 0.6875 0.79688 0.8125h-0.57812l-0.59375-0.625v0.625h-0.46875z"/>
  </symbol>
  <symbol id="t" overflow="visible">
   <path d="m0.23438-1.5h0.46875v1.5h-0.46875zm0-0.57812h0.46875v0.39062h-0.46875z"/>
  </symbol>
  <symbol id="s" overflow="visible">
   <path d="m1.25-0.25c-0.074219 0.085938-0.15234 0.14844-0.23438 0.1875-0.074219 0.042969-0.16406 0.0625-0.26562 0.0625-0.17969 0-0.32812-0.070312-0.45312-0.21875-0.11719-0.14453-0.17188-0.32812-0.17188-0.54688s0.054688-0.39844 0.17188-0.54688c0.125-0.14453 0.27344-0.21875 0.45312-0.21875 0.10156 0 0.19141 0.023438 0.26562 0.0625 0.082031 0.042969 0.16016 0.10547 0.23438 0.1875v-0.21875h0.48438v1.3438c0 0.23828-0.078125 0.42188-0.23438 0.54688-0.15625 0.13281-0.375 0.20312-0.65625 0.20312-0.09375 0-0.1875-0.011719-0.28125-0.03125-0.085938-0.011719-0.16797-0.03125-0.25-0.0625v-0.375c0.082031 0.050781 0.16016 0.085938 0.23438 0.10938 0.082031 0.03125 0.16406 0.046875 0.25 0.046875 0.15625 0 0.26953-0.039062 0.34375-0.10938 0.070313-0.074219 0.10938-0.17969 0.10938-0.32812zm-0.3125-0.9375c-0.10547 0-0.18359 0.039062-0.23438 0.10938-0.054687 0.074219-0.078125 0.17969-0.078125 0.3125 0 0.13672 0.023438 0.24219 0.078125 0.3125 0.050781 0.074219 0.12891 0.10938 0.23438 0.10938 0.09375 0 0.16406-0.035156 0.21875-0.10938 0.0625-0.070313 0.09375-0.17578 0.09375-0.3125 0-0.13281-0.03125-0.23828-0.09375-0.3125-0.054688-0.070313-0.125-0.10938-0.21875-0.10938z"/>
  </symbol>
  <symbol id="r" overflow="visible">
   <path d="m1.2188-2.0781v0.3125h-0.26562c-0.074219 0-0.125 0.015625-0.15625 0.046875-0.023437 0.023438-0.03125 0.0625-0.03125 0.125v0.09375h0.40625v0.34375h-0.40625v1.1562h-0.46875v-1.1562h-0.25v-0.34375h0.25v-0.09375c0-0.16406 0.039063-0.28516 0.125-0.35938 0.09375-0.082031 0.23438-0.125 0.42188-0.125z"/>
  </symbol>
  <symbol id="g" overflow="visible">
   <path d="m0.9375-1.1875c-0.10547 0-0.1875 0.039062-0.25 0.10938-0.054688 0.074219-0.078125 0.18359-0.078125 0.32812 0 0.14844 0.023437 0.26172 0.078125 0.34375 0.0625 0.074219 0.14453 0.10938 0.25 0.10938 0.10156 0 0.17969-0.035156 0.23438-0.10938 0.0625-0.082031 0.09375-0.19531 0.09375-0.34375 0-0.14453-0.03125-0.25391-0.09375-0.32812-0.054687-0.070313-0.13281-0.10938-0.23438-0.10938zm0-0.34375c0.25781 0 0.46094 0.074219 0.60938 0.21875 0.14453 0.13672 0.21875 0.32422 0.21875 0.5625 0 0.25-0.074219 0.44531-0.21875 0.57812-0.14844 0.13672-0.35156 0.20312-0.60938 0.20312-0.26172 0-0.46484-0.066406-0.60938-0.20312-0.13672-0.13281-0.20312-0.32812-0.20312-0.57812 0-0.23828 0.066406-0.42578 0.20312-0.5625 0.14453-0.14453 0.34766-0.21875 0.60938-0.21875z"/>
  </symbol>
  <symbol id="q" overflow="visible">
   <path d="m1.6094-1.25c0.0625-0.09375 0.13281-0.16016 0.21875-0.20312 0.082031-0.050781 0.17578-0.078125 0.28125-0.078125 0.16406 0 0.29688 0.054688 0.39062 0.15625 0.09375 0.10547 0.14062 0.26172 0.14062 0.46875v0.90625h-0.48438v-0.78125-0.03125-0.0625c0-0.10156-0.015625-0.17578-0.046875-0.21875-0.03125-0.050781-0.085937-0.078125-0.15625-0.078125-0.085937 0-0.15234 0.039063-0.20312 0.10938-0.054688 0.074219-0.078125 0.18359-0.078125 0.32812v0.73438h-0.48438v-0.78125c0-0.16406-0.015625-0.26953-0.046875-0.3125-0.023437-0.050781-0.070313-0.078125-0.14062-0.078125-0.09375 0-0.16797 0.042969-0.21875 0.125-0.054688 0.074219-0.078125 0.17969-0.078125 0.3125v0.73438h-0.46875v-1.5h0.46875v0.21875c0.0625-0.082031 0.12891-0.14453 0.20312-0.1875 0.082031-0.039062 0.16406-0.0625 0.25-0.0625 0.10156 0 0.19141 0.027344 0.26562 0.078125 0.082031 0.054687 0.14453 0.12109 0.1875 0.20312z"/>
  </symbol>
  <symbol id="p" overflow="visible">
   <path d="m0.25-2h0.57812l0.71875 1.375v-1.375h0.48438v2h-0.5625l-0.73438-1.375v1.375h-0.48438z"/>
  </symbol>
  <symbol id="o" overflow="visible">
   <path d="m0.21875-0.57812v-0.92188h0.46875v0.15625 0.3125 0.23438 0.26562c0.007812 0.054688 0.023438 0.089844 0.046875 0.10938 0.019531 0.03125 0.046875 0.058594 0.078125 0.078125 0.03125 0.011719 0.066406 0.015625 0.10938 0.015625 0.09375 0 0.16406-0.035156 0.21875-0.10938 0.0625-0.070312 0.09375-0.17578 0.09375-0.3125v-0.75h0.48438v1.5h-0.48438v-0.21875c-0.074219 0.09375-0.15234 0.16406-0.23438 0.20312-0.074219 0.03125-0.15625 0.046875-0.25 0.046875-0.17969 0-0.3125-0.050781-0.40625-0.15625-0.085938-0.10156-0.125-0.25391-0.125-0.45312z"/>
  </symbol>
  <symbol id="n" overflow="visible">
   <path d="m0.25-2h0.85938c0.25 0 0.44141 0.058594 0.57812 0.17188 0.13281 0.11719 0.20312 0.27734 0.20312 0.48438 0 0.21094-0.070313 0.37109-0.20312 0.48438-0.13672 0.11719-0.32812 0.17188-0.57812 0.17188h-0.34375v0.6875h-0.51562zm0.51562 0.375v0.5625h0.28125c0.10156 0 0.17969-0.019531 0.23438-0.0625 0.050781-0.050781 0.078125-0.125 0.078125-0.21875s-0.027344-0.16016-0.078125-0.20312c-0.054688-0.050781-0.13281-0.078125-0.23438-0.078125z"/>
  </symbol>
  <symbol id="m" overflow="visible">
   <path d="m0.23438-1.5h0.46875v1.4688c0 0.20703-0.046875 0.36328-0.14062 0.46875-0.09375 0.10156-0.23438 0.15625-0.42188 0.15625h-0.23438v-0.3125h0.078125c0.09375 0 0.15625-0.023438 0.1875-0.0625 0.039063-0.042969 0.0625-0.125 0.0625-0.25zm0-0.57812h0.46875v0.39062h-0.46875z"/>
  </symbol>
  <symbol id="l" overflow="visible">
   <path d="m1.4375-1.4531v0.39062c-0.0625-0.039062-0.13281-0.070312-0.20312-0.09375-0.0625-0.019531-0.13281-0.03125-0.20312-0.03125-0.125 0-0.23047 0.042969-0.3125 0.125-0.074219 0.074219-0.10938 0.17969-0.10938 0.3125 0 0.14844 0.035156 0.26172 0.10938 0.34375 0.082031 0.074219 0.1875 0.10938 0.3125 0.10938 0.082031 0 0.15625-0.007813 0.21875-0.03125 0.070312-0.03125 0.13281-0.066406 0.1875-0.10938v0.39062c-0.074219 0.03125-0.15234 0.050781-0.23438 0.0625-0.074219 0.0078125-0.14844 0.015625-0.21875 0.015625-0.27344 0-0.48438-0.066406-0.64062-0.20312-0.14844-0.13281-0.21875-0.32812-0.21875-0.57812 0-0.23828 0.070312-0.42578 0.21875-0.5625 0.15625-0.14453 0.36719-0.21875 0.64062-0.21875 0.070313 0 0.14453 0.011719 0.21875 0.03125 0.082031 0.011719 0.16016 0.027344 0.23438 0.046875z"/>
  </symbol>
 </defs>
 <g>
  <path d="m333.32 196.77c0 4.0469-0.27344 8.0938-0.82031 12.141 0.21875-1.4766 0.38281-2.8984 0.60156-4.375-1.0938 7.5469-3.0625 14.93-6.0156 21.984 0.54687-1.3125 1.0938-2.625 1.6406-3.9375-2.1875 5.1953-4.8672 10.227-7.9844 14.93-0.82031 1.2031-1.6406 2.3516-2.4609 3.5-1.6406 2.2969 0.98438-0.92969 1.0391-1.3125-0.10937 0.49219-0.98437 1.2578-1.3672 1.6953-1.8047 2.1875-3.7734 4.3203-5.7969 6.3438-1.9141 1.9141-3.9922 3.7734-6.0703 5.5234-0.54688 0.4375-1.0938 0.875-1.6953 1.3672-1.4766 1.2031 3.3906-2.5156 1.3125-1.0391-1.1484 0.82031-2.2969 1.6953-3.5 2.4609-4.8125 3.2266-9.8984 5.9609-15.203 8.2031l3.9375-1.6406c-7.0547 2.8984-14.438 4.9219-21.984 6.0156 1.4766-0.21875 2.8984-0.38281 4.375-0.60156-8.0938 1.0938-16.188 1.0938-24.281 0 1.4766 0.21875 2.8984 0.38281 4.375 0.60156-7.5469-1.0938-14.93-3.0625-21.984-6.0156l3.9375 1.6406c-5.1953-2.1875-10.227-4.8672-14.93-7.9844-1.2031-0.82031-2.3516-1.6406-3.5-2.4609-2.2969-1.6406 0.92969 0.98437 1.3125 1.0391-0.49219-0.10938-1.2578-0.98438-1.6953-1.3672-2.1875-1.8047-4.3203-3.7734-6.3438-5.7969-1.9141-1.9141-3.7734-3.9922-5.5234-6.0703-0.4375-0.54688-0.875-1.0938-1.3672-1.6953-1.2031-1.4766 2.5156 3.3906 1.0391 1.3125-0.82031-1.1484-1.6953-2.2969-2.4609-3.5-3.2266-4.8125-5.9609-9.8984-8.2031-15.203l1.6406 3.9375c-2.8984-7.0547-4.9219-14.438-6.0156-21.984 0.21875 1.4766 0.38281 2.8984 0.60156 4.375-1.0938-8.0938-1.0938-16.188 0-24.281-0.21875 1.4766-0.38281 2.8984-0.60156 4.375 1.0938-7.5469 3.0625-14.93 6.0156-21.984l-1.6406 3.9375c2.1875-5.1953 4.8672-10.227 7.9844-14.93 0.82031-1.2031 1.6406-2.3516 2.4609-3.5 1.6406-2.2969-0.98438 0.92969-1.0391 1.3125 0.10938-0.49219 0.98438-1.2578 1.3672-1.6953 1.8047-2.1875 3.7734-4.3203 5.7969-6.3438 1.9141-1.9141 3.9922-3.7734 6.0703-5.5234 0.54688-0.4375 1.0938-0.875 1.6953-1.3672 1.4766-1.2031-3.3906 2.5156-1.3125 1.0391 1.1484-0.82031 2.2969-1.6953 3.5-2.4609 4.8125-3.2266 9.8984-5.9609 15.203-8.2031-1.3125 0.54688-2.625 1.0938-3.9375 1.6406 7.0547-2.8984 14.438-4.9219 21.984-6.0156-1.4766 0.21875-2.8984 0.38281-4.375 0.60156 8.0938-1.0938 16.188-1.0938 24.281 0-1.4766-0.21875-2.8984-0.38281-4.375-0.60156 7.5469 1.0938 14.93 3.0625 21.984 6.0156-1.3125-0.54688-2.625-1.0938-3.9375-1.6406 5.1953 2.1875 10.227 4.8672 14.93 7.9844 1.2031 0.82031 2.3516 1.6406 3.5 2.4609 2.2969 1.6406-0.92969-0.98438-1.3125-1.0391 0.49219 0.10938 1.2578 0.98438 1.6953 1.3672 2.1875 1.8047 4.3203 3.7734 6.3438 5.7969 1.9141 1.9141 3.7734 3.9922 5.5234 6.0703 0.4375 0.54687 0.875 1.0938 1.3672 1.6953 1.2031 1.4766-2.5156-3.3906-1.0391-1.3125 0.82031 1.1484 1.6953 2.2969 2.4609 3.5 3.2266 4.8125 5.9609 9.8984 8.2031 15.203-0.54687-1.3125-1.0938-2.625-1.6406-3.9375 2.8984 7.0547 4.9219 14.438 6.0156 21.984-0.21875-1.4766-0.38281-2.8984-0.60156-4.375 0.49219 4.0469 0.76562 8.0938 0.82031 12.141 0.054688 8.5859 7.5469 16.789 16.406 16.406 8.8594-0.38281 16.461-7.2188 16.406-16.406-0.10937-21.164-6.4531-42.711-18.922-59.992-12.906-17.938-30.188-31.172-50.914-38.883-39.922-14.766-87.992-1.8594-115.06 31.008-14.438 17.555-22.969 38.281-24.719 60.977-1.6406 21 3.7734 42.875 14.656 60.867 10.664 17.609 26.742 32.594 45.609 41.016 20.945 9.4062 43.477 12.141 66.062 7.6562 41.016-8.0938 75.25-43.258 81.648-84.656 0.92969-5.9609 1.5859-11.922 1.6406-17.992 0.054688-8.5859-7.5469-16.789-16.406-16.406-8.9688 0.4375-16.406 7.2188-16.406 16.406z"/>
  <path d="m404.2 375.92v65.461c0 3.9922 0.16406 8.0391-0.27344 12.031 0.21875-1.4766 0.38281-2.8984 0.60156-4.375-0.4375 2.8984-1.1484 5.7422-2.2422 8.4766l1.6406-3.9375c-0.82031 1.9688-1.8047 3.8828-3.0078 5.6875-0.27344 0.38281-0.54687 0.76562-0.82031 1.2031-1.4219 2.1328 2.3516-2.7344 1.0391-1.3672-0.71094 0.76563-1.3672 1.5859-2.1328 2.3516-0.65625 0.65625-1.4219 1.2578-2.0781 1.9141-2.0234 1.8594 2.7344-1.9141 1.3672-1.0391-0.38281 0.27344-0.76562 0.54688-1.1484 0.82031-1.9141 1.2578-3.8828 2.2969-6.0156 3.1719 1.3125-0.54687 2.625-1.0938 3.9375-1.6406-2.7344 1.0938-5.5234 1.8594-8.4766 2.2422 1.4766-0.21875 2.8984-0.38281 4.375-0.60156-3.4453 0.4375-6.8906 0.27344-10.336 0.27344h-17.828-60.375-73.609-63.219c-9.7891 0-19.523 0.054688-29.312 0-1.5859 0-3.1172-0.10938-4.7031-0.27344 1.4766 0.21875 2.8984 0.38281 4.375 0.60156-2.8984-0.4375-5.7422-1.1484-8.4766-2.2422 1.3125 0.54687 2.625 1.0938 3.9375 1.6406-1.9688-0.82031-3.8828-1.8047-5.6875-3.0078-0.38281-0.27344-0.76562-0.54688-1.2031-0.82031-2.1328-1.4219 2.7344 2.3516 1.3672 1.0391-0.76562-0.71094-1.5859-1.3672-2.3516-2.1328-0.65625-0.65625-1.2578-1.4219-1.9141-2.0781-1.8594-2.0234 1.9141 2.7344 1.0391 1.3672-0.27344-0.38281-0.54687-0.76562-0.82031-1.1484-1.2578-1.9141-2.2969-3.8828-3.1719-6.0156l1.6406 3.9375c-1.0938-2.7344-1.8594-5.5234-2.2422-8.4766 0.21875 1.4766 0.38281 2.8984 0.60156 4.375-0.4375-3.7734-0.27344-7.6016-0.27344-11.375v-19.414-41.727c0-6.4531 0.10937-12.906 0.92969-19.359-0.21875 1.4766-0.38281 2.8984-0.60156 4.375 1.3125-9.5156 3.8281-18.812 7.4922-27.727l-1.6406 3.9375c1.9688-4.7031 4.2656-9.2969 6.8906-13.672 1.3125-2.1875 2.6797-4.3203 4.1562-6.3984 0.71094-0.98438 1.4219-1.9688 2.1328-2.8984 1.5859-2.1328-2.0781 2.625-0.875 1.0938 0.4375-0.54687 0.82031-1.0391 1.2578-1.5859 3.1172-3.8281 6.5078-7.4375 10.117-10.773 1.8594-1.75 3.7734-3.3906 5.7422-4.9766 0.54688-0.4375 2.5156-1.9688 0.21875-0.21875-2.4062 1.8594-0.16406 0.10938 0.27344-0.16406 1.0938-0.82031 2.1875-1.5859 3.2812-2.3516-6.6172-0.875-13.234-1.6953-19.906-2.5703 22.422 27.945 55.289 48.125 90.453 55.289 37.789 7.7109 77.438 1.9688 111.18-16.844 17.391-9.7344 33.141-22.914 45.555-38.445-6.6172 0.875-13.234 1.6953-19.906 2.5703l3.2812 2.2969c0.4375 0.32812 0.875 0.65625 1.2578 0.98438-3.9922-2.9531-2.0234-1.5312-1.0938-0.82031 1.9688 1.5859 3.8828 3.2266 5.7422 4.9766 3.7188 3.4453 7.1641 7.1094 10.391 11.047 0.32813 0.4375 0.65625 0.82031 0.98438 1.2578 1.9141 2.3516-1.9141-2.5703-0.875-1.0938 0.71094 0.98437 1.4219 1.9141 2.1328 2.8984 1.4766 2.0781 2.8438 4.2109 4.1562 6.3984 2.7344 4.4844 5.0859 9.1875 7.1094 14l-1.6406-3.9375c3.7188 8.9141 6.1797 18.211 7.4922 27.727-0.21875-1.4766-0.38281-2.8984-0.60156-4.375 0.38281 4.8125 0.71094 9.625 0.71094 14.438 0.054688 8.5859 7.5469 16.789 16.406 16.406 8.8594-0.38281 16.461-7.2188 16.406-16.406-0.10937-32.211-12.633-63.438-34.891-86.789-6.1797-6.5078-13.234-12.195-20.617-17.281-5.4141-3.7188-15.641-2.7344-19.906 2.5703-3.6641 4.5938-7.6016 8.9688-11.812 13.07-2.0234 2.0234-4.1562 3.9375-6.3438 5.8516-1.1484 0.98438-2.2969 1.9688-3.4453 2.8984-0.54688 0.4375-1.0938 0.875-1.5859 1.2578-2.4609 1.9688 3.2812-2.4609 0.71094-0.54688-9.5703 7.0547-19.688 13.016-30.625 17.664 1.3125-0.54688 2.625-1.0938 3.9375-1.6406-11.703 4.9219-23.953 8.2031-36.531 9.9531 1.4766-0.21875 2.8984-0.38281 4.375-0.60156-12.688 1.6406-25.539 1.6406-38.227 0 1.4766 0.21875 2.8984 0.38281 4.375 0.60156-12.578-1.6953-24.828-5.0312-36.531-9.9531 1.3125 0.54688 2.625 1.0938 3.9375 1.6406-10.883-4.6484-21.164-10.609-30.625-17.664-2.1875-1.6406 2.5703 2.0234 1.0391 0.82031-0.54688-0.4375-1.0938-0.875-1.5859-1.2578-1.1484-0.92969-2.2969-1.9141-3.4453-2.8984-2.1875-1.8594-4.2656-3.8281-6.3438-5.7969-4.3203-4.2109-8.3125-8.6406-12.086-13.344-2.1875-2.7344-6.1797-4.1016-9.4062-4.5391-3.3906-0.4375-7.5469-0.054688-10.445 1.9688-16.789 11.648-31.117 26.797-40.688 44.953-9.625 18.211-14.766 38.555-14.82 59.172-0.054687 18.32 0 36.641 0 55.016 0 6.6172-0.32812 13.289 0.054687 19.852 1.2031 22.258 17.062 43.039 39.484 47.469 10.664 2.1328 22.094 1.2578 32.922 1.2578h58.57 72.68 63.984 32.484c14.766 0 29.695-6.125 39.156-17.719 7.6016-9.3516 12.031-20.344 12.25-32.484 0.054688-1.8594 0-3.7734 0-5.6328v-62.453-5.25c0-8.5859-7.5469-16.789-16.406-16.406-8.9141 0.27344-16.406 7.0547-16.406 16.242z"/>
  <path d="m523.58 149.41c0 3.2812-0.21875 6.5625-0.65625 9.8438 0.21875-1.4766 0.38281-2.8984 0.60156-4.375-0.875 6.3438-2.5703 12.469-4.9766 18.375l1.6406-3.9375c-1.8047 4.2109-3.9375 8.2031-6.4531 12.031-0.65625 0.98438-1.3672 1.9688-2.0234 2.9531-1.4766 2.0781 2.2969-2.7891 1.0391-1.3125-0.38281 0.4375-0.76562 0.92969-1.1484 1.3672-1.4219 1.75-2.9531 3.3906-4.5391 4.9766s-3.2812 3.1172-4.9766 4.5391c-0.38281 0.32812-0.76563 0.60156-1.0938 0.875-2.1875 1.8047 2.7344-2.0234 1.3672-1.0391-0.98438 0.65625-1.9141 1.4219-2.8984 2.0781-3.8828 2.625-8.0391 4.8125-12.305 6.6172 1.3125-0.54688 2.625-1.0938 3.9375-1.6406-5.9062 2.4609-12.031 4.1016-18.375 4.9766 1.4766-0.21875 2.8984-0.38281 4.375-0.60156-6.5625 0.82031-13.125 0.82031-19.633 0 1.4766 0.21875 2.8984 0.38281 4.375 0.60156-6.3438-0.875-12.469-2.5703-18.375-4.9766 1.3125 0.54688 2.625 1.0938 3.9375 1.6406-4.2109-1.8047-8.2031-3.9375-12.031-6.4531-0.98438-0.65625-1.9688-1.3672-2.9531-2.0234-2.0781-1.4766 2.7891 2.2969 1.3125 1.0391-0.4375-0.38281-0.92969-0.76563-1.3672-1.1484-1.75-1.4219-3.3906-2.9531-4.9766-4.5391-1.5859-1.5859-3.1172-3.2812-4.5391-4.9766-0.32812-0.38281-0.60156-0.76562-0.875-1.0938-1.8047-2.1875 2.0234 2.7344 1.0391 1.3672-0.65625-0.98437-1.4219-1.9141-2.0781-2.8984-2.625-3.8828-4.8125-8.0391-6.6172-12.305l1.6406 3.9375c-2.4609-5.9062-4.1016-12.031-4.9766-18.375 0.21875 1.4766 0.38281 2.8984 0.60156 4.375-0.82031-6.5625-0.82031-13.125 0-19.633-0.21875 1.4766-0.38281 2.8984-0.60156 4.375 0.875-6.3438 2.5703-12.469 4.9766-18.375l-1.6406 3.9375c1.8047-4.2109 3.9375-8.2031 6.4531-12.031 0.65625-0.98438 1.3672-1.9688 2.0234-2.9531 1.4766-2.0781-2.2969 2.7891-1.0391 1.3125 0.38281-0.4375 0.76562-0.92969 1.1484-1.3672 1.4219-1.75 2.9531-3.3906 4.5391-4.9766s3.2812-3.1172 4.9766-4.5391c0.38281-0.32813 0.76563-0.60156 1.0938-0.875 2.1875-1.8047-2.7344 2.0234-1.3672 1.0391 0.98438-0.65625 1.9141-1.4219 2.8984-2.0781 3.8828-2.625 8.0391-4.8125 12.305-6.6172-1.3125 0.54687-2.625 1.0938-3.9375 1.6406 5.9062-2.4609 12.031-4.1016 18.375-4.9766-1.4766 0.21875-2.8984 0.38281-4.375 0.60156 6.5625-0.82031 13.125-0.82031 19.633 0-1.4766-0.21875-2.8984-0.38281-4.375-0.60156 6.3438 0.875 12.469 2.5703 18.375 4.9766-1.3125-0.54687-2.625-1.0938-3.9375-1.6406 4.2109 1.8047 8.2031 3.9375 12.031 6.4531 0.98438 0.65625 1.9688 1.3672 2.9531 2.0234 2.0781 1.4766-2.7891-2.2969-1.3125-1.0391 0.4375 0.38281 0.92969 0.76562 1.3672 1.1484 1.75 1.4219 3.3906 2.9531 4.9766 4.5391 1.5859 1.5859 3.1172 3.2812 4.5391 4.9766 0.32812 0.38281 0.60156 0.76562 0.875 1.0938 1.8047 2.1875-2.0234-2.7344-1.0391-1.3672 0.65625 0.98438 1.4219 1.9141 2.0781 2.8984 2.625 3.8828 4.8125 8.0391 6.6172 12.305l-1.6406-3.9375c2.4609 5.9062 4.1016 12.031 4.9766 18.375-0.21875-1.4766-0.38281-2.8984-0.60156-4.375 0.38281 3.2266 0.60156 6.5078 0.65625 9.7891 0.054687 8.5859 7.4922 16.789 16.406 16.406 8.8594-0.38281 16.461-7.2188 16.406-16.406-0.10938-17.938-5.4141-36.258-15.969-50.859-11.156-15.477-25.922-26.797-43.805-33.359-33.742-12.414-74.648-1.3672-97.453 26.359-12.305 14.984-19.523 32.43-21.109 51.789-1.4766 17.992 3.2266 36.805 12.578 52.172 8.9688 14.766 22.531 27.453 38.336 34.562 18.047 8.0938 37.297 10.5 56.766 6.6172 34.617-6.8359 63.82-36.695 69.234-71.641 0.82031-5.1953 1.4219-10.391 1.4766-15.695 0.054688-8.5859-7.6016-16.789-16.406-16.406-9.0234 0.49219-16.461 7.2734-16.461 16.461z"/>
  <path d="m418.96 274.8c41.125 16.242 90.672 10.062 126.27-16.242 9.5156-7 18.211-14.82 25.648-24.062-6.6172 0.875-13.234 1.6953-19.906 2.5703 0.875 0.60156 1.75 1.2578 2.625 1.8594 2.2969 1.6406-3.4453-2.7891-0.16406-0.10938 1.6406 1.3672 3.2812 2.7344 4.8125 4.2109 2.8984 2.7344 5.6328 5.6328 8.2031 8.75 2.6797 3.2812-1.75-2.4609-0.10938-0.16406 0.60156 0.875 1.2578 1.6953 1.8594 2.625 1.0391 1.5312 2.0781 3.1172 3.0625 4.7031 2.2422 3.6641 4.1562 7.5469 5.8516 11.484-0.54688-1.3125-1.0938-2.625-1.6406-3.9375 3.0625 7.3828 5.1406 15.039 6.2344 22.969-0.21875-1.4766-0.38281-2.8984-0.60156-4.375 1.2031 9.5703 0.76562 19.305 0.76562 28.93v35.875c0 3.6094 0.16406 7.3281-0.27344 10.883 0.21875-1.4766 0.38281-2.8984 0.60156-4.375-0.38281 2.4062-0.98438 4.7578-1.9141 7.0547 0.54688-1.3125 1.0938-2.625 1.6406-3.9375-0.65625 1.5312-1.4219 3.0078-2.3516 4.4297-2.1328 3.3359 2.2422-2.4609 0.4375-0.4375-0.54688 0.60156-1.0938 1.2578-1.6953 1.8047-0.60156 0.60156-1.2031 1.1484-1.8047 1.6953-2.0781 1.8594 3.7188-2.4062 0.76562-0.65625-1.5312 0.92969-3.0625 1.8047-4.7031 2.5156 1.3125-0.54688 2.625-1.0938 3.9375-1.6406-2.2969 0.92969-4.5938 1.5312-7.0547 1.9141 1.4766-0.21875 2.8984-0.38281 4.375-0.60156-3.9922 0.49219-8.1484 0.27344-12.141 0.27344h-23.133-54.25-12.578c-8.5859 0-16.789 7.5469-16.406 16.406 0.38281 8.9141 7.2188 16.406 16.406 16.406h41.016 53.867 3.5c10.992-0.10938 20.727-4.1016 29.148-10.938 7.1641-5.7969 12.688-14.984 14.383-24.062 0.76562-4.2109 1.0938-8.3125 1.0938-12.523v-53.867c0-12.469-1.3672-24.992-5.4141-36.805-5.9062-17.227-15.914-33.141-29.586-45.227-3.8281-3.3906-7.9297-6.5625-12.141-9.4609-5.4141-3.7188-15.641-2.7344-19.906 2.5703-3.0078 3.7188-6.1797 7.2734-9.5703 10.609-1.75 1.6953-3.5547 3.3906-5.4141 4.9766-0.92969 0.82031-1.8594 1.5859-2.7891 2.3516-0.4375 0.32812-0.875 0.65625-1.2578 1.0391-2.0781 1.6953 2.625-1.9688 1.0391-0.82031-7.875 5.7969-16.242 10.719-25.266 14.547l3.9375-1.6406c-9.625 3.9922-19.688 6.7266-30.023 8.1484 1.4766-0.21875 2.8984-0.38281 4.375-0.60156-10.555 1.3672-21.219 1.3125-31.828-0.054687 1.4766 0.21875 2.8984 0.38281 4.375 0.60156-9.4609-1.3125-18.648-3.7734-27.562-7.2734-3.7188-1.4766-9.3516-0.27344-12.633 1.6406-3.3906 1.9688-6.6719 5.9062-7.5469 9.7891-0.92969 4.2109-0.76562 8.9141 1.6406 12.633 2.4609 3.7734 5.6328 5.8516 9.7891 7.5469z"/>
  <path d="m333.32 196.77c0 4.0469-0.27344 8.0938-0.82031 12.141 0.21875-1.4766 0.38281-2.8984 0.60156-4.375-1.0938 7.5469-3.0625 14.93-6.0156 21.984 0.54687-1.3125 1.0938-2.625 1.6406-3.9375-2.1875 5.1953-4.8672 10.227-7.9844 14.93-0.82031 1.2031-1.6406 2.3516-2.4609 3.5-1.6406 2.2969 0.98438-0.92969 1.0391-1.3125-0.10937 0.49219-0.98437 1.2578-1.3672 1.6953-1.8047 2.1875-3.7734 4.3203-5.7969 6.3438-1.9141 1.9141-3.9922 3.7734-6.0703 5.5234-0.54688 0.4375-1.0938 0.875-1.6953 1.3672-1.4766 1.2031 3.3906-2.5156 1.3125-1.0391-1.1484 0.82031-2.2969 1.6953-3.5 2.4609-4.8125 3.2266-9.8984 5.9609-15.203 8.2031l3.9375-1.6406c-7.0547 2.8984-14.438 4.9219-21.984 6.0156 1.4766-0.21875 2.8984-0.38281 4.375-0.60156-8.0938 1.0938-16.188 1.0938-24.281 0 1.4766 0.21875 2.8984 0.38281 4.375 0.60156-7.5469-1.0938-14.93-3.0625-21.984-6.0156l3.9375 1.6406c-5.1953-2.1875-10.227-4.8672-14.93-7.9844-1.2031-0.82031-2.3516-1.6406-3.5-2.4609-2.2969-1.6406 0.92969 0.98437 1.3125 1.0391-0.49219-0.10938-1.2578-0.98438-1.6953-1.3672-2.1875-1.8047-4.3203-3.7734-6.3438-5.7969-1.9141-1.9141-3.7734-3.9922-5.5234-6.0703-0.4375-0.54688-0.875-1.0938-1.3672-1.6953-1.2031-1.4766 2.5156 3.3906 1.0391 1.3125-0.82031-1.1484-1.6953-2.2969-2.4609-3.5-3.2266-4.8125-5.9609-9.8984-8.2031-15.203l1.6406 3.9375c-2.8984-7.0547-4.9219-14.438-6.0156-21.984 0.21875 1.4766 0.38281 2.8984 0.60156 4.375-1.0938-8.0938-1.0938-16.188 0-24.281-0.21875 1.4766-0.38281 2.8984-0.60156 4.375 1.0938-7.5469 3.0625-14.93 6.0156-21.984l-1.6406 3.9375c2.1875-5.1953 4.8672-10.227 7.9844-14.93 0.82031-1.2031 1.6406-2.3516 2.4609-3.5 1.6406-2.2969-0.98438 0.92969-1.0391 1.3125 0.10938-0.49219 0.98438-1.2578 1.3672-1.6953 1.8047-2.1875 3.7734-4.3203 5.7969-6.3438 1.9141-1.9141 3.9922-3.7734 6.0703-5.5234 0.54688-0.4375 1.0938-0.875 1.6953-1.3672 1.4766-1.2031-3.3906 2.5156-1.3125 1.0391 1.1484-0.82031 2.2969-1.6953 3.5-2.4609 4.8125-3.2266 9.8984-5.9609 15.203-8.2031-1.3125 0.54688-2.625 1.0938-3.9375 1.6406 7.0547-2.8984 14.438-4.9219 21.984-6.0156-1.4766 0.21875-2.8984 0.38281-4.375 0.60156 8.0938-1.0938 16.188-1.0938 24.281 0-1.4766-0.21875-2.8984-0.38281-4.375-0.60156 7.5469 1.0938 14.93 3.0625 21.984 6.0156-1.3125-0.54688-2.625-1.0938-3.9375-1.6406 5.1953 2.1875 10.227 4.8672 14.93 7.9844 1.2031 0.82031 2.3516 1.6406 3.5 2.4609 2.2969 1.6406-0.92969-0.98438-1.3125-1.0391 0.49219 0.10938 1.2578 0.98438 1.6953 1.3672 2.1875 1.8047 4.3203 3.7734 6.3438 5.7969 1.9141 1.9141 3.7734 3.9922 5.5234 6.0703 0.4375 0.54687 0.875 1.0938 1.3672 1.6953 1.2031 1.4766-2.5156-3.3906-1.0391-1.3125 0.82031 1.1484 1.6953 2.2969 2.4609 3.5 3.2266 4.8125 5.9609 9.8984 8.2031 15.203-0.54687-1.3125-1.0938-2.625-1.6406-3.9375 2.8984 7.0547 4.9219 14.438 6.0156 21.984-0.21875-1.4766-0.38281-2.8984-0.60156-4.375 0.49219 4.0469 0.76562 8.0938 0.82031 12.141 0.054688 8.5859 7.5469 16.789 16.406 16.406 8.8594-0.38281 16.461-7.2188 16.406-16.406-0.10937-21.164-6.4531-42.711-18.922-59.992-12.906-17.938-30.188-31.172-50.914-38.883-39.922-14.766-87.992-1.8594-115.06 31.008-14.438 17.555-22.969 38.281-24.719 60.977-1.6406 21 3.7734 42.875 14.656 60.867 10.664 17.609 26.742 32.594 45.609 41.016 20.945 9.4062 43.477 12.141 66.062 7.6562 41.016-8.0938 75.25-43.258 81.648-84.656 0.92969-5.9609 1.5859-11.922 1.6406-17.992 0.054688-8.5859-7.5469-16.789-16.406-16.406-8.9688 0.4375-16.406 7.2188-16.406 16.406z"/>
  <use x="70" y="568.203125" xlink:href="#v"/>
  <use x="72.007812" y="568.203125" xlink:href="#f"/>
  <use x="73.355469" y="568.203125" xlink:href="#a"/>
  <use x="75.210937" y="568.203125" xlink:href="#e"/>
  <use x="77.054688" y="568.203125" xlink:href="#d"/>
  <use x="78.363281" y="568.203125" xlink:href="#a"/>
  <use x="80.214844" y="568.203125" xlink:href="#k"/>
  <use x="83.125" y="568.203125" xlink:href="#j"/>
  <use x="85.082031" y="568.203125" xlink:href="#i"/>
  <use x="87.816406" y="568.203125" xlink:href="#c"/>
  <use x="89.445312" y="568.203125" xlink:href="#b"/>
  <use x="91.390625" y="568.203125" xlink:href="#e"/>
  <use x="93.238281" y="568.203125" xlink:href="#c"/>
  <use x="94.863281" y="568.203125" xlink:href="#b"/>
  <use x="96.8125" y="568.203125" xlink:href="#e"/>
  <use x="98.65625" y="568.203125" xlink:href="#h"/>
  <use x="100.601562" y="568.203125" xlink:href="#u"/>
  <use x="103.375" y="568.203125" xlink:href="#c"/>
  <use x="105" y="568.203125" xlink:href="#t"/>
  <use x="105.9375" y="568.203125" xlink:href="#h"/>
  <use x="107.882812" y="568.203125" xlink:href="#s"/>
  <use x="109.84375" y="568.203125" xlink:href="#b"/>
  <use x="70" y="570.9375" xlink:href="#r"/>
  <use x="71.191406" y="570.9375" xlink:href="#f"/>
  <use x="72.539062" y="570.9375" xlink:href="#g"/>
  <use x="74.417969" y="570.9375" xlink:href="#q"/>
  <use x="78.21875" y="570.9375" xlink:href="#d"/>
  <use x="79.523438" y="570.9375" xlink:href="#b"/>
  <use x="81.472656" y="570.9375" xlink:href="#a"/>
  <use x="84.277344" y="570.9375" xlink:href="#p"/>
  <use x="86.566406" y="570.9375" xlink:href="#g"/>
  <use x="88.445312" y="570.9375" xlink:href="#o"/>
  <use x="90.390625" y="570.9375" xlink:href="#h"/>
  <use x="93.289062" y="570.9375" xlink:href="#n"/>
  <use x="95.292969" y="570.9375" xlink:href="#f"/>
  <use x="96.644531" y="570.9375" xlink:href="#g"/>
  <use x="98.519531" y="570.9375" xlink:href="#m"/>
  <use x="99.457031" y="570.9375" xlink:href="#a"/>
  <use x="101.3125" y="570.9375" xlink:href="#l"/>
  <use x="102.933594" y="570.9375" xlink:href="#d"/>
 </g>
</svg>
