<svg width="19" height="19" viewBox="0 0 19 19" fill="none" xmlns="http://www.w3.org/2000/svg">
<path d="M6.12737 10.6537H3.68672C3.43797 9.71357 3.43797 8.72545 3.68672 7.78537H6.12737C6.06387 8.2609 6.02948 8.73983 6.02439 9.21951C6.02948 9.6992 6.06387 10.1781 6.12737 10.6537ZM4.28401 6.35122H6.38482C6.62507 5.46637 6.96356 4.61086 7.39404 3.80049C6.08036 4.24682 4.97488 5.15349 4.28401 6.35122ZM14.2526 6.35122C13.5563 5.15403 12.4479 4.24798 11.1323 3.80049C11.5687 4.60698 11.9041 5.4636 12.1312 6.35122M9.26829 14.9254C9.88024 14.0604 10.3463 13.102 10.6482 12.0878H7.88835C8.19026 13.102 8.65635 14.0604 9.26829 14.9254ZM9.26829 3.50342C8.65583 4.3718 8.18973 5.33368 7.88835 6.35122H10.6482C10.3469 5.33368 9.88076 4.3718 9.26829 3.50342ZM4.28401 12.0878C4.97922 13.2819 6.08313 14.1873 7.39404 14.6385C6.96356 13.8282 6.62507 12.9727 6.38482 12.0878M18.5366 2.04878V16.3902C18.5366 16.9336 18.3196 17.4547 17.9333 17.839C17.5471 18.2232 17.0232 18.439 16.477 18.439H2.05962C1.51338 18.439 0.989503 18.2232 0.603249 17.839C0.216995 17.4547 0 16.9336 0 16.3902V2.04878C0 1.50541 0.216995 0.984295 0.603249 0.600074C0.989503 0.215853 1.51338 0 2.05962 0H16.477C17.0232 0 17.5471 0.215853 17.9333 0.600074C18.3196 0.984295 18.5366 1.50541 18.5366 2.04878ZM16.477 9.21951C16.477 7.80128 16.0542 6.41489 15.2621 5.23567C14.47 4.05645 13.3441 3.13736 12.0269 2.59462C10.7097 2.05188 9.2603 1.90988 7.86195 2.18656C6.46361 2.46325 5.17914 3.14619 4.17099 4.14904C3.16284 5.15188 2.47628 6.42959 2.19813 7.82057C1.91998 9.21156 2.06274 10.6534 2.60835 11.9636C3.15396 13.2739 4.07791 14.3938 5.26337 15.1818C6.44883 15.9697 7.84255 16.3902 9.26829 16.3902C11.1802 16.3902 13.0137 15.6348 14.3656 14.29C15.7175 12.9452 16.477 11.1213 16.477 9.21951ZM12.5122 9.21951C12.5071 9.6992 12.4727 10.1781 12.4092 10.6537H14.8499C15.0986 9.71357 15.0986 8.72545 14.8499 7.78537H12.4092C12.4727 8.2609 12.5071 8.73983 12.5122 9.21951ZM11.1323 14.6385C12.4465 14.1886 13.5541 13.2832 14.2526 12.0878H12.1312C11.9041 12.9754 11.5687 13.8321 11.1323 14.6385ZM7.5794 7.78537C7.42569 8.73535 7.42569 9.70367 7.5794 10.6537H10.9572C11.0277 10.1787 11.0655 9.69957 11.0705 9.21951C11.0658 8.73944 11.028 8.26026 10.9572 7.78537H7.5794Z" fill="black"/>
</svg>
