<svg width="18" height="18" viewBox="0 0 18 18" fill="none" xmlns="http://www.w3.org/2000/svg">
<path fill-rule="evenodd" clip-rule="evenodd" d="M2 0C0.895508 0 0 0.895386 0 2V16C0 17.1046 0.895508 18 2 18H16C17.1045 18 18 17.1046 18 16V2C18 0.895386 17.1045 0 16 0H2ZM6 2C3.79077 2 2 3.79089 2 6V12C2 14.2091 3.79077 16 6 16H12C14.2092 16 16 14.2091 16 12V6C16 3.79089 14.2092 2 12 2H6Z" fill="black"/>
<path d="M14.2136 5.05609C14.1024 4.76768 13.932 4.50575 13.7135 4.28719C13.4949 4.06862 13.233 3.89826 12.9446 3.78709C12.5467 3.64002 12.1267 3.5621 11.7026 3.55669C10.997 3.52429 10.7846 3.51709 8.99987 3.51709C7.21517 3.51709 7.00367 3.52429 6.29987 3.55669C5.87576 3.56124 5.45561 3.63888 5.05787 3.78619C4.47378 4.01119 4.01388 4.47199 3.78888 5.05519C3.64128 5.45389 3.56388 5.87419 3.55848 6.29719C3.52608 7.00279 3.51978 7.21429 3.51978 8.99989C3.51978 10.7855 3.52608 10.9979 3.55848 11.7026C3.56298 12.1265 3.64128 12.5468 3.78798 12.9446C3.8992 13.233 4.06957 13.4949 4.28813 13.7134C4.50669 13.932 4.76859 14.1024 5.05697 14.2136C5.45567 14.3603 5.87597 14.4386 6.29897 14.4431C7.00367 14.4755 7.21517 14.4818 9.00077 14.4818C10.7864 14.4818 10.9988 14.4755 11.7035 14.4431C12.1276 14.4382 12.5478 14.3602 12.9455 14.2127C13.2339 14.1015 13.4958 13.9311 13.7143 13.7125C13.9329 13.494 14.1032 13.2321 14.2145 12.9437C14.3621 12.5468 14.4395 12.1265 14.4449 11.7017C14.4773 10.997 14.4836 10.7855 14.4836 8.99989C14.4836 7.21429 14.4773 7.00279 14.4449 6.29809C14.44 5.87393 14.362 5.45378 14.2145 5.05609H14.2136ZM8.99987 12.4334C8.54898 12.4334 8.1025 12.3446 7.68593 12.172C7.26936 11.9995 6.89085 11.7466 6.57202 11.4277C6.25319 11.1089 6.00028 10.7304 5.82773 10.3138C5.65519 9.89726 5.56637 9.45078 5.56637 8.99989C5.56637 8.549 5.65519 8.10252 5.82773 7.68595C6.00028 7.26938 6.25319 6.89087 6.57202 6.57204C6.89085 6.25321 7.26936 6.0003 7.68593 5.82775C8.1025 5.6552 8.54898 5.56639 8.99987 5.56639C9.91049 5.56639 10.7838 5.92813 11.4277 6.57204C12.0716 7.21594 12.4334 8.08927 12.4334 8.99989C12.4334 9.91051 12.0716 10.7838 11.4277 11.4277C10.7838 12.0716 9.91049 12.4334 8.99987 12.4334ZM12.5693 6.23239C12.3611 6.22542 12.1638 6.13783 12.0191 5.98812C11.8743 5.83841 11.7933 5.6383 11.7933 5.43004C11.7933 5.22178 11.8743 5.02167 12.0191 4.87196C12.1638 4.72225 12.3611 4.63466 12.5693 4.62769C12.7775 4.63405 12.9759 4.72108 13.1211 4.87038C13.2663 5.01969 13.3479 5.21959 13.3484 5.42786C13.349 5.63614 13.2686 5.83649 13.1243 5.98661C12.9799 6.13673 12.7828 6.22486 12.5747 6.23239H12.5693Z" fill="black"/>
<path d="M8.99981 6.77063C8.55889 6.77063 8.12788 6.90138 7.76128 7.14634C7.39467 7.39129 7.10893 7.73946 6.9402 8.14682C6.77147 8.55417 6.72733 9.00241 6.81334 9.43485C6.89936 9.86729 7.11168 10.2645 7.42346 10.5763C7.73523 10.8881 8.13245 11.1004 8.56489 11.1864C8.99734 11.2724 9.44557 11.2283 9.85292 11.0595C10.2603 10.8908 10.6084 10.6051 10.8534 10.2385C11.0984 9.87186 11.2291 9.44085 11.2291 8.99993C11.2291 8.40884 10.9944 7.84194 10.5765 7.4239C10.1586 7.00585 9.5918 6.77087 9.00071 6.77063H8.99981Z" fill="black"/>
<path d="M17.937 4.563C17.9289 3.86714 17.801 3.17786 17.559 2.5254C17.3829 2.04837 17.1021 1.61688 16.7373 1.2627C16.3832 0.897782 15.9517 0.616983 15.4746 0.441C14.8217 0.199488 14.1322 0.0716376 13.4361 0.0629999C12.2778 0.0125999 11.9313 0 9 0C6.0705 0 5.7222 0.0107999 4.5648 0.0629999C3.86868 0.0714423 3.17917 0.199298 2.5263 0.441C2.049 0.61654 1.61741 0.897399 1.2636 1.2627C0.899389 1.61741 0.618701 2.04874 0.4419 2.5254C0.200422 3.17833 0.0725732 3.8678 0.0639001 4.5639C0.0126001 5.7222 0 6.0696 0 9.0009C0 11.9322 0.0108001 12.2796 0.0639001 13.437C0.0729001 14.1327 0.1998 14.823 0.4419 15.4755C0.6174 15.9525 0.8982 16.3845 1.2627 16.7373C1.6171 17.1019 2.04852 17.3826 2.5254 17.559C3.17814 17.8012 3.86773 17.9291 4.5639 17.937C5.7213 17.9901 6.0696 18 9 18C11.9313 18 12.2787 17.9892 13.437 17.937C14.1329 17.929 14.8221 17.8011 15.4746 17.559C15.9482 17.3764 16.3784 17.0967 16.7374 16.7379C17.0964 16.3791 17.3762 15.949 17.559 15.4755C17.8002 14.8221 17.928 14.1327 17.937 13.437C17.9892 12.2787 18 11.9304 18 9C18 6.0687 17.9892 5.7222 17.937 4.563ZM15.6465 11.7567C15.6359 12.3116 15.5309 12.8606 15.336 13.3803C15.1642 13.8245 14.9014 14.2279 14.5647 14.5647C14.2279 14.9014 13.8245 15.1642 13.3803 15.336C12.8608 15.5305 12.3122 15.6355 11.7576 15.6465C11.0439 15.6798 10.8162 15.687 9 15.687C7.1838 15.687 6.957 15.6789 6.2433 15.6465C5.68874 15.6354 5.14007 15.5305 4.6206 15.336C4.17622 15.1643 3.77261 14.9017 3.43567 14.5649C3.09873 14.2281 2.83589 13.8246 2.664 13.3803C2.46939 12.8606 2.3644 12.3116 2.3535 11.7567C2.322 11.0439 2.313 10.8162 2.313 9C2.313 7.1838 2.3211 6.9561 2.3535 6.2433C2.3644 5.68843 2.46939 5.13944 2.664 4.6197C2.83584 4.17537 3.09867 3.77186 3.43561 3.43507C3.77256 3.09828 4.17619 2.83564 4.6206 2.664C5.14005 2.46949 5.68873 2.36451 6.2433 2.3535C6.957 2.3202 7.1856 2.313 9.0009 2.313C10.8162 2.313 11.0439 2.3211 11.7576 2.3535C12.3125 2.36426 12.8615 2.46926 13.3812 2.664C13.8252 2.83594 14.2285 3.09871 14.5651 3.43548C14.9017 3.77225 15.1643 4.1756 15.336 4.6197C15.5313 5.1399 15.6357 5.688 15.6465 6.2433C15.6789 6.9561 15.687 7.1838 15.687 9C15.687 10.8162 15.6789 11.043 15.6465 11.7567Z" fill="black"/>
</svg>
