<svg width="19" height="19" viewBox="0 0 19 19" fill="none" xmlns="http://www.w3.org/2000/svg">
<path d="M16.477 0C17.0232 0 17.5471 0.215853 17.9333 0.600074C18.3196 0.984295 18.5366 1.50541 18.5366 2.04878V16.3902C18.5366 16.9336 18.3196 17.4547 17.9333 17.839C17.5471 18.2232 17.0232 18.439 16.477 18.439H2.05962C1.51338 18.439 0.989503 18.2232 0.603249 17.839C0.216995 17.4547 0 16.9336 0 16.3902V2.04878C0 1.50541 0.216995 0.984295 0.603249 0.600074C0.989503 0.215853 1.51338 0 2.05962 0H16.477ZM15.9621 15.8781V10.4488C15.9621 9.56309 15.6084 8.71367 14.9788 8.08739C14.3492 7.46111 13.4953 7.10927 12.6049 7.10927C11.7295 7.10927 10.71 7.64195 10.2157 8.44098V7.3039H7.34255V15.8781H10.2157V10.8278C10.2157 10.039 10.8542 9.39366 11.6472 9.39366C12.0295 9.39366 12.3962 9.54476 12.6666 9.81371C12.937 10.0827 13.0889 10.4474 13.0889 10.8278V15.8781H15.9621ZM3.99567 5.69561C4.45451 5.69561 4.89456 5.51429 5.21902 5.19155C5.54347 4.8688 5.72575 4.43107 5.72575 3.97463C5.72575 3.02195 4.95339 2.24341 3.99567 2.24341C3.53409 2.24341 3.09142 2.42581 2.76503 2.75048C2.43865 3.07514 2.25529 3.51549 2.25529 3.97463C2.25529 4.92732 3.03794 5.69561 3.99567 5.69561ZM5.4271 15.8781V7.3039H2.57453V15.8781H5.4271Z" fill="black"/>
</svg>
