<svg width="19" height="19" viewBox="0 0 19 19" fill="none" xmlns="http://www.w3.org/2000/svg">
<path d="M11.93 11.3281L17.9747 17.3391C17.7324 17.6591 17.4231 17.9227 17.0681 18.1118C16.7131 18.301 16.321 18.411 15.9191 18.4344L15.7559 18.439H2.78046C2.35039 18.4395 1.92609 18.3405 1.54103 18.15C1.15598 17.9594 0.820702 17.6825 0.561653 17.341L6.60544 11.3281L8.75381 12.7525L8.86132 12.8133C8.98802 12.8749 9.12718 12.9069 9.2682 12.9069C9.40921 12.9069 9.54837 12.8749 9.67507 12.8133L9.78258 12.7525L11.93 11.3281ZM0 6.94702L5.0317 10.2845L0 15.2906V6.94702ZM18.5364 6.94702V15.2906L13.5038 10.2845L18.5364 6.94702ZM9.676 0.0942287L9.78258 0.155077L17.6086 5.34469L9.2682 10.8763L0.92682 5.34469L8.75381 0.154155C8.88871 0.0649531 9.04476 0.0124797 9.20641 0.00196512C9.36805 -0.00854943 9.53056 0.0232621 9.676 0.0942287Z" fill="black"/>
</svg>
